<svg width="692" height="1043" viewBox="0 0 692 1043" fill="none" xmlns="http://www.w3.org/2000/svg">
<g clip-path="url(#clip0_456_17923)">
<rect width="692" height="1043" rx="10" fill="url(#paint0_linear_456_17923)"/>
<path d="M920.298 904.198C957.449 834.646 975.497 746.37 966.661 677.45C957.824 608.53 922.374 561.118 875.606 555.666C822.717 549.504 759.732 593.315 709.159 578.911C647.698 561.4 623.284 465.8 587 396.638C537.058 301.457 455.938 250.643 363.887 256.867C291.045 261.794 213.656 300.689 138.954 317.847C64.2504 335.006 -13.0313 326.542 -51.8273 250.224C-93.5028 168.236 -80.9778 29.0523 -113.256 -64.6974C-152.314 -178.142 -261.735 -202.144 -357.516 -118.277" stroke="white" stroke-opacity="0.07" stroke-width="2.66667" stroke-miterlimit="10"/>
<path d="M931.857 898.257C968.261 826.809 984.957 737.636 974.71 668.796C964.6 600.216 928.041 553.783 880.463 549.322C876.371 548.936 872.217 548.842 868.018 548.995C817.055 550.834 759.213 588.609 711.54 577.935C688.398 572.755 670.082 557.179 654.265 535.859C627.111 499.4 607.84 445.971 584.5 401.744C566.883 368.367 545.924 339.653 522.331 316.543C477.921 272.985 423.76 248.78 364.009 249.902C349.389 250.168 334.525 251.881 319.451 254.646C259.826 265.622 197.568 293.371 137.079 307.489C129.457 309.268 121.813 310.794 114.188 312.017C46.0061 322.962 -21.1049 308.908 -55.8105 238.656C-95.6821 157.95 -83.9072 23.1175 -114.476 -68.8607C-151.465 -180.199 -255.454 -206.334 -347.643 -128.755" stroke="white" stroke-opacity="0.07" stroke-width="2.66668" stroke-miterlimit="10"/>
<path d="M943.397 892.309C979.06 818.972 994.401 728.901 982.736 660.146C971.365 591.903 933.706 546.448 885.313 542.975C881.149 542.675 876.932 542.667 872.661 542.91C820.897 545.826 762.535 585 713.906 576.962C690.304 573.06 671.302 559.006 654.717 538.832C626.156 504.351 605.777 451.661 581.981 406.85C564.088 373.127 543.255 343.39 520.067 318.984C476.398 272.913 423.52 244.76 364.118 242.943C349.575 242.474 334.723 243.523 319.575 245.759C259.705 254.642 196.536 282.59 135.193 297.135C127.464 298.968 119.716 300.552 111.99 301.832C42.9082 313.306 -25.2957 298.977 -59.8025 227.093C-97.9074 147.72 -86.8466 17.1848 -115.707 -73.0214C-150.625 -182.254 -249.182 -210.521 -337.78 -139.23" stroke="white" stroke-opacity="0.07" stroke-width="2.66667" stroke-miterlimit="10"/>
<path d="M954.952 886.369C989.86 811.137 1003.73 720.279 990.781 651.499C978.012 583.698 939.371 539.119 890.169 536.63C885.935 536.416 881.645 536.494 877.31 536.823C824.746 540.82 765.855 581.392 716.281 575.988C692.218 573.364 672.532 560.832 655.172 541.812C625.198 509.303 603.712 457.353 579.473 411.958C561.304 377.893 540.594 347.133 517.808 321.426C474.879 272.842 423.28 240.741 364.233 235.981C349.765 234.782 334.922 235.166 319.706 236.87C259.587 243.665 195.507 271.813 133.31 286.778C125.474 288.665 117.622 290.306 109.795 291.65C39.8137 303.651 -29.4932 289.067 -63.7922 215.531C-100.165 137.547 -89.7828 11.2528 -116.934 -77.182C-149.782 -184.309 -242.907 -214.71 -327.913 -149.707" stroke="white" stroke-opacity="0.07" stroke-width="2.66667" stroke-miterlimit="10"/>
<path d="M966.504 880.424C1000.67 803.302 1013.16 711.582 998.823 642.852C984.762 575.418 945.045 531.787 895.03 530.286C890.732 530.158 886.37 530.322 881.97 530.742C828.609 535.82 769.191 577.787 718.663 575.015C694.139 573.673 673.807 562.582 655.637 544.793C624.315 514.125 601.652 463.046 576.978 417.069C558.525 382.661 537.938 350.873 515.562 323.872C473.369 272.778 423.054 236.726 364.357 229.024C349.961 227.092 335.135 226.817 319.843 227.986C259.48 232.688 194.489 261.034 131.439 276.423C123.494 278.363 115.538 280.063 107.61 281.469C36.7301 294.003 -33.6931 279.192 -67.7708 203.967C-102.446 127.427 -92.7084 5.32367 -118.151 -81.3393C-148.928 -186.36 -236.621 -218.893 -318.034 -160.18" stroke="white" stroke-opacity="0.07" stroke-width="2.66667" stroke-miterlimit="10"/>
<path d="M978.065 874.485C1011.48 795.468 1022.59 702.878 1006.87 634.206C991.514 567.136 950.716 524.456 899.89 523.944C895.519 523.897 891.092 524.152 886.619 524.662C832.457 530.816 772.519 574.182 721.042 574.047C696.056 573.983 675.053 564.399 656.103 547.776C623.376 519.06 599.598 468.742 574.471 422.177C555.743 387.43 535.283 354.615 513.309 326.318C471.853 272.71 422.825 232.711 364.479 222.065C350.159 219.403 335.34 218.464 319.981 219.099C259.374 221.714 193.467 250.257 129.563 266.07C121.511 268.062 113.451 269.825 105.422 271.284C33.6432 284.352 -37.9096 269.342 -71.7529 192.408C-104.764 117.364 -95.6371 -0.604915 -119.37 -85.4953C-148.077 -188.41 -230.337 -223.076 -308.158 -170.652" stroke="white" stroke-opacity="0.07" stroke-width="2.66667" stroke-miterlimit="10"/>
<path d="M989.609 868.548C1022.29 787.637 1032.02 694.176 1014.91 625.563C998.27 558.853 956.373 517.128 904.745 517.604C900.301 517.644 895.808 517.98 891.268 518.581C836.307 525.817 775.848 570.577 723.417 573.079C697.971 574.297 676.278 566.222 656.56 550.758C622.427 523.999 597.535 474.441 571.967 427.294C552.955 392.199 532.619 358.366 511.05 328.768C470.335 272.648 422.587 228.701 364.594 215.115C350.351 211.719 335.545 210.115 320.11 210.221C259.259 210.743 192.442 239.487 127.685 255.724C119.526 257.767 111.361 259.587 103.231 261.109C30.553 274.705 -42.1455 259.528 -75.7367 180.854C-107.118 107.353 -98.5683 -6.52694 -120.592 -89.6454C-147.228 -190.454 -224.056 -227.252 -298.284 -181.117" stroke="white" stroke-opacity="0.07" stroke-width="2.66666" stroke-miterlimit="10"/>
<path d="M1001.17 862.61C1033.09 779.807 1041.46 685.47 1022.95 616.918C1005.04 550.57 962.05 509.808 909.607 511.268C905.097 511.393 900.53 511.816 895.923 512.506C840.164 520.824 779.177 566.978 725.799 572.117C699.891 574.613 677.52 568.048 657.026 553.746C621.479 528.944 595.475 480.143 569.466 432.412C550.176 396.975 529.966 362.115 508.803 331.222C468.824 272.591 422.36 224.693 364.719 208.163C350.547 204.036 335.754 201.772 320.248 201.341C259.153 199.774 191.424 228.716 125.814 245.377C117.546 247.477 109.278 249.354 101.047 250.935C27.4705 265.06 -46.3935 249.747 -79.7138 169.298C-109.498 97.3868 -101.492 -12.4482 -121.807 -93.7933C-146.373 -192.495 -217.767 -231.427 -288.402 -191.581" stroke="white" stroke-opacity="0.07" stroke-width="2.66667" stroke-miterlimit="10"/>
<path d="M1012.73 856.677C1043.9 771.98 1050.91 676.767 1031 608.281C1011.81 542.285 967.724 502.486 914.466 504.933C909.889 505.146 905.256 505.654 900.582 506.431C844.028 515.83 782.511 563.381 728.187 571.154C701.813 574.932 678.76 569.881 657.489 556.738C620.533 533.896 593.42 485.852 566.968 437.534C547.399 401.755 527.313 365.872 506.555 333.684C467.317 272.535 422.133 220.69 364.847 201.219C350.75 196.359 335.971 193.43 320.392 192.471C259.05 188.811 190.412 217.949 123.948 235.034C115.573 237.187 107.2 239.123 98.8684 240.761C24.3936 255.419 -50.6567 240.008 -83.6848 157.75C-111.903 87.4738 -104.41 -18.3628 -123.016 -97.9347C-145.511 -194.529 -211.471 -235.594 -278.514 -202.039" stroke="white" stroke-opacity="0.07" stroke-width="2.66667" stroke-miterlimit="10"/>
<path d="M1024.28 850.74C1054.71 764.153 1060.37 668.057 1039.04 599.645C1018.58 533.995 973.386 495.166 919.331 498.603C914.68 498.9 909.979 499.495 905.238 500.362C847.876 510.837 785.844 559.788 730.567 570.197C703.732 575.249 679.996 571.716 657.963 559.732C619.583 538.859 591.371 491.559 564.469 442.658C544.618 406.533 524.662 369.627 504.307 336.144C465.81 272.483 421.91 216.691 364.971 194.275C350.954 188.686 336.187 185.093 320.535 183.598C258.948 177.851 189.399 207.19 122.083 224.694C113.601 226.901 105.124 228.899 96.6913 230.595C21.3179 245.785 -54.9423 230.302 -87.654 146.206C-114.337 77.6064 -107.326 -24.2727 -124.222 -102.072C-144.646 -196.558 -205.173 -239.756 -268.622 -212.49" stroke="white" stroke-opacity="0.07" stroke-width="2.66666" stroke-miterlimit="10"/>
<path d="M1035.83 844.811C1065.52 756.328 1069.82 659.344 1047.08 591.014C1025.35 525.71 979.057 487.853 924.185 492.281C919.466 492.661 914.698 493.341 909.888 494.299C851.728 505.855 789.174 556.199 732.946 569.241C705.654 575.575 681.236 573.56 658.425 562.726C618.635 543.826 589.315 497.272 561.969 447.789C541.839 411.321 522.011 373.39 502.062 338.611C464.301 272.437 421.686 212.697 365.098 187.338C351.154 181.018 336.399 176.765 320.68 174.738C258.846 166.897 188.387 196.434 120.219 214.361C111.629 216.621 103.048 218.677 94.5148 220.435C18.2434 236.153 -59.2543 220.638 -91.621 134.664C-116.8 67.7853 -110.24 -30.1761 -125.428 -106.202C-143.781 -198.58 -198.874 -243.91 -258.728 -222.934" stroke="white" stroke-opacity="0.07" stroke-width="2.66666" stroke-miterlimit="10"/>
<path d="M1047.4 838.888C1076.33 748.512 1079.29 650.637 1055.14 582.39C1032.14 517.423 984.736 480.549 929.057 485.961C924.267 486.427 919.427 487.193 914.552 488.237C855.596 500.874 792.516 552.611 735.337 568.295C707.585 575.906 682.482 575.413 658.903 565.73C617.693 548.807 587.273 502.99 559.483 452.925C539.074 416.114 519.369 377.16 499.826 341.082C462.802 272.4 421.472 208.71 365.239 180.41C351.371 173.356 336.629 168.439 320.834 165.879C258.76 155.95 187.389 185.682 118.368 204.036C109.671 206.346 100.985 208.459 92.3511 210.281C15.1823 226.527 -63.5845 211.022 -95.5755 123.132C-119.28 58.0068 -113.142 -36.0742 -126.62 -110.326C-142.902 -200.596 -192.561 -248.058 -248.822 -233.373" stroke="white" stroke-opacity="0.07" stroke-width="2.66667" stroke-miterlimit="10"/>
<path d="M1058.95 832.962C1087.14 740.699 1088.75 641.926 1063.17 573.765C1038.92 509.139 990.399 473.248 933.915 479.647C929.059 480.199 924.152 481.047 919.203 482.185C859.452 495.899 795.851 549.033 737.722 567.349C709.507 576.242 683.712 577.27 659.373 568.738C616.744 553.797 585.224 508.713 556.987 458.066C536.299 420.914 516.722 380.934 497.585 343.561C461.299 272.367 421.253 204.731 365.372 173.487C351.581 165.707 336.848 160.122 320.986 157.028C258.666 145.011 186.385 174.943 116.513 193.718C107.708 196.084 98.919 198.256 90.1842 200.13C12.1188 216.909 -67.9525 201.462 -99.5314 111.609C-121.791 48.2734 -116.045 -41.9607 -127.813 -114.437C-142.025 -202.599 -186.25 -252.192 -238.916 -243.798" stroke="white" stroke-opacity="0.07" stroke-width="2.66667" stroke-miterlimit="10"/>
<path d="M1070.5 827.046C1097.94 732.891 1098.21 633.219 1071.21 565.154C1045.7 500.855 996.063 465.955 938.769 473.343C933.847 473.976 928.866 474.915 923.858 476.143C863.307 490.937 799.179 545.462 740.11 566.415C711.429 576.585 684.951 579.139 659.844 571.754C615.792 558.793 583.175 514.444 554.498 463.216C533.529 425.718 514.075 384.717 495.345 346.05C459.8 272.345 421.035 200.764 365.51 166.581C351.792 158.067 337.075 151.823 321.139 148.195C258.577 134.085 185.389 164.214 114.666 183.41C105.754 185.83 96.8607 188.059 88.0263 189.997C9.06435 207.303 -72.351 191.956 -103.477 100.096C-124.319 38.5873 -118.937 -47.8324 -128.997 -118.534C-141.138 -204.584 -179.928 -256.31 -229 -254.205" stroke="white" stroke-opacity="0.07" stroke-width="2.66666" stroke-miterlimit="10"/>
<path d="M1082.06 821.13C1108.74 725.09 1107.68 624.515 1079.26 556.55C1052.49 492.579 1001.74 458.671 943.635 467.046C938.638 467.765 933.598 468.79 928.515 470.104C867.17 485.978 802.523 541.899 742.501 565.482C713.36 576.934 686.2 581.014 660.325 574.771C614.856 563.804 581.14 520.181 552.02 468.372C530.772 430.533 511.446 388.511 493.119 348.547C458.315 272.336 420.836 196.803 365.663 159.681C352.022 150.438 337.318 143.529 321.311 139.368C258.504 123.17 184.409 153.498 112.836 173.112C103.817 175.586 94.8204 177.877 85.8845 179.872C6.02761 197.71 -76.7768 182.51 -107.403 88.5964C-126.857 28.9411 -121.811 -53.6935 -130.161 -122.619C-140.231 -206.559 -173.588 -260.414 -219.064 -264.599" stroke="white" stroke-opacity="0.07" stroke-width="2.66666" stroke-miterlimit="10"/>
<path d="M1093.62 815.223C1119.56 717.294 1117.16 615.808 1087.3 547.951C1059.3 484.302 1007.42 451.397 948.506 460.754C943.443 461.56 938.327 462.67 933.185 464.076C871.041 481.025 805.869 538.34 744.903 564.559C715.307 577.283 687.458 582.897 660.814 577.797C613.926 568.819 579.111 525.921 549.549 473.532C528.023 435.353 508.821 392.306 490.903 351.052C456.838 272.327 420.643 192.852 365.824 152.792C352.254 142.814 337.564 135.242 321.486 130.551C258.438 112.262 183.436 142.784 111.013 162.826C101.887 165.348 92.787 167.697 83.7507 169.754C2.99912 188.12 -81.2479 173.124 -111.321 77.1021C-129.414 19.3308 -124.676 -59.5472 -131.317 -126.697C-139.317 -208.526 -167.24 -264.511 -209.122 -274.986" stroke="white" stroke-opacity="0.07" stroke-width="2.66666" stroke-miterlimit="10"/>
<path d="M1105.17 809.312C1130.36 709.499 1126.63 607.098 1095.33 539.353C1066.09 476.02 1013.08 444.118 953.362 454.463C948.231 455.354 943.048 456.551 937.838 458.042C874.898 476.076 809.202 534.777 747.288 563.631C717.234 577.636 688.678 584.866 661.294 580.822C612.946 573.988 577.075 531.665 547.066 478.692C525.262 440.168 506.187 396.104 488.672 353.553C455.348 272.319 420.435 188.9 365.972 145.898C352.48 135.192 337.802 126.959 321.654 121.732C258.365 101.356 182.452 132.072 109.181 152.536C99.9471 155.115 90.7431 157.518 81.607 159.633C-0.0396234 178.529 -85.7907 163.804 -115.249 65.6092C-132.008 9.74603 -127.551 -65.4005 -132.484 -130.774C-138.414 -210.492 -160.903 -268.607 -199.19 -285.37" stroke="white" stroke-opacity="0.07" stroke-width="2.66666" stroke-miterlimit="10"/>
<path d="M1116.73 803.404C1141.17 701.702 1136.11 598.383 1103.38 530.749C1072.89 467.734 1018.76 436.838 958.235 448.171C953.028 449.147 947.785 450.43 942.506 452.012C878.768 471.121 812.555 531.217 749.694 562.702C719.18 577.988 689.939 586.734 661.785 583.845C612.025 578.984 575.047 537.403 544.595 483.849C522.513 444.984 503.562 399.896 486.453 356.052C453.866 272.313 420.242 184.947 366.131 139.007C352.716 127.567 338.048 118.671 321.829 112.914C258.298 90.4471 181.479 121.362 107.357 142.243C98.0167 144.876 88.7093 147.341 79.4729 149.514C-3.06864 168.937 -90.3934 154.548 -119.167 54.114C-134.619 0.181439 -130.417 -71.2564 -133.641 -134.854C-137.5 -212.461 -154.557 -272.706 -189.249 -295.757" stroke="white" stroke-opacity="0.07" stroke-width="2.66667" stroke-miterlimit="10"/>
<path d="M1128.29 797.496C1151.97 693.906 1145.68 589.534 1111.43 522.151C1079.78 459.326 1024.43 429.559 963.096 441.883C957.822 442.941 952.51 444.306 947.163 445.982C882.629 466.167 815.901 527.657 752.088 561.776C721.118 578.339 691.194 588.607 662.271 586.863C611.101 583.979 573.017 543.14 542.122 489.001C519.761 449.8 500.939 403.687 484.236 358.551C452.387 272.302 420.042 180.994 366.289 132.112C352.946 119.943 338.294 110.385 322.002 104.095C258.229 79.5385 180.503 110.649 105.533 131.953C96.0848 134.638 86.6739 137.161 77.3367 139.396C-6.09914 159.347 -95.0793 145.365 -123.087 42.6205C-137.258 -9.36162 -133.284 -77.1113 -134.799 -138.933C-136.589 -214.43 -148.213 -276.805 -179.312 -306.142" stroke="white" stroke-opacity="0.07" stroke-width="2.66666" stroke-miterlimit="10"/>
<path d="M1139.84 791.586C1162.79 686.112 1155.15 580.849 1119.47 513.554C1086.56 451.068 1030.11 422.286 967.971 435.592C962.628 436.737 957.24 438.187 951.831 439.949C886.498 461.217 819.255 524.098 754.493 560.847C723.064 578.692 692.459 590.476 662.76 589.886C610.182 588.979 570.991 548.877 539.657 494.159C517.015 454.612 498.316 407.484 482.019 361.049C450.911 272.292 419.851 177.043 366.451 125.223C353.184 112.321 338.546 102.099 322.183 95.2781C258.165 68.632 179.533 99.9392 103.712 121.666C94.1578 124.402 84.6427 126.986 75.2046 129.275C-9.12581 149.761 -99.8554 136.262 -127.003 31.1274C-139.919 -18.8888 -136.147 -82.9658 -135.954 -143.013C-135.674 -216.4 -141.866 -280.903 -169.372 -316.527" stroke="white" stroke-opacity="0.07" stroke-width="2.66667" stroke-miterlimit="10"/>
<path d="M1151.39 785.674C1173.59 678.312 1164.6 572.157 1127.51 504.952C1093.34 442.806 1035.78 415.003 972.834 429.295C967.422 430.522 961.973 432.063 956.494 433.915C890.366 456.258 822.593 520.533 756.892 559.917C724.994 579.037 693.71 592.343 663.243 592.903C609.255 593.968 568.963 554.608 537.182 499.309C514.262 459.422 495.691 411.268 479.796 363.541C449.429 272.275 419.654 173.085 366.606 118.324C353.415 104.693 338.787 93.8092 322.352 86.4546C258.094 57.7197 178.554 89.2236 101.885 111.372C92.2234 114.161 82.6047 116.802 73.0666 119.153C-12.1587 140.166 -104.747 127.25 -130.926 19.6303C-142.611 -28.4086 -139.017 -88.8262 -137.115 -147.098C-134.765 -218.375 -135.526 -285.007 -159.439 -326.918" stroke="white" stroke-opacity="0.07" stroke-width="2.66667" stroke-miterlimit="10"/>
<path d="M1162.97 779.762C1184.41 670.515 1174.06 563.469 1135.57 496.352C1097.08 429.23 1031.21 403.369 961.164 427.882C861.754 462.673 759.321 590.678 663.746 595.922C568.459 601.144 514.589 483.147 477.589 366.035C440.585 248.922 405.352 117.207 322.538 77.6331C249.906 42.9255 157.059 87.493 70.9394 109.034C-15.1798 130.574 -109.756 118.337 -134.837 8.135C-158.15 -94.2983 -112.577 -249.744 -149.496 -337.306" stroke="white" stroke-opacity="0.07" stroke-width="2.66667" stroke-miterlimit="10"/>
<path d="M1163.08 777.332C1183.26 663.507 1168.13 555.62 1125.95 490.052C1085.38 426.994 1019.88 402.568 949.952 425.798C852.053 458.822 751.465 578.17 659.957 578.882C569.013 579.593 519.049 462.975 483.026 348.062C446.846 232.459 409.588 106.949 327.486 70.8172C255.088 39.3203 163.341 84.5349 78.2199 105.285C-8.98525 126.184 -101.318 107.446 -129.203 -1.28361C-155.88 -105.308 -120.357 -254.427 -163.12 -334.413" stroke="white" stroke-opacity="0.07" stroke-width="2.66666" stroke-miterlimit="10"/>
<path d="M1163.21 774.898C1182.12 656.494 1162.33 547.734 1116.33 483.749C1073.84 424.629 1008.58 401.414 938.747 423.713C842.393 454.48 743.644 565.667 656.175 561.839C569.589 558.046 523.515 442.79 488.477 330.077C453.12 215.985 413.959 96.334 332.446 63.9935C260.38 35.4 169.593 81.903 85.5095 101.526C-2.8246 122.141 -92.9643 96.599 -123.561 -10.7102C-153.67 -116.308 -128.134 -259.117 -176.745 -331.524" stroke="white" stroke-opacity="0.07" stroke-width="2.66666" stroke-miterlimit="10"/>
<path d="M1163.34 772.462C1180.99 649.477 1156.64 539.781 1106.72 477.44C1062.43 422.123 997.268 400.45 927.532 421.627C832.717 450.414 735.831 553.179 652.396 544.783C570.185 536.515 527.985 422.594 493.929 312.082C459.395 199.498 418.256 85.9035 337.41 57.1646C265.614 31.643 175.87 79.0699 92.8012 97.767C3.36018 117.9 -84.689 85.8007 -117.917 -20.1427C-151.521 -127.285 -135.912 -263.812 -190.373 -328.636" stroke="white" stroke-opacity="0.07" stroke-width="2.66667" stroke-miterlimit="10"/>
<path d="M1163.47 770.029C1179.86 642.461 1151.05 531.746 1097.11 471.13C1051.15 419.475 985.961 399.502 916.331 419.535C823.053 446.374 728.045 540.71 648.62 527.727C570.8 515.004 532.462 402.396 499.391 294.08C465.683 183.009 422.554 75.4824 342.381 50.3331C270.849 27.8948 182.158 76.2142 100.102 94.0062C9.55344 113.641 -76.4782 75.0522 -112.264 -29.5785C-149.425 -138.227 -143.687 -268.507 -203.999 -325.748" stroke="white" stroke-opacity="0.07" stroke-width="2.66667" stroke-miterlimit="10"/>
<path d="M1163.62 767.59C1178.74 635.437 1145.56 523.606 1087.5 464.816C1039.97 416.689 974.662 398.567 905.123 417.447C813.377 442.354 720.277 528.271 644.849 510.662C571.438 493.522 536.954 382.186 504.866 276.072C471.978 166.51 426.856 65.0717 347.36 43.4996C276.085 24.1573 188.459 73.3387 107.416 90.2445C15.7611 109.364 -68.3184 64.3587 -106.598 -39.0155C-147.372 -149.128 -151.452 -273.202 -217.618 -322.854" stroke="white" stroke-opacity="0.07" stroke-width="2.66666" stroke-miterlimit="10"/>
<path d="M1163.75 765.146C1177.61 628.407 1140.17 515.348 1077.89 458.497C1028.88 413.768 963.351 397.645 893.919 415.355C803.703 438.357 712.517 515.859 641.075 493.586C572.08 472.077 541.44 361.964 510.334 258.056C478.275 150.005 431.142 54.6682 352.339 36.6588C281.312 20.4267 194.757 70.4397 114.725 86.4764C21.9647 105.065 -60.2208 53.7125 -100.937 -48.4617C-145.38 -159.987 -159.227 -277.903 -231.25 -319.965" stroke="white" stroke-opacity="0.07" stroke-width="2.66667" stroke-miterlimit="10"/>
<path d="M1163.9 762.702C1176.5 621.374 1134.87 506.951 1068.28 452.175C1017.88 410.715 952.042 396.739 882.711 413.258C794.037 434.387 704.779 503.495 637.313 476.507C572.739 450.674 545.939 341.738 515.819 240.031C484.585 133.494 435.433 44.2768 357.332 29.8153C286.544 16.7076 201.071 67.5201 122.049 82.7075C28.1843 100.747 -52.1585 43.1165 -95.2619 -57.9113C-143.426 -170.799 -166.992 -282.606 -244.875 -317.073" stroke="white" stroke-opacity="0.07" stroke-width="2.66667" stroke-miterlimit="10"/>
<path d="M1164.06 760.255C1175.38 614.336 1129.64 498.413 1058.67 445.851C1006.94 407.536 940.735 395.849 871.505 411.163C784.362 430.436 697.053 491.185 633.552 459.421C573.408 429.331 550.445 321.5 521.313 221.998C490.9 116.972 439.728 33.9012 362.328 22.9682C291.776 13.0034 207.394 64.581 129.38 78.9359C34.413 96.4114 -44.1319 32.5687 -89.5786 -67.3635C-141.511 -181.558 -174.754 -287.309 -258.497 -314.178" stroke="white" stroke-opacity="0.07" stroke-width="2.66667" stroke-miterlimit="10"/>
<path d="M1164.18 757.804C1174.25 607.295 1117.62 504.499 1049.04 439.523C1000.85 393.861 929.409 394.979 860.282 409.069C774.675 426.513 692.201 471.534 629.781 442.324C571.359 414.987 554.945 301.255 526.793 203.958C497.21 100.447 444.001 23.5407 367.318 16.121C296.995 9.31517 213.712 61.6264 136.704 75.1656C40.6366 92.0547 -36.1513 22.0684 -83.9023 -76.8166C-139.648 -192.26 -182.526 -292.01 -272.132 -311.278" stroke="white" stroke-opacity="0.07" stroke-width="2.66666" stroke-miterlimit="10"/>
<path d="M1164.35 755.352C1173.14 600.25 1112.65 496.104 1039.44 433.192C989.774 390.509 918.104 394.125 849.08 406.968C764.997 422.612 681.572 466.774 626.026 425.223C574.725 386.849 559.462 281.004 532.298 185.908C503.538 83.9114 448.287 13.1943 372.329 9.2664C302.222 5.6409 220.052 58.6488 144.048 71.3891C46.882 87.6758 -28.1842 11.6082 -78.2068 -86.2781C-137.81 -202.913 -190.285 -296.717 -285.757 -308.381" stroke="white" stroke-opacity="0.07" stroke-width="2.66667" stroke-miterlimit="10"/>
<path d="M1164.49 752.901C1172.03 593.208 1107.87 487.246 1029.82 426.861C978.64 387.251 906.779 393.294 837.868 404.873C755.314 418.742 673.817 454.697 622.269 408.12C575.364 365.73 563.981 260.744 537.8 167.858C509.87 67.3732 452.569 2.87038 377.336 2.41288C307.446 1.98818 226.396 55.6594 151.392 67.6154C53.1313 83.2788 -20.2437 1.19394 -72.5087 -95.7394C-136.007 -213.506 -198.045 -301.42 -299.386 -305.476" stroke="white" stroke-opacity="0.07" stroke-width="2.66667" stroke-miterlimit="10"/>
<path d="M1164.64 750.45C1170.91 586.164 1103.26 477.922 1020.2 420.535C967.465 384.095 895.453 392.496 826.643 402.786C745.624 414.903 666.017 442.723 618.513 391.013C575.971 344.709 568.502 240.485 543.31 149.808C516.203 50.8406 456.849 -7.4214 382.352 -4.42994C312.67 -1.6317 232.746 52.6647 158.747 63.8509C59.3948 78.8704 -12.3162 -9.168 -66.7987 -105.19C-134.228 -224.03 -205.796 -306.105 -313.005 -302.553" stroke="white" stroke-opacity="0.07" stroke-width="2.66666" stroke-miterlimit="10"/>
<path d="M1164.79 748.009C1169.8 579.129 1104.44 453.371 1010.59 414.223C952.814 390.118 884.125 391.732 815.43 400.707C735.931 411.1 658.186 430.864 614.769 373.918C576.548 323.791 573.043 220.24 548.836 131.769C522.557 34.3194 461.138 -17.6758 387.385 -11.2577C317.908 -5.21217 239.121 49.6697 166.121 60.1012C65.6813 74.4553 -4.38971 -19.4759 -61.0671 -114.626C-132.461 -234.479 -213.528 -310.773 -326.608 -299.608" stroke="white" stroke-opacity="0.07" stroke-width="2.66667" stroke-miterlimit="10"/>
<path d="M1164.94 745.571C1168.68 572.099 1099.52 443.9 1000.96 407.916C942.049 386.404 872.785 391.002 804.216 398.641C726.23 407.33 650.285 419.113 611.023 356.822C577.071 302.964 577.582 199.993 554.36 113.735C528.907 17.8051 465.427 -27.8942 392.416 -18.0755C323.147 -8.7585 245.5 46.6707 173.5 56.3614C71.9784 70.0258 3.52589 -29.7378 -55.3286 -124.052C-130.718 -244.861 -221.257 -315.427 -340.206 -296.646" stroke="white" stroke-opacity="0.07" stroke-width="2.66667" stroke-miterlimit="10"/>
<path d="M1165.08 743.141C1167.55 565.08 1094.63 434.283 991.329 401.624C931.272 382.637 861.432 390.312 792.989 396.59C716.525 403.602 642.309 407.467 607.278 339.741C577.529 282.229 582.123 179.758 559.889 95.7165C535.265 1.30921 469.715 -38.069 397.456 -24.8731C328.388 -12.2596 251.89 43.6783 180.888 52.6407C78.2901 65.5921 11.4375 -39.9448 -49.5766 -133.457C-128.989 -255.166 -228.973 -320.055 -353.792 -293.657" stroke="white" stroke-opacity="0.07" stroke-width="2.66666" stroke-miterlimit="10"/>
<path d="M1165.22 740.715C1166.43 558.064 1089.76 424.521 981.706 395.336C920.518 378.809 850.08 389.653 781.776 394.541C706.816 399.908 634.249 395.908 603.544 322.662C577.927 261.555 586.677 159.53 565.432 77.6995C541.635 -15.1854 474.018 -48.2122 402.507 -31.6656C333.64 -15.73 258.294 40.677 188.291 48.9249C84.621 61.1393 19.3505 -50.1131 -43.8099 -142.858C-127.271 -265.411 -236.677 -324.676 -367.367 -290.66" stroke="white" stroke-opacity="0.07" stroke-width="2.66667" stroke-miterlimit="10"/>
<path d="M1165.36 738.294C1165.3 551.059 1084.92 414.618 972.073 389.057C909.749 374.94 838.72 389.033 770.554 392.505C697.1 396.244 626.086 384.41 599.807 305.585C578.251 240.928 591.233 139.305 570.971 59.6919C548.003 -31.668 478.316 -58.3182 407.557 -38.4441C338.894 -19.1596 264.707 37.6757 195.698 45.2216C90.9627 56.6729 27.2587 -60.2382 -38.0369 -152.246C-125.57 -275.588 -244.373 -329.279 -380.934 -287.643" stroke="white" stroke-opacity="0.07" stroke-width="2.66666" stroke-miterlimit="10"/>
<path d="M1165.5 735.88C1164.17 544.057 1080.09 404.582 962.444 382.788C898.969 371.03 827.345 388.455 759.329 390.479C687.38 392.618 617.826 372.953 596.076 288.519C578.503 220.313 595.793 119.089 576.521 41.6932C554.379 -48.1418 482.63 -68.387 412.617 -45.2122C344.16 -22.5513 271.131 34.6734 203.114 41.5282C97.3192 52.1915 35.1669 -70.3229 -32.2523 -161.622C-123.879 -285.702 -252.061 -333.869 -394.494 -284.612" stroke="white" stroke-opacity="0.07" stroke-width="2.66666" stroke-miterlimit="10"/>
<path d="M1165.63 733.469C1163.04 537.06 1075.25 394.417 952.801 376.525C888.193 367.085 815.963 387.91 748.107 388.455C677.647 389.022 609.473 361.497 592.342 271.457C578.689 199.688 600.354 98.8779 582.068 23.6998C560.755 -64.609 486.944 -78.4244 417.679 -51.9715C349.432 -25.9092 277.559 31.6666 210.533 37.8431C103.685 47.6888 43.0719 -80.3731 -26.4642 -170.992C-122.205 -295.759 -259.747 -338.449 -408.05 -281.569" stroke="white" stroke-opacity="0.07" stroke-width="2.66667" stroke-miterlimit="10"/>
<path d="M1165.77 731.064C1161.91 530.068 1070.42 384.13 943.166 370.269C877.394 363.104 804.564 387.408 736.886 386.443C667.906 385.462 601.042 350.015 588.615 254.397C578.823 179.026 604.919 78.6725 587.623 5.71459C567.138 -81.067 491.273 -88.4293 422.742 -58.721C354.715 -29.2312 284.025 28.516 217.961 34.1668C110.107 42.9356 50.9799 -90.3868 -20.6655 -180.35C-120.538 -305.758 -267.422 -343.015 -421.596 -278.513" stroke="white" stroke-opacity="0.07" stroke-width="2.66667" stroke-miterlimit="10"/>
<path d="M1165.9 728.66C1160.77 523.08 1065.59 373.725 933.53 364.018C866.581 359.098 793.156 386.946 725.658 384.436C658.157 381.927 592.535 338.472 584.885 237.346C578.908 158.302 609.484 58.4721 593.176 -12.2642C573.517 -97.5186 495.611 -98.4059 427.81 -65.4628C360.006 -32.5209 290.442 25.6453 225.391 30.4989C116.456 38.6253 58.8847 -100.368 -14.8639 -189.701C-118.884 -315.702 -275.094 -347.572 -435.138 -275.447" stroke="white" stroke-opacity="0.07" stroke-width="2.66667" stroke-miterlimit="10"/>
<path d="M715.299 1665.2C752.451 1595.65 770.499 1507.37 761.662 1438.45C752.825 1369.53 717.376 1322.12 670.608 1316.67C617.719 1310.5 554.734 1354.32 504.16 1339.91C442.7 1322.4 418.286 1226.8 382.001 1157.64C332.059 1062.46 250.939 1011.64 158.889 1017.87C86.0463 1022.79 8.65744 1061.69 -66.0446 1078.85C-140.748 1096.01 -218.03 1087.54 -256.826 1011.22C-298.501 929.236 -285.976 790.052 -318.254 696.303C-357.313 582.858 -466.734 558.856 -562.515 642.723" stroke="white" stroke-opacity="0.06" stroke-width="2.66667" stroke-miterlimit="10"/>
<path d="M726.858 1659.26C763.263 1587.81 779.959 1498.64 769.711 1429.8C759.602 1361.22 723.042 1314.78 675.465 1310.32C671.372 1309.94 667.219 1309.84 663.02 1310C612.057 1311.83 554.215 1349.61 506.541 1338.94C483.399 1333.76 465.083 1318.18 449.266 1296.86C422.113 1260.4 402.842 1206.97 379.502 1162.74C361.884 1129.37 340.925 1100.65 317.332 1077.54C272.923 1033.99 218.761 1009.78 159.01 1010.9C144.391 1011.17 129.526 1012.88 114.453 1015.65C54.8276 1026.62 -7.43065 1054.37 -67.92 1068.49C-75.5413 1070.27 -83.1857 1071.79 -90.8101 1073.02C-158.992 1083.96 -226.103 1069.91 -260.809 999.657C-300.681 918.951 -288.906 784.118 -319.475 692.14C-356.463 580.801 -460.453 554.666 -552.642 632.246" stroke="white" stroke-opacity="0.06" stroke-width="2.66668" stroke-miterlimit="10"/>
<path d="M738.399 1653.31C774.061 1579.97 789.403 1489.9 777.738 1421.15C766.367 1352.9 728.707 1307.45 680.314 1303.98C676.151 1303.68 671.933 1303.67 667.662 1303.91C615.899 1306.83 557.537 1346 508.907 1337.96C485.305 1334.06 466.303 1320.01 449.718 1299.83C421.158 1265.35 400.778 1212.66 376.982 1167.85C359.09 1134.13 338.256 1104.39 315.069 1079.98C271.399 1033.91 218.521 1005.76 159.12 1003.94C144.576 1003.47 129.725 1004.52 114.576 1006.76C54.7066 1015.64 -8.46273 1043.59 -69.806 1058.14C-77.5349 1059.97 -85.283 1061.55 -93.0088 1062.83C-162.09 1074.31 -230.294 1059.98 -264.801 988.093C-302.906 908.721 -291.845 778.185 -320.705 687.979C-355.623 578.746 -454.181 550.479 -542.778 621.77" stroke="white" stroke-opacity="0.06" stroke-width="2.66667" stroke-miterlimit="10"/>
<path d="M749.953 1647.37C784.861 1572.14 798.727 1481.28 785.782 1412.5C773.013 1344.7 734.373 1300.12 685.17 1297.63C680.936 1297.42 676.647 1297.49 672.311 1297.82C619.747 1301.82 560.856 1342.39 511.283 1336.99C487.219 1334.36 467.533 1321.83 450.173 1302.81C420.199 1270.3 398.713 1218.35 374.474 1172.96C356.305 1138.89 335.595 1108.13 312.809 1082.43C269.88 1033.84 218.281 1001.74 159.235 996.981C144.766 995.782 129.924 996.166 114.707 997.87C54.5887 1004.66 -9.49217 1032.81 -71.6885 1047.78C-79.5249 1049.66 -87.3773 1051.31 -95.2039 1052.65C-165.185 1064.65 -234.492 1050.07 -268.791 976.531C-305.163 898.547 -294.782 772.253 -321.933 683.818C-354.781 576.691 -447.906 546.291 -532.912 611.294" stroke="white" stroke-opacity="0.06" stroke-width="2.66667" stroke-miterlimit="10"/>
<path d="M761.505 1641.42C795.673 1564.3 808.158 1472.58 793.824 1403.85C779.763 1336.42 740.046 1292.79 690.032 1291.29C685.733 1291.16 681.371 1291.32 676.971 1291.74C623.61 1296.82 564.193 1338.79 513.664 1336.02C489.141 1334.67 468.808 1323.58 450.638 1305.79C419.316 1275.12 396.653 1224.05 371.979 1178.07C353.526 1143.66 332.939 1111.87 310.563 1084.87C268.37 1033.78 218.055 997.726 159.358 990.025C144.963 988.092 130.136 987.817 114.844 988.987C54.4813 993.689 -10.5101 1022.03 -73.5602 1037.42C-81.5047 1039.36 -89.4612 1041.06 -97.3891 1042.47C-168.269 1055 -238.692 1040.19 -272.77 964.967C-307.445 888.427 -297.707 766.324 -323.15 679.661C-353.927 574.64 -441.62 542.107 -523.033 600.821" stroke="white" stroke-opacity="0.06" stroke-width="2.66667" stroke-miterlimit="10"/>
<path d="M773.067 1635.49C806.48 1556.47 817.591 1463.88 801.87 1395.21C786.516 1328.14 745.718 1285.46 694.892 1284.94C690.521 1284.9 686.094 1285.15 681.62 1285.66C627.458 1291.82 567.52 1335.18 516.044 1335.05C491.057 1334.98 470.055 1325.4 451.104 1308.78C418.378 1280.06 394.599 1229.74 369.472 1183.18C350.744 1148.43 330.285 1115.62 308.311 1087.32C266.854 1033.71 217.826 993.711 159.48 983.065C145.16 980.403 130.342 979.464 114.983 980.1C54.3753 982.714 -11.5311 1011.26 -75.4355 1027.07C-83.4873 1029.06 -91.5474 1030.82 -99.5762 1032.28C-171.355 1045.35 -242.908 1030.34 -276.751 953.408C-309.763 878.364 -300.636 760.395 -324.369 675.505C-353.076 572.59 -435.336 537.924 -513.157 590.349" stroke="white" stroke-opacity="0.06" stroke-width="2.66667" stroke-miterlimit="10"/>
<path d="M784.611 1629.55C817.289 1548.64 827.02 1455.18 809.908 1386.56C793.271 1319.85 751.375 1278.13 699.746 1278.6C695.302 1278.64 690.81 1278.98 686.269 1279.58C631.308 1286.82 570.85 1331.58 518.418 1334.08C492.973 1335.3 471.279 1327.22 451.561 1311.76C417.429 1285 392.537 1235.44 366.969 1188.29C347.957 1153.2 327.62 1119.37 306.052 1089.77C265.336 1033.65 217.588 989.701 159.596 976.115C145.352 972.719 130.546 971.115 115.112 971.221C54.2607 971.743 -12.5568 1000.49 -77.3135 1016.72C-85.4725 1018.77 -93.638 1020.59 -101.768 1022.11C-174.446 1035.7 -247.144 1020.53 -280.735 941.854C-312.117 868.353 -303.567 754.473 -325.591 671.355C-352.227 570.546 -429.054 533.748 -503.282 579.883" stroke="white" stroke-opacity="0.06" stroke-width="2.66666" stroke-miterlimit="10"/>
<path d="M796.171 1623.61C828.091 1540.81 836.465 1446.47 817.951 1377.92C800.037 1311.57 757.052 1270.81 704.608 1272.27C700.098 1272.39 695.531 1272.82 690.924 1273.51C635.165 1281.82 574.178 1327.98 520.8 1333.12C494.892 1335.61 472.522 1329.05 452.028 1314.75C416.48 1289.94 390.477 1241.14 364.467 1193.41C345.177 1157.98 324.967 1123.11 303.804 1092.22C263.825 1033.59 217.361 985.693 159.72 969.163C145.548 965.036 130.756 962.772 115.249 962.341C54.1538 960.774 -13.5747 989.716 -79.1852 1006.38C-87.4524 1008.48 -95.7209 1010.35 -103.952 1011.93C-177.528 1026.06 -251.392 1010.75 -284.713 930.298C-314.496 858.387 -306.491 748.552 -326.806 667.207C-351.371 568.505 -422.766 529.573 -493.401 569.419" stroke="white" stroke-opacity="0.06" stroke-width="2.66667" stroke-miterlimit="10"/>
<path d="M807.734 1617.68C838.904 1532.98 845.914 1437.77 826.002 1369.28C806.81 1303.29 762.725 1263.49 709.467 1265.93C704.891 1266.15 700.257 1266.65 695.583 1267.43C639.029 1276.83 577.513 1324.38 523.188 1332.15C496.815 1335.93 473.761 1330.88 452.49 1317.74C415.535 1294.9 388.421 1246.85 361.969 1198.53C342.401 1162.75 322.314 1126.87 301.557 1094.68C262.319 1033.54 217.135 981.69 159.848 962.219C145.752 957.359 130.972 954.43 115.394 953.471C54.0513 949.811 -14.5866 978.95 -81.0507 996.034C-89.4251 998.187 -97.7982 1000.12 -106.13 1001.76C-180.605 1016.42 -255.655 1001.01 -288.683 918.75C-316.901 848.474 -309.409 742.637 -328.014 663.065C-350.509 566.471 -416.47 525.406 -483.512 558.961" stroke="white" stroke-opacity="0.06" stroke-width="2.66667" stroke-miterlimit="10"/>
<path d="M819.285 1611.74C849.712 1525.15 855.367 1429.06 834.038 1360.64C813.582 1295 768.387 1256.17 714.332 1259.6C709.681 1259.9 704.981 1260.5 700.239 1261.36C642.877 1271.84 580.845 1320.79 525.569 1331.2C498.733 1336.25 474.997 1332.72 452.964 1320.73C414.584 1299.86 386.372 1252.56 359.47 1203.66C339.619 1167.53 319.663 1130.63 299.309 1097.14C260.811 1033.48 216.911 977.691 159.972 955.276C145.956 949.686 131.188 946.093 115.536 944.599C53.9491 938.851 -15.6 968.19 -82.9161 985.694C-91.3976 987.901 -99.8752 989.899 -108.307 991.595C-183.681 1006.79 -259.941 991.303 -292.653 907.206C-319.336 838.607 -312.325 736.727 -329.221 658.928C-349.645 564.442 -410.172 521.244 -473.621 548.51" stroke="white" stroke-opacity="0.06" stroke-width="2.66666" stroke-miterlimit="10"/>
<path d="M830.835 1605.81C860.519 1517.33 864.822 1420.34 842.08 1352.01C820.351 1286.71 774.059 1248.85 719.186 1253.28C714.468 1253.66 709.699 1254.34 704.89 1255.3C646.73 1266.86 584.176 1317.2 527.948 1330.24C500.655 1336.57 476.238 1334.56 453.426 1323.73C413.637 1304.83 384.316 1258.27 356.971 1208.79C336.841 1172.32 317.012 1134.39 297.063 1099.61C259.303 1033.44 216.687 973.697 160.1 948.338C146.156 942.018 131.401 937.765 115.681 935.738C53.8477 927.897 -16.6113 957.434 -84.7794 975.361C-93.3694 977.621 -101.95 979.677 -110.484 981.435C-186.755 997.153 -264.253 981.638 -296.62 895.664C-321.799 828.785 -315.239 730.824 -330.426 654.798C-348.779 562.42 -403.872 517.09 -463.727 538.066" stroke="white" stroke-opacity="0.06" stroke-width="2.66666" stroke-miterlimit="10"/>
<path d="M842.404 1599.89C871.336 1509.51 874.288 1411.64 850.14 1343.39C827.141 1278.42 779.738 1241.55 724.058 1246.96C719.268 1247.43 714.428 1248.19 709.553 1249.24C650.597 1261.87 587.517 1313.61 530.338 1329.29C502.586 1336.91 477.483 1336.41 453.904 1326.73C412.694 1309.81 382.274 1263.99 354.484 1213.93C334.075 1177.11 314.37 1138.16 294.827 1102.08C257.803 1033.4 216.473 969.71 160.24 941.41C146.373 934.356 131.63 929.439 115.835 926.879C53.7616 916.95 -17.6097 946.682 -86.6306 965.036C-95.3275 967.346 -104.013 969.459 -112.648 971.281C-189.816 987.527 -268.583 972.022 -300.574 884.132C-324.279 819.007 -318.141 724.926 -331.619 650.674C-347.901 560.404 -397.56 512.942 -453.821 527.627" stroke="white" stroke-opacity="0.06" stroke-width="2.66667" stroke-miterlimit="10"/>
<path d="M853.952 1593.96C882.137 1501.7 883.747 1402.93 858.172 1334.77C833.925 1270.14 785.401 1234.25 728.916 1240.65C724.06 1241.2 719.154 1242.05 714.205 1243.19C654.454 1256.9 590.852 1310.03 532.724 1328.35C504.509 1337.24 478.714 1338.27 454.375 1329.74C411.746 1314.8 380.225 1269.71 351.989 1219.07C331.301 1181.91 311.724 1141.93 292.587 1104.56C256.3 1033.37 216.254 965.732 160.374 934.487C146.582 926.708 131.849 921.122 115.987 918.028C53.667 906.011 -18.6137 935.944 -88.4856 954.718C-97.2903 957.084 -106.08 959.256 -114.814 961.13C-192.88 977.909 -272.951 962.462 -304.53 872.609C-326.789 809.274 -321.043 719.04 -332.812 646.563C-347.024 558.401 -391.249 508.808 -443.915 517.202" stroke="white" stroke-opacity="0.06" stroke-width="2.66667" stroke-miterlimit="10"/>
<path d="M865.501 1588.05C892.938 1493.89 893.207 1394.22 866.209 1326.15C840.704 1261.86 791.064 1226.95 733.77 1234.34C728.848 1234.98 723.867 1235.91 718.859 1237.14C658.308 1251.94 594.18 1306.46 535.111 1327.41C506.431 1337.58 479.952 1340.14 454.845 1332.75C410.793 1319.79 378.176 1275.44 349.499 1224.22C328.53 1186.72 309.076 1145.72 290.346 1107.05C254.801 1033.34 216.036 961.764 160.512 927.582C146.793 919.068 132.076 912.823 116.14 909.195C53.5782 895.085 -19.61 925.214 -90.333 944.41C-99.2452 946.83 -108.138 949.06 -116.973 950.997C-195.934 968.303 -277.35 952.957 -308.475 861.096C-329.318 799.588 -323.936 713.168 -333.995 642.466C-346.137 556.416 -384.927 504.69 -433.998 506.795" stroke="white" stroke-opacity="0.06" stroke-width="2.66666" stroke-miterlimit="10"/>
<path d="M877.059 1582.13C903.746 1486.09 902.682 1385.52 874.258 1317.55C847.495 1253.58 796.745 1219.67 738.636 1228.05C733.64 1228.76 728.6 1229.79 723.517 1231.1C662.171 1246.98 597.525 1302.9 537.503 1326.48C508.362 1337.93 481.201 1342.01 455.326 1335.77C409.858 1324.8 376.142 1281.18 347.021 1229.37C325.774 1191.53 306.448 1149.51 288.121 1109.55C253.317 1033.34 215.837 957.803 160.665 920.682C147.023 911.438 132.32 904.529 116.313 900.368C53.5056 884.17 -20.5898 914.498 -92.1625 934.112C-101.182 936.586 -110.178 938.877 -119.114 940.872C-198.971 958.71 -281.775 943.51 -312.401 849.597C-331.855 789.941 -326.809 707.307 -335.159 638.382C-345.23 554.441 -378.586 500.586 -424.063 496.401" stroke="white" stroke-opacity="0.06" stroke-width="2.66666" stroke-miterlimit="10"/>
<path d="M888.623 1576.22C914.56 1478.29 912.159 1376.81 882.305 1308.95C854.299 1245.3 802.419 1212.4 743.508 1221.75C738.444 1222.56 733.329 1223.67 728.186 1225.08C666.042 1242.03 600.87 1299.34 539.905 1325.56C510.309 1338.28 482.459 1343.9 455.816 1338.8C408.927 1329.82 374.113 1286.92 344.55 1234.53C323.025 1196.35 303.823 1153.31 285.904 1112.05C251.839 1033.33 215.644 953.852 160.825 913.792C147.256 903.815 132.566 896.242 116.488 891.552C53.4395 873.263 -21.5625 903.785 -93.9855 923.826C-103.111 926.348 -112.212 928.697 -121.248 930.755C-201.999 949.12 -286.246 934.124 -316.319 838.102C-334.412 780.331 -329.674 701.453 -336.316 634.304C-344.316 552.474 -372.238 496.489 -414.12 486.014" stroke="white" stroke-opacity="0.06" stroke-width="2.66666" stroke-miterlimit="10"/>
<path d="M900.171 1570.31C925.357 1470.5 921.629 1368.1 890.334 1300.35C861.086 1237.02 808.083 1205.12 748.363 1215.46C743.233 1216.35 738.05 1217.55 732.839 1219.04C669.9 1237.08 604.203 1295.78 542.289 1324.63C512.235 1338.64 483.68 1345.87 456.295 1341.82C407.948 1334.99 372.076 1292.67 342.067 1239.69C320.263 1201.17 301.188 1157.1 283.674 1114.55C250.349 1033.32 215.436 949.9 160.973 906.898C147.481 896.192 132.804 887.959 116.655 882.733C53.3664 862.356 -22.5467 893.072 -95.8181 913.536C-105.052 916.115 -114.256 918.518 -123.392 920.633C-205.038 939.529 -290.79 924.804 -320.248 826.609C-337.007 770.746 -332.55 695.6 -337.483 630.226C-343.412 550.508 -365.902 492.393 -404.188 475.63" stroke="white" stroke-opacity="0.06" stroke-width="2.66666" stroke-miterlimit="10"/>
<path d="M911.727 1564.4C936.17 1462.7 931.11 1359.38 898.38 1291.75C867.891 1228.73 813.76 1197.84 753.236 1209.17C748.029 1210.15 742.786 1211.43 737.507 1213.01C673.769 1232.12 607.556 1292.22 544.696 1323.7C514.181 1338.99 484.94 1347.73 456.786 1344.85C407.026 1339.98 370.048 1298.4 339.596 1244.85C317.514 1205.98 298.564 1160.9 281.454 1117.05C248.867 1033.31 215.243 945.948 161.133 900.007C147.717 888.568 133.049 879.671 116.83 873.915C53.2996 851.447 -23.5197 882.362 -97.6414 903.244C-106.982 905.877 -116.289 908.341 -125.526 910.515C-208.067 929.938 -295.392 915.548 -324.166 815.114C-339.618 761.182 -335.415 689.744 -338.639 626.146C-342.499 548.539 -359.555 488.294 -394.248 465.243" stroke="white" stroke-opacity="0.06" stroke-width="2.66667" stroke-miterlimit="10"/>
<path d="M923.29 1558.5C946.975 1454.91 940.682 1350.53 906.428 1283.15C874.784 1220.33 819.431 1190.56 758.097 1202.88C752.823 1203.94 747.512 1205.31 742.164 1206.98C677.63 1227.17 610.902 1288.66 547.089 1322.78C516.119 1339.34 486.195 1349.61 457.273 1347.86C406.102 1344.98 368.018 1304.14 337.123 1250C314.762 1210.8 295.94 1164.69 279.237 1119.55C247.388 1033.3 215.043 941.994 161.29 893.112C147.947 880.943 133.296 871.385 117.003 865.095C53.2306 840.538 -24.4953 871.649 -99.4657 892.953C-108.914 895.638 -118.325 898.161 -127.662 900.396C-211.098 920.347 -300.078 906.365 -328.086 803.62C-342.257 751.638 -338.283 683.889 -339.798 622.067C-341.588 546.57 -353.212 484.195 -384.311 454.858" stroke="white" stroke-opacity="0.06" stroke-width="2.66666" stroke-miterlimit="10"/>
<path d="M934.845 1552.59C957.79 1447.11 950.148 1341.85 914.472 1274.55C881.563 1212.07 825.112 1183.29 762.973 1196.59C757.63 1197.74 752.242 1199.19 746.833 1200.95C681.5 1222.22 614.257 1285.1 549.494 1321.85C518.066 1339.69 487.46 1351.48 457.761 1350.89C405.183 1349.98 365.993 1309.88 334.658 1255.16C312.017 1215.61 293.317 1168.48 277.02 1122.05C245.913 1033.29 214.853 938.043 161.452 886.223C148.185 873.321 133.548 863.099 117.184 856.278C53.1668 829.632 -25.466 860.939 -101.286 882.666C-110.841 885.402 -120.356 887.986 -129.794 890.275C-214.124 910.761 -304.854 897.262 -332.002 792.127C-344.917 742.111 -341.146 678.034 -340.953 617.987C-340.672 544.6 -346.864 480.097 -374.37 444.473" stroke="white" stroke-opacity="0.06" stroke-width="2.66667" stroke-miterlimit="10"/>
<path d="M946.394 1546.67C968.591 1439.31 959.598 1333.16 922.515 1265.95C888.343 1203.81 830.784 1176 767.835 1190.3C762.423 1191.52 756.974 1193.06 751.496 1194.92C685.368 1217.26 617.594 1281.53 551.893 1320.92C519.996 1340.04 488.711 1353.34 458.244 1353.9C404.257 1354.97 363.964 1315.61 332.183 1260.31C309.263 1220.42 290.692 1172.27 274.798 1124.54C244.43 1033.28 214.655 934.085 161.607 879.324C148.417 865.694 133.788 854.809 117.354 847.455C53.0954 818.72 -26.4445 850.224 -103.114 872.372C-112.775 875.161 -122.394 877.803 -131.932 880.153C-217.157 901.166 -309.746 888.25 -335.924 780.631C-347.61 732.592 -344.016 672.174 -342.114 613.902C-339.764 542.626 -340.524 475.993 -364.438 434.082" stroke="white" stroke-opacity="0.06" stroke-width="2.66667" stroke-miterlimit="10"/>
<path d="M957.968 1540.76C979.41 1431.52 969.062 1324.47 930.571 1257.35C892.08 1190.23 826.211 1164.37 756.166 1188.88C656.756 1223.67 554.322 1351.68 458.747 1356.92C363.461 1362.14 309.591 1244.15 272.59 1127.03C235.587 1009.92 200.354 878.208 117.539 838.633C44.9079 803.926 -47.94 848.493 -134.059 870.034C-220.178 891.574 -314.755 879.337 -339.836 769.135C-363.148 666.702 -317.576 511.256 -354.495 423.694" stroke="white" stroke-opacity="0.06" stroke-width="2.66667" stroke-miterlimit="10"/>
<path d="M958.085 1538.33C978.264 1424.51 963.136 1316.62 920.947 1251.05C880.382 1187.99 814.877 1163.57 744.953 1186.8C647.054 1219.82 546.466 1339.17 454.958 1339.88C364.015 1340.59 314.051 1223.98 278.028 1109.06C241.848 993.459 204.59 867.949 122.487 831.817C50.0894 800.321 -41.6573 845.535 -126.779 866.285C-213.984 887.185 -306.317 868.447 -334.201 759.717C-360.879 655.692 -325.355 506.573 -368.119 426.588" stroke="white" stroke-opacity="0.06" stroke-width="2.66666" stroke-miterlimit="10"/>
<path d="M958.206 1535.9C977.124 1417.49 957.333 1308.73 911.336 1244.75C868.837 1185.63 803.582 1162.41 733.748 1184.71C637.394 1215.48 538.645 1326.67 451.177 1322.84C364.59 1319.05 318.516 1203.79 283.479 1091.08C248.122 976.985 208.96 857.334 127.448 824.994C55.381 796.4 -35.4056 842.903 -119.489 862.526C-207.823 883.142 -297.963 857.599 -328.56 750.29C-358.669 644.692 -333.132 501.884 -381.744 429.476" stroke="white" stroke-opacity="0.06" stroke-width="2.66666" stroke-miterlimit="10"/>
<path d="M958.339 1533.46C975.99 1410.48 951.639 1300.78 901.722 1238.44C857.429 1183.12 792.269 1161.45 722.533 1182.63C627.718 1211.41 530.833 1314.18 447.397 1305.78C365.186 1297.52 322.986 1183.59 288.93 1073.08C254.396 960.498 213.258 846.904 132.411 818.165C60.6156 792.643 -29.1283 840.07 -112.198 858.767C-201.639 878.9 -289.688 846.801 -322.916 740.858C-356.52 633.715 -340.911 497.189 -395.372 432.364" stroke="white" stroke-opacity="0.06" stroke-width="2.66667" stroke-miterlimit="10"/>
<path d="M958.474 1531.03C974.862 1403.46 946.052 1292.75 892.112 1232.13C846.149 1180.47 780.963 1160.5 711.333 1180.54C618.054 1207.37 523.046 1301.71 443.622 1288.73C365.802 1276 327.463 1163.4 294.393 1055.08C260.684 944.009 217.556 836.482 137.382 811.333C65.8501 788.895 -22.841 837.214 -104.897 855.006C-195.445 874.641 -281.477 836.052 -317.263 731.422C-354.423 622.773 -348.685 492.493 -408.998 435.252" stroke="white" stroke-opacity="0.06" stroke-width="2.66667" stroke-miterlimit="10"/>
<path d="M958.62 1528.59C973.74 1396.44 940.566 1284.61 882.499 1225.82C834.972 1177.69 769.663 1159.57 700.124 1178.45C608.379 1203.35 515.279 1289.27 439.851 1271.66C366.44 1254.52 331.956 1143.19 299.867 1037.07C266.98 927.51 221.857 826.071 142.362 804.499C71.0864 785.157 -16.5399 834.338 -97.5824 851.244C-189.237 870.364 -273.317 825.358 -311.597 721.984C-352.371 611.872 -356.45 487.798 -422.617 438.145" stroke="white" stroke-opacity="0.06" stroke-width="2.66666" stroke-miterlimit="10"/>
<path d="M958.751 1526.15C972.614 1389.41 935.17 1276.35 872.888 1219.5C823.88 1174.77 758.352 1158.65 688.921 1176.36C598.704 1199.36 507.518 1276.86 436.077 1254.59C367.081 1233.08 336.442 1122.96 305.336 1019.06C273.276 911.005 226.144 815.668 147.341 797.659C76.3132 781.427 -10.2419 831.44 -90.2736 847.477C-183.034 866.066 -265.219 814.713 -305.936 712.539C-350.379 601.013 -364.225 483.097 -436.248 441.036" stroke="white" stroke-opacity="0.06" stroke-width="2.66667" stroke-miterlimit="10"/>
<path d="M958.898 1523.7C971.498 1382.37 929.872 1267.95 863.279 1213.17C812.879 1171.72 747.044 1157.74 677.713 1174.26C589.038 1195.39 499.78 1264.49 432.314 1237.51C367.741 1211.67 340.94 1102.74 310.821 1001.03C279.586 894.494 230.435 805.277 152.333 790.815C81.5459 777.708 -3.92784 828.52 -82.9495 843.708C-176.814 861.747 -257.157 804.117 -300.26 703.089C-348.424 590.201 -371.991 478.394 -449.873 443.927" stroke="white" stroke-opacity="0.06" stroke-width="2.66667" stroke-miterlimit="10"/>
<path d="M959.057 1521.26C970.381 1375.34 924.645 1259.41 853.676 1206.85C801.941 1168.54 735.736 1156.85 666.507 1172.16C579.364 1191.44 492.054 1252.18 428.554 1220.42C368.41 1190.33 345.446 1082.5 316.314 982.998C285.902 877.972 234.729 794.901 157.329 783.968C86.7776 774.003 2.39572 825.581 -75.6187 839.936C-170.586 857.411 -249.13 793.569 -294.577 693.636C-346.51 579.442 -379.752 473.691 -463.495 446.822" stroke="white" stroke-opacity="0.06" stroke-width="2.66667" stroke-miterlimit="10"/>
<path d="M959.185 1518.8C969.253 1368.3 912.622 1265.5 844.045 1200.52C795.854 1154.86 724.41 1155.98 655.283 1170.07C569.676 1187.51 487.202 1232.53 424.782 1203.32C366.36 1175.99 349.946 1062.26 321.794 964.958C292.211 861.447 239.002 784.541 162.319 777.121C91.9961 770.315 8.71286 822.627 -68.2947 836.166C-164.362 853.055 -241.15 783.069 -288.901 684.184C-344.647 568.74 -387.525 468.99 -477.131 449.722" stroke="white" stroke-opacity="0.06" stroke-width="2.66666" stroke-miterlimit="10"/>
<path d="M959.347 1516.35C968.146 1361.25 907.656 1257.1 834.442 1194.19C784.775 1151.51 713.105 1155.12 644.081 1167.97C559.998 1183.61 476.573 1227.77 421.028 1186.22C369.726 1147.85 354.464 1042 327.3 946.908C298.539 844.911 243.288 774.194 167.33 770.266C97.2237 766.641 15.0531 819.649 -60.951 832.389C-158.117 848.676 -233.183 772.608 -283.205 674.722C-342.808 558.087 -395.283 464.283 -490.756 452.619" stroke="white" stroke-opacity="0.06" stroke-width="2.66667" stroke-miterlimit="10"/>
<path d="M959.494 1513.9C967.034 1354.21 902.875 1248.25 824.826 1187.86C773.641 1148.25 701.781 1154.29 632.869 1165.87C550.316 1179.74 468.818 1215.7 417.271 1169.12C370.365 1126.73 358.983 1021.74 332.802 928.858C304.872 828.373 247.571 763.87 172.337 763.413C102.447 762.988 21.3972 816.659 -53.6062 828.615C-151.867 844.279 -225.242 762.194 -277.507 665.261C-341.006 547.494 -403.044 459.58 -504.384 455.524" stroke="white" stroke-opacity="0.06" stroke-width="2.66667" stroke-miterlimit="10"/>
<path d="M959.639 1511.45C965.915 1347.16 898.263 1238.92 815.202 1181.54C762.466 1145.09 690.454 1153.5 621.644 1163.79C540.625 1175.9 461.018 1203.72 413.514 1152.01C370.973 1105.71 363.503 1001.49 338.311 910.808C311.204 811.841 251.85 753.579 177.353 756.57C107.671 759.368 27.7477 813.665 -46.252 824.851C-145.604 839.87 -217.315 751.832 -271.797 655.81C-339.227 536.97 -410.795 454.895 -518.004 458.447" stroke="white" stroke-opacity="0.06" stroke-width="2.66666" stroke-miterlimit="10"/>
<path d="M959.793 1509.01C964.798 1340.13 899.437 1214.37 805.593 1175.22C747.816 1151.12 679.126 1152.73 610.432 1161.71C530.933 1172.1 453.187 1191.86 409.77 1134.92C371.55 1084.79 368.045 981.24 343.838 892.769C317.558 795.319 256.14 743.324 182.386 749.742C112.909 755.788 34.1229 810.67 -38.8775 821.101C-139.317 835.455 -209.388 741.524 -266.066 646.374C-337.46 526.521 -418.527 450.227 -531.606 461.392" stroke="white" stroke-opacity="0.06" stroke-width="2.66667" stroke-miterlimit="10"/>
<path d="M959.937 1506.57C963.678 1333.1 894.524 1204.9 795.965 1168.92C737.05 1147.4 667.787 1152 599.217 1159.64C521.231 1168.33 445.287 1180.11 406.024 1117.82C372.072 1063.96 372.583 960.993 349.361 874.735C323.908 778.805 260.428 733.106 187.417 742.925C118.148 752.241 40.5013 807.671 -31.4992 817.361C-133.02 831.026 -201.473 731.262 -260.327 636.948C-335.717 516.139 -426.255 445.573 -545.205 464.354" stroke="white" stroke-opacity="0.06" stroke-width="2.66667" stroke-miterlimit="10"/>
<path d="M960.076 1504.14C962.552 1326.08 889.627 1195.28 786.33 1162.62C726.274 1143.64 656.433 1151.31 587.991 1157.59C511.526 1164.6 437.31 1168.47 402.279 1100.74C372.53 1043.23 377.124 940.758 354.891 856.717C330.266 762.309 264.716 722.931 192.457 736.127C123.389 748.74 46.8914 804.678 -24.1105 813.641C-126.709 826.592 -193.561 721.055 -254.575 627.543C-333.987 505.834 -433.972 440.945 -558.791 467.343" stroke="white" stroke-opacity="0.06" stroke-width="2.66666" stroke-miterlimit="10"/>
<path d="M960.221 1501.72C961.431 1319.06 884.766 1185.52 776.707 1156.34C715.52 1139.81 645.082 1150.65 576.777 1155.54C501.817 1160.91 429.25 1156.91 398.546 1083.66C372.928 1022.56 381.678 920.53 360.433 838.7C336.636 745.815 269.019 712.788 197.508 729.334C128.641 745.27 53.2957 801.677 -16.7083 809.925C-120.378 822.139 -185.648 710.887 -248.809 618.142C-332.27 495.589 -441.676 436.324 -572.366 470.34" stroke="white" stroke-opacity="0.06" stroke-width="2.66667" stroke-miterlimit="10"/>
<path d="M960.357 1499.29C960.301 1312.06 879.918 1175.62 767.075 1150.06C704.751 1135.94 633.721 1150.03 565.556 1153.51C492.102 1157.24 421.088 1145.41 394.809 1066.58C373.253 1001.93 386.235 900.305 365.973 820.692C343.004 729.332 273.317 702.682 202.559 722.556C133.895 741.84 59.7087 798.676 -9.30055 806.222C-114.036 817.673 -177.74 700.762 -243.035 608.754C-330.568 485.412 -449.372 431.721 -585.933 473.357" stroke="white" stroke-opacity="0.06" stroke-width="2.66666" stroke-miterlimit="10"/>
<path d="M960.498 1496.88C959.176 1305.06 875.087 1165.58 757.446 1143.79C693.971 1132.03 622.346 1149.45 554.33 1151.48C482.382 1153.62 412.828 1133.95 391.078 1049.52C373.505 981.313 390.795 880.089 371.522 802.693C349.381 712.858 277.631 692.613 207.619 715.788C139.162 738.449 66.1325 795.673 -1.88445 802.528C-107.679 813.191 -169.832 690.677 -237.251 599.378C-328.878 475.298 -457.059 427.131 -599.492 476.388" stroke="white" stroke-opacity="0.06" stroke-width="2.66666" stroke-miterlimit="10"/>
<path d="M960.633 1494.47C958.045 1298.06 870.248 1155.42 747.802 1137.53C683.194 1128.09 610.964 1148.91 543.108 1149.46C472.648 1150.02 404.475 1122.5 387.343 1032.46C373.69 960.688 395.355 859.878 377.069 784.7C355.756 696.391 281.946 682.576 212.681 709.029C144.434 735.091 72.5606 792.667 5.53461 798.843C-101.314 808.689 -161.927 680.627 -231.463 590.009C-327.203 465.241 -464.745 422.551 -613.049 479.431" stroke="white" stroke-opacity="0.06" stroke-width="2.66667" stroke-miterlimit="10"/>
<path d="M960.771 1492.06C956.907 1291.07 865.424 1145.13 738.167 1131.27C672.396 1124.1 599.566 1148.41 531.887 1147.44C462.908 1146.46 396.044 1111.02 383.616 1015.4C373.825 940.027 399.921 839.673 382.624 766.715C362.14 679.933 286.275 672.571 217.744 702.279C149.717 731.769 79.0266 789.516 12.9623 795.167C-94.8909 803.936 -154.018 670.613 -225.664 580.65C-325.537 455.243 -472.42 417.985 -626.595 482.487" stroke="white" stroke-opacity="0.06" stroke-width="2.66667" stroke-miterlimit="10"/>
<path d="M960.899 1489.66C955.768 1284.08 860.595 1134.73 728.532 1125.02C661.582 1120.1 588.158 1147.95 520.659 1145.44C453.158 1142.93 387.536 1099.47 379.887 998.346C373.91 919.302 404.486 819.472 388.178 748.736C368.519 663.481 290.613 662.594 222.812 695.537C155.007 728.479 85.4432 786.645 20.392 791.499C-88.5426 799.625 -146.114 660.632 -219.862 571.299C-323.883 445.298 -480.092 413.428 -640.137 485.553" stroke="white" stroke-opacity="0.06" stroke-width="2.66667" stroke-miterlimit="10"/>
<path d="M335.8 500.798C336.149 500.837 336.509 500.872 336.881 500.898L355.221 502.24C370.542 503.47 375.91 510.963 375.91 519.686C375.91 528.744 368.305 541.046 347.281 541.046C346.225 541.046 345.195 541.018 344.192 540.968L342.389 532.335C343.898 532.474 345.527 532.547 347.281 532.547C361.148 532.547 366.068 526.731 366.068 519.686C366.068 515.66 363.72 511.41 354.662 510.739L337.621 509.515L335.8 500.798ZM409.441 492.958C426.775 492.958 432.926 501.793 432.926 513.535V538.026C432.926 538.697 431.695 539.928 431.024 539.928H426.328C425.657 539.928 424.762 538.697 424.538 538.026L423.085 534.671H422.749L421.071 536.014C417.157 539.145 411.119 541.046 404.409 541.046C392.667 541.046 387.075 534.895 387.075 527.179C387.075 520.133 392.107 514.206 406.198 514.206H423.085V512.417C423.085 505.819 420.513 501.457 409.441 501.457C401.613 501.457 398.594 503.806 398.594 508.614V508.95C398.593 509.621 397.363 509.956 396.692 509.956H390.653C389.982 509.956 388.752 508.727 388.752 508.056V507.72C388.752 499.109 394.68 492.958 409.441 492.958ZM505.399 492.958C521.503 492.958 529.22 502.688 529.22 514.095C529.22 517.002 528.884 519.798 528.884 519.798H490.078C490.973 527.514 497.795 532.547 506.294 532.547C512.333 532.547 517.03 531.205 521.392 527.179C521.951 526.62 522.286 526.061 523.516 526.061C524.522 526.061 524.747 526.284 525.306 526.843L527.653 529.08C528.212 529.639 528.437 530.086 528.437 530.869C528.436 531.987 527.878 532.435 527.095 533.218C522.174 538.027 515.352 541.046 506.294 541.046C492.427 541.046 480.014 532.77 480.014 517.002C480.014 503.358 489.743 492.958 505.399 492.958ZM467.666 465C471.916 465 475.383 465.895 477.731 466.901C478.738 467.349 479.297 467.684 479.297 468.467C479.297 469.026 479.073 469.474 478.737 470.145L476.725 474.059C476.277 474.841 475.606 475.064 474.6 474.617C472.81 473.946 470.574 473.499 468.002 473.499C463.305 473.499 458.72 476.072 458.72 483.341V494.076H473.929C474.6 494.076 475.494 494.971 475.494 495.642V501.01C475.494 501.681 474.6 502.575 473.929 502.575H458.72V538.026C458.72 538.697 457.489 539.928 456.818 539.928H450.779C450.108 539.927 448.879 538.697 448.879 538.026V502.575H442.84C442.169 502.575 441.274 501.681 441.274 501.01V495.642C441.275 494.971 442.169 494.076 442.84 494.076H448.879V483.341C448.879 470.592 457.713 465 467.666 465ZM406.198 521.587C398.705 521.587 396.916 524.383 396.916 527.179C396.916 530.422 399.377 532.547 404.409 532.547C411.902 532.547 419.059 529.751 423.085 526.508V521.587H406.198ZM505.399 501.457C498.018 501.457 491.532 504.924 490.302 512.417H519.267C518.707 504.924 513.675 501.457 505.399 501.457ZM344.82 471.71C365.621 471.71 373.114 481.216 373.114 492.734C373.114 493.294 372.667 493.853 371.437 493.853H364.839C363.721 493.853 363.273 493.517 363.161 491.951C362.602 486.136 357.904 480.209 344.82 480.209C339.588 480.209 335.278 481.34 332.133 483.245L330.259 474.27C334.212 472.664 339.049 471.71 344.82 471.71Z" fill="white" fill-opacity="0.57"/>
<path d="M270.854 496.03C271.526 496.031 272.755 497.261 272.755 497.932V522.87C272.755 530.027 275.998 534.501 282.484 534.501C290.201 534.501 296.239 530.027 298.364 523.988V497.932C298.364 497.261 299.595 496.031 300.266 496.03H306.305C306.976 496.03 308.206 497.261 308.206 497.932V539.98C308.206 540.651 306.976 541.882 306.305 541.882H301.72C300.937 541.882 300.154 540.764 299.818 539.869L298.364 536.29H297.806L297.246 536.85C293.891 540.204 288.523 543 281.926 543C268.506 543 262.914 534.836 262.914 522.87V497.932C262.914 497.261 264.144 496.03 264.815 496.03H270.854ZM199.183 474.782C200.525 474.782 200.749 474.782 201.867 476.124L222.779 501.063H223.003C224.457 498.939 227.253 494.912 228.595 493.234L242.909 476.124C244.027 474.782 244.251 474.782 245.593 474.782H254.428C254.875 474.782 255.098 475.118 255.099 475.453C255.099 475.677 254.987 476.013 254.651 476.349L228.482 507.885L255.77 540.316C256.105 540.652 256.217 540.987 256.217 541.211C256.217 541.546 255.993 541.882 255.546 541.882H246.376C245.034 541.882 244.81 541.882 243.692 540.54L221.325 513.924H221.102C219.871 515.937 218.082 518.956 216.964 520.187L200.301 540.54C199.183 541.882 198.959 541.882 197.617 541.882H188.671C188.224 541.882 188 541.546 188 541.211C188 540.987 188.112 540.652 188.447 540.316L215.511 507.102L189.677 476.349C189.341 476.013 189.229 475.677 189.229 475.453C189.23 475.118 189.453 474.782 189.9 474.782H199.183ZM331.415 516.946V539.98C331.415 540.651 330.185 541.882 329.514 541.882H323.475C322.804 541.882 321.573 540.651 321.573 539.98V469.974C321.573 469.596 321.964 469.04 322.425 468.627L331.415 516.946Z" fill="white"/>
</g>
<defs>
<linearGradient id="paint0_linear_456_17923" x1="706.5" y1="-132.5" x2="34.5" y2="1022.5" gradientUnits="userSpaceOnUse">
<stop stop-color="#1A6DE3"/>
<stop offset="1" stop-color="#0D4896"/>
</linearGradient>
<clipPath id="clip0_456_17923">
<rect width="692" height="1043" rx="10" fill="white"/>
</clipPath>
</defs>
</svg>