<svg width="20" height="20" viewBox="0 0 20 20" fill="none" xmlns="http://www.w3.org/2000/svg">
<path d="M1.28034 0.219681C0.987451 -0.0732187 0.512571 -0.0732288 0.219681 0.219661C-0.0732187 0.512551 -0.0732288 0.987431 0.219661 1.28032L6.07441 7.13519C5.44331 7.39951 4.99995 8.023 4.99995 8.75V10H6.49995V8.75L6.50655 8.6927C6.53246 8.5823 6.6316 8.5 6.74995 8.5H7.43923L9.9363 10.9971H1.74904C1.04018 10.9971 0.726961 11.8897 1.28036 12.3327L5.99995 16.1104V17.7546C5.99995 18.9973 7.00731 20.0046 8.2499 20.0046H11.7453C12.988 20.0046 13.9953 18.9973 13.9953 17.7546V16.1103L14.5807 15.6416L18.7194 19.7805C19.0123 20.0734 19.4872 20.0734 19.7801 19.7805C20.073 19.4876 20.073 19.0127 19.7801 18.7198L1.28034 0.219681ZM13.5135 14.5745L12.7765 15.1646C12.5988 15.3069 12.4953 15.5223 12.4953 15.75V17.7546C12.4953 18.1688 12.1595 18.5046 11.7453 18.5046H8.2499C7.83574 18.5046 7.49995 18.1688 7.49995 17.7546V15.75C7.49995 15.5223 7.39645 15.3068 7.21863 15.1645L3.88622 12.4971H11.4362L13.5135 14.5745Z" fill="#145CB8"/>
<path d="M9.99995 6.00098C9.65605 6.00098 9.32565 5.94311 9.01805 5.83657L7.16439 3.98292C7.05786 3.67525 7 3.34487 7 3.00098C7 1.34412 8.34315 0.000976562 9.99995 0.000976562C11.6568 0.000976562 12.9999 1.34412 12.9999 3.00098C12.9999 4.65783 11.6568 6.00098 9.99995 6.00098ZM9.99995 1.50098C9.17155 1.50098 8.49995 2.17255 8.49995 3.00098C8.49995 3.8294 9.17155 4.50098 9.99995 4.50098C10.8284 4.50098 11.4999 3.8294 11.4999 3.00098C11.4999 2.17255 10.8284 1.50098 9.99995 1.50098Z" fill="#145CB8"/>
<path d="M18.2442 10.9971H14.1787L16.9365 13.755L18.713 12.3326C19.2663 11.8895 18.953 10.9971 18.2442 10.9971Z" fill="#145CB8"/>
<path d="M11.6815 8.49996L10.1816 7H13.2444C14.1625 7 14.9155 7.70711 14.9886 8.60646L14.9944 8.74996V9.99996H13.4944V8.74996C13.4944 8.63166 13.4121 8.53246 13.3017 8.50656L13.2444 8.49996H11.6815Z" fill="#145CB8"/>
</svg>
