<svg width="440" height="894" viewBox="0 0 440 894" fill="none" xmlns="http://www.w3.org/2000/svg">
<path d="M667.51 553.981C672.592 494.135 658.674 426.932 631.764 381.359C604.853 335.786 565.787 313.268 531.419 323.517C492.554 335.11 461.653 384.711 421.929 389.84C373.653 396.069 327.818 336.51 281.626 299.022C218.053 247.433 146.003 236.269 83.4576 268.307C33.9638 293.661 -8.4962 344.153 -55.613 378.626C-102.731 413.1 -159.358 430.418 -209.459 388.677C-263.28 343.836 -296.372 242.667 -347.154 186.768C-408.604 119.125 -492.395 135.235 -534.202 222.73" stroke="white" stroke-opacity="0.04" stroke-width="2.66667" stroke-miterlimit="10"/>
<path d="M673.808 546.348C677.798 485.401 662.664 417.976 634.79 372.884C607.092 327.931 567.543 306.432 532.907 317.618C529.927 318.579 526.992 319.762 524.099 321.132C488.988 337.745 459.87 381.575 423.298 388.443C405.545 391.777 388.044 386.385 370.563 376.222C340.597 358.874 311.043 327.28 281.409 303.349C259.043 285.29 235.74 271.499 212.28 262.421C168.102 245.295 122.921 244.644 81.4441 263.398C71.2934 267.981 61.4065 273.65 51.6893 280.118C13.2643 305.73 -21.959 343.873 -60.044 371.943C-64.8426 375.48 -69.7331 378.847 -74.7009 381.996C-119.124 410.16 -170.315 420.507 -215.729 381.782C-267.902 337.294 -300.211 239.397 -349.264 184.223C-408.632 117.432 -489.264 130.416 -530.447 212.43" stroke="white" stroke-opacity="0.04" stroke-width="2.66668" stroke-miterlimit="10"/>
<path d="M680.099 538.714C683.001 476.667 666.65 409.022 637.81 364.415C609.329 320.078 569.305 299.594 534.395 311.717C531.391 312.759 528.437 314.022 525.522 315.476C490.174 333.084 461.113 378.049 424.665 387.049C406.975 391.416 389.45 387.296 371.777 378.166C341.421 362.624 311.314 331.881 281.185 307.678C258.522 289.459 235 274.915 211.433 264.809C167.018 245.701 121.547 241.901 79.4316 258.494C69.1132 262.54 59.0353 267.74 49.1068 273.861C9.88131 298.082 -25.9201 336.637 -64.474 365.263C-69.3317 368.87 -74.2773 372.309 -79.2988 375.528C-124.192 404.333 -176.231 414.816 -221.996 374.889C-272.532 330.803 -304.048 236.128 -351.373 181.68C-408.658 115.74 -486.13 125.598 -526.691 202.132" stroke="white" stroke-opacity="0.04" stroke-width="2.66667" stroke-miterlimit="10"/>
<path d="M686.401 531.082C688.205 467.936 670.584 400.183 640.841 355.944C611.515 312.336 571.068 292.76 535.887 305.815C532.86 306.939 529.882 308.283 526.947 309.818C491.364 328.422 462.353 374.525 426.036 385.652C408.407 391.052 390.862 388.202 372.994 380.113C342.241 366.377 311.582 336.484 280.968 312.006C258.009 293.631 234.265 278.333 210.589 267.196C165.936 246.107 120.173 239.16 77.4203 253.586C66.9348 257.098 56.6634 261.831 46.5272 267.599C6.4995 290.434 -29.8792 329.404 -68.9041 358.581C-73.8207 362.257 -78.8221 365.768 -83.8952 369.062C-129.259 398.506 -182.146 409.143 -228.263 367.997C-277.169 324.362 -307.885 232.859 -353.481 179.137C-408.685 114.047 -482.996 120.779 -522.935 191.832" stroke="white" stroke-opacity="0.04" stroke-width="2.66667" stroke-miterlimit="10"/>
<path d="M692.693 523.45C693.41 459.204 674.564 391.263 643.864 347.476C613.745 304.515 572.829 285.926 537.377 299.917C534.33 301.12 531.328 302.546 528.374 304.163C492.56 323.764 463.6 371.002 427.406 384.257C409.841 390.693 392.277 389.047 374.212 382.062C343.069 370.02 311.848 341.09 280.755 316.336C257.493 297.806 233.527 281.752 209.748 269.586C164.855 246.519 118.803 236.421 75.4103 248.684C64.7553 251.661 54.2966 255.927 43.9472 261.344C3.11919 282.788 -33.8376 322.169 -73.3322 351.9C-78.3084 355.647 -83.3651 359.229 -88.4904 362.597C-134.323 392.685 -188.059 403.498 -234.53 361.104C-281.814 317.969 -311.72 229.592 -355.587 176.596C-408.708 112.358 -479.86 115.963 -519.176 181.535" stroke="white" stroke-opacity="0.04" stroke-width="2.66667" stroke-miterlimit="10"/>
<path d="M698.997 515.817C698.616 450.472 678.547 382.336 646.894 339.007C615.978 296.688 574.593 279.09 538.87 294.017C535.798 295.299 532.776 296.808 529.799 298.51C493.747 319.106 464.843 367.478 428.78 382.865C411.275 390.334 393.695 389.943 375.434 384.01C343.896 373.756 312.124 345.694 280.536 320.664C256.98 301.98 232.794 285.169 208.907 271.975C163.774 246.928 117.435 233.68 73.4022 243.777C62.5806 246.221 51.9282 250.02 41.3709 255.084C-0.255931 275.14 -37.7938 314.934 -77.7587 345.219C-82.7942 349.035 -87.9047 352.692 -93.0844 356.128C-139.386 386.859 -193.973 397.873 -240.793 354.212C-286.463 311.624 -315.553 226.324 -357.691 174.055C-408.73 110.667 -476.721 111.146 -515.415 171.237" stroke="white" stroke-opacity="0.04" stroke-width="2.66667" stroke-miterlimit="10"/>
<path d="M705.293 508.189C703.829 441.739 682.532 373.409 649.923 330.539C618.218 288.859 576.351 272.259 540.364 288.119C537.266 289.483 534.223 291.069 531.227 292.855C494.941 314.447 466.092 363.952 430.153 381.471C412.713 389.976 395.103 390.849 376.654 385.957C344.72 377.496 312.397 350.301 280.326 324.996C256.467 306.154 232.061 288.594 208.066 274.368C162.696 247.339 116.065 230.944 71.3963 238.877C60.4073 240.784 49.5637 244.114 38.7944 248.83C-3.63229 267.495 -41.7473 307.705 -82.1813 338.542C-87.2767 342.425 -92.4436 346.154 -97.6752 349.664C-144.446 381.035 -199.885 392.278 -247.052 347.323C-291.118 305.324 -319.382 223.059 -359.791 171.516C-408.747 108.98 -473.578 106.333 -511.649 160.942" stroke="white" stroke-opacity="0.04" stroke-width="2.66666" stroke-miterlimit="10"/>
<path d="M711.597 500.556C709.034 433.011 686.523 364.476 652.952 322.071C620.462 281.027 578.122 265.429 541.861 282.222C538.743 283.666 535.674 285.335 532.658 287.204C496.138 309.793 467.339 360.433 431.531 380.082C414.151 389.62 396.522 391.753 377.879 387.908C345.544 381.241 312.67 354.91 280.115 329.33C255.958 310.332 231.332 292.015 207.231 276.76C161.621 247.753 114.701 228.208 69.3925 233.974C58.234 235.348 47.2013 238.213 36.2204 242.574C-7.00577 259.851 -45.6987 300.473 -86.6026 331.864C-91.7565 335.819 -96.9783 339.62 -102.263 343.201C-149.504 375.213 -205.799 386.71 -253.311 340.432C-295.78 299.065 -323.209 219.795 -361.888 168.979C-408.762 107.294 -470.432 101.52 -507.88 150.647" stroke="white" stroke-opacity="0.04" stroke-width="2.66667" stroke-miterlimit="10"/>
<path d="M717.903 492.928C714.245 424.283 690.517 355.544 655.986 313.606C622.708 273.193 579.889 258.6 543.355 276.328C540.216 277.853 537.126 279.602 534.089 281.552C497.339 305.137 468.59 356.914 432.911 378.69C415.59 389.266 397.938 392.664 379.101 389.863C346.37 384.992 312.947 359.524 279.905 333.666C255.451 314.513 230.603 295.443 206.397 279.16C160.549 248.168 113.337 225.475 67.3921 229.077C56.0658 229.915 44.8422 232.31 33.652 236.323C-10.3765 252.21 -49.6466 293.243 -91.0204 325.187C-96.2335 329.212 -101.511 333.085 -106.849 336.737C-154.558 369.392 -211.714 381.177 -259.564 333.545C-300.446 292.852 -327.031 216.534 -363.981 166.444C-408.772 105.612 -467.282 96.7113 -504.107 140.355" stroke="white" stroke-opacity="0.04" stroke-width="2.66667" stroke-miterlimit="10"/>
<path d="M724.201 485.299C719.454 415.555 694.512 346.606 659.012 305.145C624.953 265.355 581.649 251.774 544.855 270.435C541.689 272.042 538.579 273.872 535.521 275.905C498.529 300.486 469.841 353.396 434.288 377.305C417.028 388.91 399.355 393.576 380.332 391.815C347.196 388.75 313.229 364.135 279.697 338.004C254.94 318.693 229.877 298.868 205.563 281.557C159.477 248.585 111.978 222.743 65.3899 224.18C53.9002 224.484 42.4852 226.411 31.0825 230.072C-13.7447 244.571 -53.592 286.018 -95.436 318.512C-100.708 322.607 -106.04 326.554 -111.431 330.277C-159.609 363.575 -217.632 375.674 -265.815 326.66C-305.117 286.679 -330.85 213.275 -366.071 163.912C-408.779 103.932 -464.127 91.9046 -500.329 130.066" stroke="white" stroke-opacity="0.04" stroke-width="2.66666" stroke-miterlimit="10"/>
<path d="M730.503 477.676C724.666 406.828 698.511 337.664 662.047 296.686C627.202 257.52 583.421 244.95 546.353 264.55C543.165 266.235 540.033 268.145 536.955 270.262C499.73 295.84 471.094 349.882 435.668 375.919C418.473 388.559 400.78 394.492 381.558 393.771C348.03 392.511 313.511 368.75 279.493 342.345C254.439 322.878 229.156 302.297 204.736 283.958C158.41 249.005 110.622 220.015 63.3957 219.286C51.737 219.057 40.1322 220.518 28.5221 223.827C-17.1071 236.935 -57.5319 278.794 -99.8449 311.84C-105.177 316.005 -110.563 320.024 -116.006 323.821C-164.654 357.758 -223.553 370.207 -272.059 319.776C-309.792 280.546 -334.662 210.019 -368.153 161.384C-408.778 102.256 -460.965 87.1023 -496.543 119.781" stroke="white" stroke-opacity="0.04" stroke-width="2.66666" stroke-miterlimit="10"/>
<path d="M736.815 470.053C729.882 398.107 702.514 328.726 665.09 288.228C629.458 249.681 585.196 238.132 547.859 258.664C544.647 260.43 541.49 262.423 538.393 264.619C500.935 291.193 472.351 346.368 437.053 374.54C419.921 388.212 402.206 395.416 382.793 395.731C348.865 396.282 313.798 373.367 279.295 346.689C253.942 327.066 228.437 305.732 203.911 286.362C157.347 249.432 109.27 217.29 61.4074 214.398C49.5817 213.631 37.7857 214.624 25.9625 217.582C-20.4627 229.301 -61.467 271.572 -104.248 305.173C-109.64 309.405 -115.083 313.496 -120.577 317.367C-169.694 351.944 -229.479 364.781 -278.298 312.896C-314.471 274.45 -338.469 206.766 -370.231 158.858C-408.773 100.583 -457.798 82.3026 -492.753 109.499" stroke="white" stroke-opacity="0.04" stroke-width="2.66667" stroke-miterlimit="10"/>
<path d="M743.118 462.432C735.095 389.389 706.518 319.784 668.122 279.776C631.718 241.842 586.967 231.318 549.364 252.783C546.131 254.63 542.953 256.699 539.832 258.984C502.142 286.55 473.613 342.86 438.442 373.159C421.372 387.867 403.629 396.344 384.031 397.693C349.706 400.057 314.09 377.987 279.098 351.035C253.448 331.258 227.725 309.167 203.093 288.769C156.289 249.859 107.924 214.571 59.4228 209.511C47.432 208.214 35.4422 208.737 23.4114 211.342C-23.8145 221.674 -65.3951 264.358 -108.646 298.509C-114.096 302.813 -119.593 306.976 -125.142 310.914C-174.727 346.133 -235.406 359.403 -284.527 306.021C-319.151 268.392 -342.267 203.518 -372.299 156.338C-408.757 98.9162 -454.621 77.5105 -488.952 99.223" stroke="white" stroke-opacity="0.04" stroke-width="2.66667" stroke-miterlimit="10"/>
<path d="M749.423 454.818C740.308 380.677 710.521 310.845 671.158 271.332C633.973 234.005 588.739 224.51 550.866 246.911C547.612 248.834 544.409 250.989 541.274 253.355C503.349 281.917 474.87 339.36 439.834 371.786C422.822 387.528 405.06 397.279 385.27 399.661C350.544 403.839 314.381 382.612 278.907 355.387C252.956 335.452 227.012 312.61 202.276 291.183C155.236 250.294 106.581 211.859 57.4448 204.636C45.2841 202.804 33.1072 202.859 20.8641 205.113C-27.1603 214.054 -69.3169 257.148 -113.036 291.85C-118.545 296.224 -124.098 300.458 -129.698 304.471C-179.751 340.328 -241.341 354.073 -290.748 299.15C-323.832 262.374 -346.055 200.278 -374.357 153.826C-408.731 97.2589 -451.433 72.7265 -485.14 88.9573" stroke="white" stroke-opacity="0.04" stroke-width="2.66666" stroke-miterlimit="10"/>
<path d="M755.729 447.203C745.522 371.968 714.531 301.905 674.201 262.891C636.233 226.172 590.521 217.706 552.375 241.042C549.095 243.047 545.876 245.281 542.714 247.729C504.558 277.286 476.135 335.861 441.224 370.416C424.275 387.193 406.495 398.216 386.51 401.629C351.393 407.628 314.679 387.24 278.72 359.741C252.472 339.652 226.31 316.056 201.466 293.601C154.191 250.735 105.247 209.148 55.4738 199.762C43.1474 197.396 30.7802 196.983 18.327 198.885C-30.4969 206.438 -73.2286 249.944 -117.417 285.195C-122.984 289.639 -128.591 293.947 -134.245 298.031C-184.764 334.529 -247.282 348.794 -296.957 292.284C-328.512 256.387 -349.831 197.042 -376.403 151.319C-408.694 95.6054 -448.233 67.9486 -481.316 78.6964" stroke="white" stroke-opacity="0.04" stroke-width="2.66666" stroke-miterlimit="10"/>
<path d="M762.042 439.592C750.743 363.261 718.542 292.963 677.243 254.455C638.503 218.335 592.302 210.91 553.889 235.175C550.588 237.261 547.343 239.577 544.166 242.107C505.775 272.657 477.404 332.365 442.625 369.048C425.74 386.853 407.939 399.157 387.76 403.6C352.247 411.418 314.983 391.868 278.54 364.097C251.995 343.853 225.611 319.503 200.666 296.022C153.151 251.174 103.921 206.442 53.5115 194.894C41.015 191.992 28.4574 191.111 15.7955 192.663C-33.8261 198.825 -77.1337 242.74 -121.788 278.546C-127.416 283.055 -133.078 287.436 -138.783 291.593C-189.77 328.73 -253.236 343.572 -303.159 285.419C-333.194 250.432 -353.599 193.808 -378.441 148.814C-408.649 93.9549 -445.026 63.1734 -477.485 68.4387" stroke="white" stroke-opacity="0.04" stroke-width="2.66666" stroke-miterlimit="10"/>
<path d="M768.35 431.981C755.958 354.557 722.554 284.018 680.28 246.021C640.766 210.496 594.08 204.111 555.399 229.31C552.077 231.477 548.81 233.872 545.612 236.483C506.99 268.032 478.669 328.867 444.018 367.679C427.199 386.519 409.389 400.165 389.009 405.571C353.121 415.329 315.29 396.499 278.358 368.452C251.514 348.05 224.914 322.951 199.861 298.44C152.11 251.614 102.592 203.737 51.5458 190.023C38.8842 186.588 26.1372 185.241 13.2647 186.439C-37.153 191.213 -81.04 235.538 -126.162 271.893C-131.848 276.475 -137.566 280.925 -143.323 285.152C-194.777 322.93 -259.214 338.414 -309.36 278.556C-337.888 244.502 -357.368 190.574 -380.48 146.309C-408.603 92.3054 -441.819 58.3994 -473.653 58.1828" stroke="white" stroke-opacity="0.04" stroke-width="2.66666" stroke-miterlimit="10"/>
<path d="M774.658 424.373C761.178 345.851 726.566 275.069 683.322 237.582C643.034 202.652 595.862 197.311 556.915 223.443C553.565 225.692 550.282 228.167 547.063 230.861C508.206 263.402 479.943 325.37 445.421 366.307C428.664 386.182 410.831 401.096 390.26 407.541C353.976 419.104 315.594 401.125 278.178 372.806C251.037 352.249 224.216 326.395 199.057 300.858C151.07 252.057 101.266 201.031 49.5831 185.154C36.7545 181.183 23.8142 179.368 10.7333 180.218C-40.4825 183.601 -84.9437 228.337 -130.535 265.241C-136.279 269.893 -142.052 274.416 -147.862 278.715C-199.783 317.13 -265.221 333.322 -315.561 271.691C-342.593 238.596 -361.136 187.34 -382.518 143.803C-408.558 90.6543 -438.612 53.624 -469.823 47.9264" stroke="white" stroke-opacity="0.04" stroke-width="2.66667" stroke-miterlimit="10"/>
<path d="M780.974 416.76C766.396 337.144 730.604 265.997 686.368 229.143C645.33 194.694 597.642 190.51 558.427 217.579C555.054 219.906 551.747 222.459 548.509 225.24C509.418 258.772 481.214 321.871 446.818 364.938C430.126 385.843 412.273 402.027 391.509 409.505C354.832 422.876 315.899 405.749 277.997 377.154C250.56 356.445 223.52 329.836 198.257 303.273C150.031 252.493 99.9373 198.323 47.6205 180.281C34.6232 175.777 21.4955 173.495 8.20215 173.993C-43.8109 175.986 -88.8479 221.132 -134.906 258.587C-140.71 263.308 -146.537 267.903 -152.399 272.276C-204.788 311.329 -271.261 328.304 -321.76 264.826C-347.31 232.71 -364.903 184.103 -384.555 141.296C-408.512 89.0011 -435.405 48.8469 -465.991 37.6688" stroke="white" stroke-opacity="0.04" stroke-width="2.66666" stroke-miterlimit="10"/>
<path d="M787.28 409.151C771.617 328.439 734.613 257.074 689.409 220.71C647.588 186.879 599.427 183.714 559.943 211.712C556.549 214.121 553.214 216.756 549.959 219.616C510.635 254.146 482.488 318.374 448.219 363.567C431.592 385.506 413.717 402.957 392.757 411.476C355.69 426.653 316.204 410.375 277.821 381.506C250.083 360.641 222.824 333.283 197.455 305.689C148.993 252.932 98.6127 195.617 45.6589 175.413C32.4949 170.374 19.1773 167.622 5.67465 167.77C-47.1384 168.375 -92.7508 213.931 -139.276 251.938C-145.14 256.725 -151.021 261.395 -156.938 265.836C-209.792 305.533 -277.344 323.372 -327.96 257.962C-352.039 226.845 -368.67 180.869 -386.593 138.79C-408.467 87.3489 -432.199 44.0715 -462.161 27.4137" stroke="white" stroke-opacity="0.04" stroke-width="2.66667" stroke-miterlimit="10"/>
<path d="M793.59 401.539C776.836 319.731 738.619 248.148 692.457 212.269C649.854 179.056 601.213 176.91 561.459 205.842C558.04 208.328 554.69 211.046 551.414 213.989C511.856 249.512 483.758 314.873 449.624 362.193C433.052 385.166 415.16 403.885 394.008 413.44C356.548 430.421 316.514 414.994 277.643 385.853C249.608 364.833 222.131 336.72 196.655 308.1C147.957 253.364 97.2904 192.905 43.6986 170.537C30.3688 164.964 16.8583 161.747 3.14581 161.543C-50.4639 160.758 -96.6519 206.725 -143.645 245.282C-149.567 250.139 -155.504 254.88 -161.472 259.394C-214.793 299.729 -283.472 318.535 -334.156 251.094C-356.781 220.991 -372.435 177.63 -388.628 136.279C-408.419 85.6924 -428.99 39.2914 -458.328 17.1537" stroke="white" stroke-opacity="0.04" stroke-width="2.66667" stroke-miterlimit="10"/>
<path d="M799.908 393.923C782.059 311.023 742.625 239.223 695.505 203.83C648.383 168.434 594.51 170.145 552.864 208.364C493.759 262.607 460.571 382.991 395.265 415.403C330.153 447.714 256.969 381.339 195.857 310.511C134.742 239.683 70.4743 158.104 0.619209 155.315C-60.6463 152.869 -112.219 211.98 -166.007 252.953C-219.796 293.926 -289.661 313.805 -340.354 244.228C-387.473 179.556 -402.329 57.069 -454.498 6.8951" stroke="white" stroke-opacity="0.04" stroke-width="2.66667" stroke-miterlimit="10"/>
<path d="M799.259 392.186C779.149 306.463 736.118 235.512 686.875 202.315C639.524 170.387 586.338 172.992 544.391 210.277C485.812 262.829 451.312 376.6 387.489 404.617C324.06 432.465 254.024 365.881 194.257 296.298C134.172 226.278 70.3538 149.65 2.03206 149.057C-58.1043 148.787 -108.711 208.02 -162.04 248.14C-216.781 288.991 -287.031 303.646 -339.243 235.942C-389.196 171.168 -409.181 56.1308 -463.162 13.017" stroke="white" stroke-opacity="0.04" stroke-width="2.66666" stroke-miterlimit="10"/>
<path d="M798.611 390.447C776.242 301.899 729.684 231.74 678.253 200.796C630.732 172.205 578.085 175.583 535.921 212.19C477.745 262.697 442.078 370.203 379.716 393.829C317.982 417.214 251.078 350.413 192.662 282.073C133.608 212.864 70.219 140.909 3.45046 142.791C-55.581 144.454 -105.129 204.299 -158.069 243.319C-213.686 284.31 -284.448 293.543 -338.131 227.65C-390.958 162.807 -416.035 55.189 -471.829 19.1371" stroke="white" stroke-opacity="0.04" stroke-width="2.66666" stroke-miterlimit="10"/>
<path d="M797.974 388.701C773.34 297.327 723.31 227.885 669.63 199.27C621.998 173.879 569.881 178.309 527.448 214.1C469.754 262.76 432.858 363.812 371.944 383.028C311.926 401.965 248.135 334.934 191.067 267.839C133.043 199.438 70.0921 132.316 4.87234 136.517C-53.0454 140.249 -101.586 200.427 -154.095 238.493C-210.631 279.48 -281.902 283.496 -337.016 219.349C-392.753 154.477 -422.888 54.2406 -480.495 25.2542" stroke="white" stroke-opacity="0.04" stroke-width="2.66667" stroke-miterlimit="10"/>
<path d="M797.337 386.957C770.442 292.756 716.985 223.941 661.008 197.744C613.308 175.418 561.684 181.045 518.982 216.004C461.776 262.838 423.659 357.427 364.173 372.226C305.888 386.726 245.194 319.452 189.477 253.598C132.485 186.007 69.9665 123.73 6.29768 130.241C-50.5089 136.051 -98.044 196.537 -150.116 233.665C-207.577 274.637 -279.388 273.504 -335.897 211.046C-394.576 146.188 -429.74 53.2919 -489.161 31.3727" stroke="white" stroke-opacity="0.04" stroke-width="2.66667" stroke-miterlimit="10"/>
<path d="M796.702 385.209C767.54 288.181 710.693 219.898 652.377 196.219C604.645 176.832 553.492 183.791 510.506 217.916C453.792 262.937 414.479 351.06 356.398 361.421C299.87 371.504 242.256 303.96 187.888 239.352C131.925 172.571 69.8417 115.153 7.72304 123.964C-47.9727 131.863 -94.5034 192.632 -146.133 228.835C-204.524 269.779 -276.897 263.57 -334.774 202.74C-396.422 137.945 -436.59 52.3447 -497.826 37.4961" stroke="white" stroke-opacity="0.04" stroke-width="2.66666" stroke-miterlimit="10"/>
<path d="M796.063 383.457C764.642 283.597 704.438 215.739 643.756 194.685C596.009 178.122 545.303 186.545 502.041 219.819C445.824 263.047 405.32 344.706 348.626 350.604C293.875 356.301 239.318 288.458 186.302 225.098C131.371 159.124 69.717 106.582 9.15434 117.677C-45.4325 127.678 -90.9635 188.708 -142.147 223.998C-201.471 264.903 -274.428 253.682 -333.649 194.425C-398.29 129.744 -443.441 51.3905 -506.492 43.6154" stroke="white" stroke-opacity="0.04" stroke-width="2.66667" stroke-miterlimit="10"/>
<path d="M795.428 381.703C761.744 279.012 698.203 211.457 635.128 193.151C587.39 179.295 537.115 189.313 493.565 221.723C437.864 263.177 396.184 338.381 340.855 339.784C287.898 341.126 236.382 272.952 184.717 210.835C130.82 145.673 69.5931 98.02 10.5882 111.388C-42.8909 123.503 -87.4248 184.766 -138.157 219.159C-198.419 260.012 -271.974 243.843 -332.521 186.106C-400.175 121.592 -450.291 50.4357 -515.159 49.7375" stroke="white" stroke-opacity="0.04" stroke-width="2.66667" stroke-miterlimit="10"/>
<path d="M794.802 379.944C758.844 274.423 691.975 207.054 626.504 191.614C578.777 180.36 528.932 192.091 485.09 223.627C429.903 263.321 387.073 332.09 333.083 328.958C281.945 325.989 233.446 257.434 183.136 196.563C130.268 132.212 69.4757 89.468 12.023 105.094C-40.346 119.338 -83.8857 180.808 -134.163 214.315C-195.366 255.105 -269.532 234.048 -331.388 177.783C-402.073 113.487 -457.139 49.4792 -523.823 55.8602" stroke="white" stroke-opacity="0.04" stroke-width="2.66667" stroke-miterlimit="10"/>
<path d="M794.159 378.189C755.941 269.834 685.397 214.927 617.866 190.08C570.409 172.619 520.749 194.887 476.611 225.535C421.949 263.488 377.772 319.796 325.306 318.127C276.201 316.566 230.512 241.912 181.55 182.289C129.718 118.749 69.3547 80.9311 13.4599 98.8001C-37.7989 115.186 -80.3491 176.839 -130.168 209.473C-192.317 250.183 -267.101 224.299 -330.255 169.459C-403.984 105.436 -463.988 48.5254 -532.489 61.9888" stroke="white" stroke-opacity="0.04" stroke-width="2.66666" stroke-miterlimit="10"/>
<path d="M793.531 376.425C753.044 265.238 679.393 210.547 609.238 188.539C561.645 173.606 512.577 197.69 468.136 227.436C414 263.67 368.9 319.663 317.533 307.29C270.091 295.864 227.58 226.384 179.971 168.004C129.171 105.276 69.2392 72.4032 14.9021 92.4977C-35.2489 111.044 -76.811 172.85 -126.167 204.623C-189.266 245.242 -264.674 214.584 -329.118 161.126C-405.904 97.4294 -470.836 47.5663 -541.156 68.1154" stroke="white" stroke-opacity="0.04" stroke-width="2.66667" stroke-miterlimit="10"/>
<path d="M792.898 374.664C750.15 260.643 673.385 205.785 600.605 187C552.874 174.674 504.403 200.513 459.661 229.34C406.06 263.872 359.841 313.543 309.761 296.45C264.188 280.892 224.65 210.845 178.394 153.717C128.63 91.7965 69.132 63.8895 16.3457 86.1946C-32.6912 106.916 -73.2697 168.849 -122.162 199.772C-186.215 240.284 -262.248 204.907 -327.975 152.791C-407.828 89.4729 -477.681 46.6078 -549.819 74.2456" stroke="white" stroke-opacity="0.04" stroke-width="2.66667" stroke-miterlimit="10"/>
<path d="M792.265 372.905C747.25 256.05 667.355 200.647 591.971 185.466C544.107 175.825 496.239 203.36 451.18 231.255C398.127 264.099 350.785 307.509 301.99 285.607C258.294 265.998 221.723 195.308 176.824 139.428C128.092 78.3217 69.0345 55.3995 17.8006 79.8968C-30.1213 102.811 -69.7235 164.843 -118.145 194.925C-183.155 235.315 -259.814 195.271 -326.818 144.459C-409.745 81.5731 -484.512 45.6591 -558.469 80.3865" stroke="white" stroke-opacity="0.04" stroke-width="2.66666" stroke-miterlimit="10"/>
<path d="M791.635 371.153C744.35 251.466 660.79 183.116 583.345 183.942C535.663 184.449 488.079 206.236 442.706 233.175C390.197 264.356 341.734 301.568 294.226 274.774C252.404 251.189 218.81 179.778 175.264 125.145C127.567 64.8527 68.9492 46.9368 19.2664 73.6084C-27.5356 98.733 -66.166 160.833 -114.115 190.087C-180.086 230.338 -257.37 185.677 -325.648 136.136C-411.654 73.7323 -491.329 44.7211 -567.105 86.5415" stroke="white" stroke-opacity="0.04" stroke-width="2.66667" stroke-miterlimit="10"/>
<path d="M791.005 369.404C741.453 246.882 654.505 177.965 574.712 182.423C527.014 185.087 479.926 209.134 434.238 235.101C382.276 264.635 332.673 295.72 286.464 263.935C246.508 236.456 215.898 164.243 173.707 110.863C127.045 51.3853 68.8786 38.4953 20.7381 67.3234C-24.9345 94.6748 -62.6028 156.816 -110.075 185.25C-177.01 225.343 -254.916 176.114 -324.466 127.813C-413.555 65.9416 -498.136 43.7875 -575.729 92.7028" stroke="white" stroke-opacity="0.04" stroke-width="2.66667" stroke-miterlimit="10"/>
<path d="M790.372 367.66C738.555 242.308 648.187 172.706 566.078 180.916C518.34 185.691 471.774 212.065 425.765 237.041C374.364 264.944 323.59 289.967 278.708 253.108C240.593 221.807 212.992 148.716 172.158 96.5897C126.535 37.9285 68.8204 30.0845 22.2214 61.0499C-22.3189 90.6477 -59.0301 152.799 -106.022 180.423C-173.926 220.341 -252.448 166.591 -323.268 119.5C-415.443 58.2096 -504.927 42.8681 -584.337 98.8792" stroke="white" stroke-opacity="0.04" stroke-width="2.66666" stroke-miterlimit="10"/>
<path d="M789.742 365.919C735.66 237.735 641.849 167.337 557.452 179.41C509.662 186.245 463.631 215.017 417.3 238.979C366.457 265.278 314.472 284.302 270.957 242.278C234.653 207.219 210.094 133.19 170.618 82.314C126.031 24.4693 68.7797 21.6919 23.7126 54.7768C-19.6887 86.6393 -55.4521 148.772 -101.961 175.596C-170.836 215.321 -249.97 157.095 -322.061 111.186C-417.323 50.5233 -511.709 41.9508 -592.936 105.059" stroke="white" stroke-opacity="0.04" stroke-width="2.66667" stroke-miterlimit="10"/>
<path d="M789.109 364.184C732.762 233.173 635.477 161.865 548.822 177.913C500.962 186.777 455.494 218 408.836 240.929C358.557 265.636 305.302 278.711 263.206 231.451C228.677 192.687 207.2 117.667 169.079 68.0466C125.53 11.0201 68.7482 13.3274 25.2079 48.5148C-17.0435 82.6595 -51.8672 144.743 -97.8909 170.777C-167.741 210.289 -247.481 147.632 -320.844 102.881C-419.193 42.8897 -518.479 41.0444 -601.524 111.25" stroke="white" stroke-opacity="0.04" stroke-width="2.66666" stroke-miterlimit="10"/>
<path d="M788.48 362.453C729.867 228.612 629.077 156.295 540.197 176.422C492.241 187.283 447.358 221.017 400.369 242.888C350.662 266.023 296.074 273.178 255.462 220.632C222.652 178.186 204.31 102.149 167.548 53.7831C125.037 -2.42509 68.7378 4.98469 26.7122 42.2576C-14.3794 78.7031 -48.2763 140.712 -93.8133 165.963C-164.642 205.242 -244.981 138.197 -319.618 94.5809C-421.054 35.3043 -525.241 40.1458 -610.103 117.45" stroke="white" stroke-opacity="0.04" stroke-width="2.66666" stroke-miterlimit="10"/>
<path d="M787.851 360.725C726.973 224.055 622.635 150.637 531.566 174.939C483.514 187.763 439.23 224.058 391.908 244.846C342.77 266.433 286.785 267.673 247.718 209.814C216.58 163.696 201.425 86.6332 166.019 39.5226C124.547 -15.8668 68.7394 -3.33747 28.2229 36.0047C-11.6989 74.7673 -44.681 136.674 -89.7285 161.153C-161.541 200.176 -242.47 128.786 -318.384 86.2828C-422.905 27.7624 -531.996 39.2511 -618.673 123.656" stroke="white" stroke-opacity="0.04" stroke-width="2.66667" stroke-miterlimit="10"/>
<path d="M787.222 359C724.072 219.505 616.164 144.889 522.94 173.459C474.759 188.225 431.101 227.135 383.449 246.813C334.882 266.871 277.43 262.173 239.978 198.997C210.459 149.197 198.542 71.1207 164.497 25.2662C124.063 -29.3034 68.7584 -11.6405 29.7348 29.7589C-9.0022 70.854 -41.1052 132.525 -85.6378 156.347C-158.477 194.918 -239.949 119.4 -317.142 77.99C-424.747 20.2645 -538.742 38.3642 -627.236 129.868" stroke="white" stroke-opacity="0.04" stroke-width="2.66667" stroke-miterlimit="10"/>
<path d="M786.588 357.281C721.173 214.958 609.655 139.061 514.317 171.983C465.986 188.674 422.978 230.244 374.988 248.786C326.996 267.33 268.005 256.655 232.24 188.187C204.285 134.669 195.661 55.6126 162.976 11.0154C123.579 -42.7338 68.7934 -19.9258 31.2532 23.5179C-6.2902 66.9619 -37.4786 128.587 -81.5421 151.547C-155.331 189.994 -237.42 110.039 -315.894 69.7028C-426.581 12.8091 -545.481 37.4837 -635.791 136.088" stroke="white" stroke-opacity="0.04" stroke-width="2.66667" stroke-miterlimit="10"/>
</svg>