<svg width="397" height="78" viewBox="0 0 397 78" fill="none" xmlns="http://www.w3.org/2000/svg">
<path d="M427.024 258.555C430.104 222.282 421.669 181.548 405.358 153.926C389.047 126.303 365.368 112.654 344.537 118.866C320.98 125.893 302.25 155.957 278.173 159.066C248.911 162.842 221.13 126.742 193.132 104.019C154.599 72.7506 110.928 65.9835 73.0182 85.4026C43.019 100.77 17.2831 131.375 -11.2753 152.269C-39.8342 173.164 -74.1572 183.661 -104.524 158.361C-137.146 131.182 -157.204 69.8618 -187.984 35.9801C-225.23 -5.01953 -276.018 4.74478 -301.358 57.7773" stroke="white" stroke-opacity="0.02" stroke-width="2.66667" stroke-miterlimit="10"/>
<path d="M430.841 253.929C433.259 216.987 424.086 176.12 407.192 148.788C390.403 121.542 366.432 108.51 345.438 115.291C343.632 115.873 341.853 116.59 340.099 117.42C318.818 127.49 301.169 154.056 279.002 158.219C268.242 160.24 257.633 156.972 247.038 150.812C228.875 140.297 210.962 121.147 193 106.642C179.443 95.6956 165.319 87.3367 151.099 81.8345C124.323 71.454 96.937 71.0593 71.7972 82.4269C65.6447 85.2046 59.652 88.6405 53.7622 92.5611C30.4721 108.085 9.12249 131.204 -13.9616 148.218C-16.8701 150.362 -19.8343 152.403 -22.8454 154.311C-49.771 171.382 -80.7989 177.654 -108.325 154.182C-139.949 127.217 -159.531 67.8792 -189.264 34.4373C-225.248 -6.04637 -274.12 1.82342 -299.083 51.5342" stroke="white" stroke-opacity="0.02" stroke-width="2.66668" stroke-miterlimit="10"/>
<path d="M434.654 249.302C436.413 211.694 426.502 170.692 409.022 143.655C391.759 116.782 367.5 104.366 346.34 111.714C344.519 112.345 342.729 113.111 340.962 113.992C319.537 124.665 301.922 151.919 279.83 157.374C269.108 160.021 258.486 157.524 247.774 151.99C229.374 142.57 211.126 123.936 192.864 109.266C179.128 98.2232 164.87 89.4072 150.586 83.2817C123.665 71.7002 96.1047 69.3971 70.5774 79.4543C64.3232 81.9065 58.2148 85.0584 52.1969 88.7683C28.4215 103.449 6.72158 126.818 -16.6468 144.169C-19.5911 146.355 -22.5887 148.44 -25.6324 150.391C-52.8429 167.85 -84.3846 174.204 -112.124 150.004C-142.755 123.283 -161.858 65.8977 -190.542 32.896C-225.264 -7.07187 -272.221 -1.09666 -296.806 45.2921" stroke="white" stroke-opacity="0.02" stroke-width="2.66667" stroke-miterlimit="10"/>
<path d="M438.474 244.676C439.567 206.402 428.887 165.335 410.859 138.521C393.084 112.09 368.568 100.224 347.244 108.137C345.409 108.818 343.604 109.633 341.825 110.563C320.258 121.84 302.674 149.784 280.661 156.528C269.976 159.801 259.342 158.074 248.511 153.171C229.871 144.845 211.288 126.726 192.732 111.89C178.817 100.752 164.425 91.4799 150.074 84.7293C123.009 71.947 95.2716 67.7363 69.3581 76.4801C63.0026 78.609 56.777 81.4774 50.6332 84.9737C26.3716 98.8143 4.32169 122.435 -19.3321 140.119C-22.3121 142.348 -25.3436 144.476 -28.4185 146.472C-55.9144 164.319 -87.9704 170.766 -115.923 145.827C-145.566 119.379 -164.183 63.9167 -191.82 31.3549C-225.28 -8.09723 -270.322 -4.01718 -294.53 39.0499" stroke="white" stroke-opacity="0.02" stroke-width="2.66667" stroke-miterlimit="10"/>
<path d="M442.287 240.049C442.722 201.108 431.299 159.928 412.691 133.388C394.435 107.347 369.635 96.0804 348.147 104.56C346.301 105.29 344.481 106.154 342.69 107.135C320.982 119.015 303.429 147.647 281.492 155.681C270.845 159.582 260.199 158.584 249.249 154.35C230.373 147.051 211.45 129.517 192.603 114.513C178.504 103.281 163.978 93.5506 149.565 86.1764C122.354 72.195 94.441 66.0744 68.1398 73.5072C61.6816 75.3116 55.3424 77.8974 49.0694 81.1809C24.3227 94.1784 1.92248 118.048 -22.016 136.069C-25.0322 138.34 -28.0972 140.511 -31.2037 142.552C-58.9836 160.789 -91.5545 167.343 -119.721 141.647C-148.381 115.502 -166.508 61.9353 -193.096 29.8135C-225.294 -9.12259 -268.421 -6.93722 -292.251 32.8071" stroke="white" stroke-opacity="0.02" stroke-width="2.66667" stroke-miterlimit="10"/>
<path d="M446.109 235.423C445.878 195.816 433.714 154.518 414.528 128.255C395.789 102.605 370.705 91.9385 349.053 100.986C347.19 101.763 345.359 102.678 343.554 103.709C321.703 116.193 304.184 145.512 282.325 154.838C271.714 159.366 261.059 159.129 249.991 155.532C230.875 149.317 211.617 132.308 192.471 117.137C178.194 105.813 163.534 95.6232 149.055 87.6259C121.699 72.4441 93.6122 64.4146 66.9231 70.5344C60.3639 72.0156 53.9073 74.3181 47.5083 77.3875C22.2774 89.5441 -0.475054 113.664 -24.6986 132.02C-27.7507 134.333 -30.8483 136.55 -33.9878 138.632C-62.052 157.259 -95.1383 163.935 -123.517 137.472C-151.198 111.658 -168.83 59.9557 -194.371 28.2742C-225.307 -10.1461 -266.518 -9.85573 -289.971 26.5663" stroke="white" stroke-opacity="0.02" stroke-width="2.66667" stroke-miterlimit="10"/>
<path d="M449.925 230.799C449.037 190.523 436.129 149.106 416.364 123.122C397.147 97.8586 371.77 87.7972 349.958 97.4099C348.08 98.2368 346.236 99.1984 344.42 100.281C322.426 113.368 304.941 143.374 283.157 153.993C272.586 159.148 261.912 159.677 250.73 156.712C231.375 151.583 211.783 135.1 192.344 119.762C177.882 108.342 163.089 97.6981 148.546 89.0751C121.046 72.6925 92.782 62.7554 65.7073 67.5634C59.0466 68.7193 52.4741 70.7377 45.9466 73.5964C20.2309 84.9098 -2.87132 109.281 -27.3792 127.972C-30.4676 130.326 -33.5994 132.586 -36.7703 134.714C-65.1194 153.729 -98.722 160.543 -127.311 133.295C-154.02 107.839 -171.151 57.9763 -195.644 26.7349C-225.317 -11.1693 -264.613 -12.7738 -287.688 20.3255" stroke="white" stroke-opacity="0.02" stroke-width="2.66666" stroke-miterlimit="10"/>
<path d="M453.745 226.173C452.192 185.233 438.548 143.692 418.199 117.989C398.507 93.112 372.844 83.6577 350.865 93.8363C348.975 94.7117 347.115 95.7232 345.287 96.8559C323.152 110.548 305.696 141.241 283.992 153.151C273.457 158.932 262.772 160.225 251.472 157.895C231.873 153.854 211.948 137.894 192.215 122.389C177.573 110.875 162.647 99.772 148.039 90.5258C120.394 72.9441 91.9549 61.0971 64.4922 64.5923C57.7288 65.4252 51.0417 67.1614 44.386 69.8048C18.1857 80.2768 -5.26686 104.899 -30.0596 123.925C-33.1834 126.323 -36.3485 128.626 -39.5516 130.797C-68.1855 150.2 -102.307 157.169 -131.105 129.119C-156.846 104.045 -173.471 55.998 -196.916 25.1973C-225.327 -12.1909 -262.707 -15.6906 -285.405 14.086" stroke="white" stroke-opacity="0.02" stroke-width="2.66667" stroke-miterlimit="10"/>
<path d="M457.568 221.549C455.351 179.942 440.969 138.278 420.039 112.859C399.869 88.364 373.915 79.5185 351.771 90.2643C349.868 91.1886 347.996 92.2488 346.155 93.4302C323.88 107.726 306.454 139.109 284.829 152.308C274.33 158.718 263.631 160.777 252.213 159.08C232.374 156.127 212.116 140.691 192.089 125.018C177.266 113.409 162.206 101.85 147.534 91.9804C119.744 73.1956 91.1286 59.441 63.2803 61.6243C56.4152 62.1321 49.6124 63.5839 42.8298 66.0165C16.1432 75.6458 -7.65918 100.517 -32.7367 119.879C-35.8965 122.318 -39.0951 124.666 -42.3306 126.879C-71.2484 146.672 -105.891 153.815 -134.895 124.945C-159.674 100.28 -175.788 54.0216 -198.184 23.6614C-225.333 -13.2102 -260.796 -18.6053 -283.117 7.84827" stroke="white" stroke-opacity="0.02" stroke-width="2.66667" stroke-miterlimit="10"/>
<path d="M461.385 216.925C458.508 174.652 443.39 132.861 421.872 107.73C401.229 83.6126 374.981 75.3809 352.68 86.6918C350.761 87.6658 348.876 88.7749 347.022 90.0071C324.601 104.906 307.212 136.976 285.663 151.468C275.201 158.502 264.489 161.33 252.959 160.263C232.875 158.405 212.286 143.485 191.962 127.647C176.957 115.942 161.765 103.926 147.028 93.4334C119.094 73.4479 90.3039 57.7848 62.0662 58.6559C55.1021 58.8398 48.1832 60.0078 41.2718 62.2269C14.1011 71.015 -10.0511 96.1372 -35.4136 115.832C-38.609 118.314 -41.8407 120.707 -45.1082 122.963C-74.3101 143.146 -109.479 150.479 -138.684 120.771C-162.506 96.5374 -178.103 52.0459 -199.451 22.1261C-225.337 -14.2288 -258.884 -21.519 -280.827 1.61165" stroke="white" stroke-opacity="0.02" stroke-width="2.66666" stroke-miterlimit="10"/>
<path d="M465.204 212.305C461.666 169.363 445.813 127.441 423.712 102.603C402.591 78.8643 376.055 71.2448 353.587 83.1254C351.655 84.1464 349.757 85.3043 347.891 86.5873C325.328 102.09 307.971 134.847 286.499 150.628C276.077 158.29 265.352 161.886 253.702 161.448C233.379 160.685 212.457 146.283 191.838 130.278C176.652 118.479 161.327 106.004 146.526 94.8886C118.447 73.7027 89.482 56.1314 60.857 55.6895C53.7904 55.5505 46.7565 56.4362 39.7194 58.4418C12.0626 66.3871 -12.4397 91.7588 -38.0865 111.789C-41.3181 114.313 -44.5831 116.749 -47.8822 119.05C-77.3687 139.62 -113.069 147.166 -142.469 116.598C-165.34 92.8203 -180.414 50.0728 -200.714 20.5938C-225.337 -15.2446 -256.968 -24.4296 -278.533 -4.62216" stroke="white" stroke-opacity="0.02" stroke-width="2.66666" stroke-miterlimit="10"/>
<path d="M469.03 207.683C464.828 164.075 448.239 122.022 425.556 97.4757C403.959 74.1113 377.131 67.1115 354.5 79.556C352.553 80.6268 350.64 81.8342 348.762 83.1655C326.059 99.2723 308.733 132.716 287.338 149.791C276.954 158.078 266.217 162.444 254.45 162.635C233.886 162.969 212.631 149.08 191.718 132.91C176.351 121.016 160.892 108.085 146.026 96.3441C117.803 73.9601 88.6623 54.4787 59.6518 52.7254C52.484 52.261 45.3342 52.8626 38.1679 54.6556C10.0287 61.7588 -14.8249 87.3799 -40.7555 107.746C-44.0234 110.311 -47.3224 112.791 -50.6528 115.137C-80.4237 136.095 -116.66 143.876 -146.25 112.427C-168.176 89.1244 -182.722 48.0996 -201.973 19.0614C-225.334 -16.26 -255.049 -27.3401 -276.236 -10.8557" stroke="white" stroke-opacity="0.02" stroke-width="2.66667" stroke-miterlimit="10"/>
<path d="M472.851 203.064C467.988 158.792 450.667 116.603 427.394 92.3531C405.329 69.3606 378.205 62.9818 355.412 75.9922C353.453 77.1115 351.527 78.3657 349.635 79.7504C326.79 96.459 309.498 130.59 288.181 148.954C277.834 157.869 267.08 163.008 255.201 163.825C234.396 165.258 212.808 151.881 191.599 135.545C176.052 123.557 160.46 110.168 145.531 97.8038C117.162 74.2198 87.8471 52.8309 58.4493 49.7642C51.1814 48.9782 43.9141 49.2947 36.622 50.8736C7.99744 57.1361 -17.2054 83.0078 -43.4205 103.707C-46.7238 106.316 -50.056 108.839 -53.4193 111.227C-83.4734 132.574 -120.253 140.617 -150.026 108.261C-171.012 85.4532 -185.023 46.1316 -203.226 17.5347C-225.324 -17.2697 -253.123 -30.2442 -273.932 -17.0837" stroke="white" stroke-opacity="0.02" stroke-width="2.66667" stroke-miterlimit="10"/>
<path d="M476.672 198.45C471.148 153.511 453.093 111.185 429.235 87.2351C406.696 64.6108 379.279 58.8557 356.323 72.4331C354.351 73.599 352.409 74.905 350.509 76.3389C327.522 93.6513 310.26 128.468 289.024 148.123C278.713 157.664 267.947 163.574 255.952 165.018C234.904 167.551 212.985 154.685 191.483 138.183C175.753 126.1 160.028 112.255 145.035 99.2675C116.523 74.4835 87.0326 51.1875 57.2503 46.8095C49.8795 45.6989 42.4988 45.7326 35.078 47.0987C5.96946 52.5177 -19.5825 78.6381 -46.0817 99.6717C-49.4209 102.323 -52.7865 104.889 -56.1806 107.321C-86.519 129.055 -123.85 137.386 -153.797 104.096C-173.849 81.8054 -187.319 44.1681 -204.473 16.0125C-225.309 -18.2739 -251.191 -33.1435 -271.621 -23.3057" stroke="white" stroke-opacity="0.02" stroke-width="2.66666" stroke-miterlimit="10"/>
<path d="M480.495 193.835C474.308 148.233 455.524 105.767 431.079 82.1195C408.066 59.8634 380.359 54.7318 357.238 68.8759C355.25 70.0917 353.299 71.4452 351.382 72.9291C328.255 90.8446 311.028 126.348 289.867 147.292C279.594 157.461 268.817 164.143 256.704 166.211C235.419 169.848 213.166 157.49 191.37 140.822C175.461 128.646 159.603 114.344 144.545 100.733C115.89 74.7511 86.2247 49.5444 56.0561 43.8557C48.5848 42.4217 41.0888 42.1711 33.5406 43.324C3.94748 47.9019 -21.9531 74.272 -48.7364 95.6381C-52.1111 98.3315 -55.5095 100.943 -58.9361 103.418C-89.5571 125.541 -127.451 134.187 -157.56 99.9348C-176.685 78.1771 -189.608 42.2066 -205.713 14.493C-225.285 -19.2759 -249.251 -36.0392 -269.303 -29.5248" stroke="white" stroke-opacity="0.02" stroke-width="2.66666" stroke-miterlimit="10"/>
<path d="M484.321 189.22C477.472 142.954 457.955 100.345 432.922 77.0044C409.441 55.1114 381.438 50.6108 358.155 65.3184C356.154 66.5831 354.187 67.9867 352.262 69.5201C328.992 88.0372 311.796 124.228 290.716 146.462C280.482 157.254 269.692 164.711 257.461 167.404C235.936 172.143 213.349 160.294 191.261 143.461C175.171 131.19 159.179 116.431 144.059 102.199C115.26 75.0158 85.4205 47.903 54.8661 40.9032C47.2918 39.1446 39.6803 38.6103 32.0057 39.5514C1.92905 43.2864 -24.3206 69.9041 -51.3868 91.6063C-54.7979 94.3396 -58.2297 96.9947 -61.6875 99.5146C-92.5919 122.024 -131.06 131.02 -161.319 95.7725C-179.524 74.566 -191.892 40.245 -206.949 12.9732C-225.258 -20.2778 -247.307 -38.9351 -266.981 -35.7437" stroke="white" stroke-opacity="0.02" stroke-width="2.66666" stroke-miterlimit="10"/>
<path d="M488.145 184.607C480.634 137.679 460.386 94.9236 434.764 71.8929C410.813 50.3607 382.516 46.4908 359.071 61.764C357.057 63.0775 355.077 64.5297 353.138 66.112C329.729 85.2342 312.563 122.108 291.561 145.633C281.366 157.052 270.571 165.323 258.218 168.6C236.466 174.514 213.535 163.101 191.15 146.101C174.88 133.735 158.757 118.522 143.572 103.666C114.629 75.2833 84.6148 46.2638 53.6749 37.9515C46.0005 35.8698 38.2743 35.0531 30.472 35.7796C-0.0872005 38.673 -26.688 65.539 -54.0371 87.575C-57.4835 90.3521 -60.9495 93.049 -64.4392 95.6115C-95.6264 118.509 -134.683 127.894 -165.077 91.6131C-182.369 70.9727 -194.176 38.2857 -208.185 11.4555C-225.231 -21.277 -245.363 -41.8281 -264.659 -41.9594" stroke="white" stroke-opacity="0.02" stroke-width="2.66666" stroke-miterlimit="10"/>
<path d="M491.968 179.996C483.797 132.402 462.818 89.4999 436.607 66.7783C412.188 45.6068 383.596 42.3691 359.989 58.2084C357.959 59.5716 355.969 61.0715 354.018 62.7046C330.466 82.4282 313.335 119.988 292.411 144.801C282.254 156.848 271.445 165.887 258.976 169.794C236.984 176.802 213.72 165.905 191.041 148.74C174.59 136.28 158.334 120.61 143.085 105.131C113.998 75.552 83.8109 44.6237 52.4852 35.0006C44.7095 32.5938 36.8661 31.4939 28.9375 32.0086C-2.10538 34.0592 -29.0542 61.1749 -56.6879 83.543C-60.1699 86.3625 -63.6686 89.1042 -67.1901 91.7098C-98.6609 114.994 -138.324 124.808 -168.836 87.4526C-185.221 67.3928 -196.46 36.3254 -209.42 9.93711C-225.204 -22.2776 -243.42 -44.7224 -262.337 -48.1759" stroke="white" stroke-opacity="0.02" stroke-width="2.66667" stroke-miterlimit="10"/>
<path d="M495.796 175.382C486.96 127.125 465.265 84.001 438.453 61.6635C413.579 40.7833 384.674 38.2472 360.905 54.6542C358.861 56.0645 356.857 57.6118 354.894 59.2974C331.2 79.6222 314.105 117.867 293.257 143.971C283.14 156.642 272.319 166.452 259.733 170.984C237.502 179.089 213.904 168.708 190.931 151.376C174.301 138.824 157.912 122.695 142.599 106.595C113.369 75.8165 83.0056 42.9826 51.2954 32.0468C43.4174 29.3171 35.4604 27.9338 27.4031 28.2357C-4.12307 29.444 -31.4209 56.8078 -59.3375 79.5098C-62.8555 82.3713 -66.3875 85.1566 -69.9405 87.8068C-101.694 111.478 -141.985 121.767 -172.594 83.2913C-188.08 63.8253 -198.744 34.3639 -210.655 8.41752C-225.176 -23.2795 -241.476 -47.6178 -260.015 -54.3931" stroke="white" stroke-opacity="0.02" stroke-width="2.66666" stroke-miterlimit="10"/>
<path d="M499.618 170.77C490.125 121.85 467.696 78.5935 440.297 56.5524C414.948 36.0469 385.757 34.1285 361.825 51.0991C359.768 52.5588 357.746 54.1561 355.773 55.8895C331.938 76.8192 314.878 115.749 294.107 143.141C284.028 156.439 273.195 167.016 260.49 172.18C238.023 181.379 214.09 171.512 190.825 154.014C174.012 141.368 157.49 124.786 142.113 108.06C112.74 76.083 82.2032 41.3432 50.1069 29.0971C42.1279 26.0428 34.0558 24.3752 25.8716 24.4646C-6.13947 24.8314 -33.7861 52.444 -61.9859 75.4806C-65.54 78.3823 -69.105 81.2129 -72.691 83.9043C-104.727 107.965 -145.672 118.778 -176.351 79.132C-190.946 60.2711 -201.027 32.4044 -211.89 6.89921C-225.148 -24.2802 -239.532 -50.5115 -257.693 -60.6081" stroke="white" stroke-opacity="0.02" stroke-width="2.66667" stroke-miterlimit="10"/>
<path d="M503.443 166.155C493.288 116.57 470.124 73.1822 442.144 51.4354C416.321 31.3042 386.839 30.0031 362.744 47.5398C360.672 49.0465 358.641 50.6936 356.655 52.4778C332.679 74.0086 315.648 113.626 294.958 142.307C284.914 156.231 274.069 167.578 261.248 173.369C238.543 183.661 214.278 174.311 190.717 156.648C173.725 143.907 157.07 126.867 141.629 109.52C112.112 76.3439 81.4017 39.698 48.9187 26.1403C40.8392 22.7629 32.6502 20.8127 24.3388 20.6888C-8.15512 20.2135 -36.1507 48.0749 -64.6339 71.4448C-68.2236 74.3888 -71.822 77.2626 -75.4393 79.9984C-107.759 104.446 -149.386 115.845 -180.107 74.9681C-193.82 56.7217 -203.308 30.4395 -213.123 5.37596C-225.119 -25.2855 -237.587 -53.41 -255.37 -66.8282" stroke="white" stroke-opacity="0.02" stroke-width="2.66667" stroke-miterlimit="10"/>
<path d="M507.272 161.539C496.453 111.291 472.551 67.7724 443.991 46.3199C415.429 24.8654 382.776 25.9026 357.534 49.0681C321.709 81.9456 301.593 154.913 262.009 174.558C222.544 194.142 178.186 153.911 141.144 110.981C104.101 68.0508 65.1474 18.6043 22.8068 16.9138C-14.3275 15.4313 -45.5865 51.2597 -78.1888 76.0944C-110.791 100.929 -153.138 112.978 -183.864 70.8057C-212.424 31.6065 -221.428 -42.6351 -253.049 -73.0465" stroke="white" stroke-opacity="0.02" stroke-width="2.66667" stroke-miterlimit="10"/>
<path d="M506.879 160.486C494.69 108.528 468.607 65.5231 438.76 45.4018C410.06 26.0491 377.823 27.6285 352.398 50.2276C316.892 82.0801 295.981 151.039 257.296 168.021C218.851 184.9 176.401 144.542 140.175 102.366C103.756 59.9261 65.0744 13.4805 23.6632 13.1206C-12.7866 12.9574 -43.4607 48.8595 -75.7839 73.1767C-108.964 97.9375 -151.544 106.82 -183.191 65.7833C-213.468 26.5226 -225.582 -43.2037 -258.3 -69.3358" stroke="white" stroke-opacity="0.02" stroke-width="2.66666" stroke-miterlimit="10"/>
<path d="M506.486 159.433C492.927 105.762 464.708 63.237 433.534 44.4811C404.731 27.1516 372.821 29.1993 347.264 51.3872C312.003 82.0009 290.384 147.162 252.585 161.482C215.167 175.656 174.615 135.167 139.208 93.745C103.414 51.7962 64.9926 8.18282 24.5229 9.32325C-11.2573 10.3312 -41.2892 46.6048 -73.3776 70.2551C-107.088 95.1009 -149.978 100.697 -182.517 60.7578C-214.536 21.4552 -229.736 -43.774 -263.553 -65.6258" stroke="white" stroke-opacity="0.02" stroke-width="2.66666" stroke-miterlimit="10"/>
<path d="M506.1 158.374C491.169 102.991 460.845 60.9 428.308 43.5563C399.437 28.1664 367.848 30.8509 342.129 52.5449C307.159 82.0384 284.795 143.288 247.875 154.936C211.497 166.414 172.831 125.785 138.241 85.117C103.072 43.6579 64.916 2.97372 25.385 5.52052C-9.72012 7.78199 -39.1414 44.2574 -70.9683 67.33C-105.236 92.173 -148.435 94.6073 -181.84 55.7266C-215.624 16.4061 -233.889 -44.3491 -268.806 -61.9184" stroke="white" stroke-opacity="0.02" stroke-width="2.66667" stroke-miterlimit="10"/>
<path d="M505.714 157.317C489.412 100.22 457.011 58.5101 423.082 42.6313C394.17 29.0992 362.88 32.5097 336.997 53.699C302.323 82.0859 279.22 139.418 243.164 148.389C207.837 157.177 171.049 116.401 137.278 76.4855C102.733 35.5176 64.8398 -2.23015 26.2488 1.71641C-8.18279 5.23783 -36.9948 41.8999 -68.5568 64.4038C-103.385 89.2375 -146.911 88.5513 -181.162 50.6937C-216.729 11.3823 -238.043 -44.924 -274.059 -58.2097" stroke="white" stroke-opacity="0.02" stroke-width="2.66667" stroke-miterlimit="10"/>
<path d="M505.329 156.257C487.654 97.4463 453.198 56.0587 417.851 41.7063C388.92 29.9558 357.915 34.1737 331.86 54.8575C297.485 82.1457 273.656 135.559 238.453 141.839C204.19 147.95 169.268 107.011 136.315 67.8502C102.394 27.3728 64.7647 -7.42902 27.1133 -2.0887C-6.64495 2.6991 -34.8482 39.5327 -66.1419 61.4761C-101.534 86.2929 -145.401 82.5292 -180.481 45.6591C-217.847 6.38571 -242.194 -45.4985 -279.31 -54.4986" stroke="white" stroke-opacity="0.02" stroke-width="2.66666" stroke-miterlimit="10"/>
<path d="M504.942 155.196C485.897 94.6691 449.406 53.5385 412.626 40.7773C383.685 30.7381 352.951 35.8437 326.729 56.0117C292.655 82.2129 268.105 131.708 233.741 135.283C200.555 138.736 167.487 97.615 135.353 59.2112C102.059 19.2235 64.6889 -12.6239 27.9806 -5.89856C-5.10558 0.163272 -32.7028 37.1544 -63.7263 58.5448C-99.6836 83.3379 -143.904 76.5367 -179.799 40.6198C-218.98 1.41562 -246.346 -46.0763 -284.563 -50.7889" stroke="white" stroke-opacity="0.02" stroke-width="2.66667" stroke-miterlimit="10"/>
<path d="M504.557 154.133C484.14 91.8894 445.627 50.9426 407.396 39.8473C378.46 31.4485 347.988 37.5207 321.591 57.1652C287.83 82.2911 262.567 127.874 229.031 128.725C196.932 129.538 165.707 88.2161 134.392 50.5656C101.724 11.0696 64.6134 -17.8137 28.8493 -9.71129C-3.56544 -2.36796 -30.5583 34.7651 -61.3082 55.6112C-97.834 80.3728 -142.418 70.5728 -179.116 35.5772C-220.123 -3.52642 -250.499 -46.6555 -289.817 -47.0787" stroke="white" stroke-opacity="0.02" stroke-width="2.66667" stroke-miterlimit="10"/>
<path d="M504.178 153.067C482.383 89.1087 441.852 48.275 402.169 38.9162C373.241 32.0948 343.029 39.2053 316.455 58.32C283.005 82.3794 257.045 124.062 224.32 122.164C193.324 120.364 163.929 78.8113 133.435 41.9161C101.39 2.91129 64.5427 -22.9965 29.7194 -13.5254C-2.02245 -4.89193 -28.4127 32.3667 -58.8871 52.676C-95.9833 77.3991 -140.937 64.6365 -178.429 30.5328C-221.273 -8.43803 -254.649 -47.2345 -295.068 -43.3669" stroke="white" stroke-opacity="0.02" stroke-width="2.66667" stroke-miterlimit="10"/>
<path d="M503.788 152.003C480.623 86.3273 437.865 53.0475 396.933 37.9871C368.169 27.4035 338.068 40.9005 311.315 59.4772C278.184 82.4809 251.408 116.611 219.607 115.599C189.843 114.653 162.15 69.4035 132.473 33.2649C101.057 -5.2484 64.4692 -28.1704 30.5903 -17.3397C-0.478712 -7.40803 -26.2692 29.9615 -56.4652 49.7413C-94.1351 74.4163 -139.463 58.7275 -177.742 25.488C-222.431 -13.3176 -258.801 -47.8122 -300.321 -39.6517" stroke="white" stroke-opacity="0.02" stroke-width="2.66666" stroke-miterlimit="10"/>
<path d="M503.408 150.935C478.868 83.5417 434.226 50.3927 391.704 37.0533C362.857 28.002 333.116 42.5996 306.179 60.6289C273.366 82.5913 246.03 116.53 214.895 109.031C186.14 102.105 160.373 59.9913 131.517 24.606C100.726 -13.4147 64.3996 -33.3393 31.4648 -21.1597C1.06725 -9.91842 -24.1244 27.5438 -54.0403 46.8019C-92.2858 71.4215 -137.992 52.8394 -177.053 20.4376C-223.594 -18.1704 -262.951 -48.3935 -305.573 -35.9383" stroke="white" stroke-opacity="0.02" stroke-width="2.66667" stroke-miterlimit="10"/>
<path d="M503.023 149.866C477.112 80.7552 430.584 47.5049 386.47 36.1185C357.54 28.6475 328.161 44.3093 301.041 61.7819C268.553 82.7125 240.539 112.819 210.184 102.459C182.561 93.0284 158.596 50.5716 130.56 15.945C100.397 -21.586 64.3338 -38.501 32.339 -24.9815C2.61674 -12.4221 -21.9787 25.1173 -51.6132 43.8602C-90.437 68.4152 -136.523 46.9725 -176.361 15.3836C-224.761 -22.9944 -267.1 -48.9758 -310.825 -32.224" stroke="white" stroke-opacity="0.02" stroke-width="2.66667" stroke-miterlimit="10"/>
<path d="M502.639 148.801C475.355 77.9728 426.929 44.3921 381.237 35.1908C352.226 29.3467 323.212 46.0366 295.901 62.944C263.744 82.8518 235.049 109.163 205.474 95.8883C178.989 84.0025 156.822 41.1558 129.608 7.28586C100.071 -29.7518 64.2747 -43.6454 33.2208 -28.7971C4.17436 -14.9086 -19.8294 22.6906 -49.1784 40.9241C-88.5823 65.4048 -135.047 41.1335 -175.66 10.3355C-225.923 -27.7811 -271.241 -49.5493 -316.068 -28.5003" stroke="white" stroke-opacity="0.02" stroke-width="2.66666" stroke-miterlimit="10"/>
<path d="M502.258 147.738C473.597 75.1933 422.95 33.7652 376.009 34.2657C347.108 34.5733 318.267 47.7784 290.765 64.107C258.938 83.0063 229.564 105.561 200.768 89.3207C175.419 75.0256 155.057 31.7416 128.663 -1.37226C99.7527 -37.9167 64.2235 -48.7759 34.1097 -32.6097C5.74202 -17.3811 -17.6726 20.2591 -46.7354 37.9904C-86.7219 62.387 -133.565 35.3173 -174.95 5.28935C-227.08 -32.5346 -275.373 -50.1189 -321.302 -24.7707" stroke="white" stroke-opacity="0.02" stroke-width="2.66667" stroke-miterlimit="10"/>
<path d="M501.876 146.677C471.842 72.4149 419.141 30.6423 370.777 33.3448C341.866 34.9592 313.325 49.5347 285.632 65.2742C254.137 83.1749 224.072 102.016 196.064 82.751C171.845 66.0951 153.292 22.3255 127.719 -10.0295C99.4369 -46.0799 64.1808 -53.8928 35.0019 -36.4195C7.31879 -19.8412 -15.5127 17.8235 -44.2864 35.0582C-84.8574 59.3595 -132.078 29.5209 -174.233 0.244272C-228.232 -37.257 -279.498 -50.6851 -326.529 -21.0365" stroke="white" stroke-opacity="0.02" stroke-width="2.66667" stroke-miterlimit="10"/>
<path d="M501.492 145.622C470.085 69.643 415.311 27.4559 365.543 32.4323C336.609 35.3259 308.383 51.3121 280.497 66.4507C249.342 83.3629 218.566 98.5303 191.362 76.1888C168.26 57.2169 151.531 12.9151 126.781 -18.6799C99.1273 -54.2356 64.1454 -58.99 35.9008 -40.2213C8.90401 -22.2814 -13.3474 15.3896 -41.8302 32.1334C-82.988 56.3286 -130.582 23.7495 -173.507 -4.7933C-229.376 -41.9428 -283.614 -51.2416 -331.746 -17.2922" stroke="white" stroke-opacity="0.02" stroke-width="2.66666" stroke-miterlimit="10"/>
<path d="M501.111 144.566C468.33 66.8709 411.469 24.2012 360.314 31.5189C331.348 35.6621 303.448 53.1012 275.366 67.625C244.549 83.5653 213.04 95.0962 186.664 69.6245C164.66 48.3747 149.774 3.50444 125.847 -27.3328C98.8216 -62.3936 64.1205 -64.0771 36.8044 -44.0236C10.498 -24.7111 -11.179 12.9488 -39.3688 29.2076C-81.1153 53.2855 -129.08 17.9936 -172.776 -9.83272C-230.516 -46.6018 -287.725 -51.7977 -336.959 -13.5467" stroke="white" stroke-opacity="0.02" stroke-width="2.66667" stroke-miterlimit="10"/>
<path d="M500.727 143.515C466.574 64.106 407.608 20.8849 355.084 30.6118C326.076 35.9845 298.516 54.9093 270.236 68.8076C239.761 83.7825 207.482 91.7075 181.967 63.0626C161.038 39.5669 148.02 -5.90444 124.914 -35.9802C98.5184 -70.5452 64.1019 -69.1467 37.7112 -47.8189C12.1018 -27.1231 -9.00555 10.5073 -36.9014 26.287C-79.2392 50.2355 -127.571 12.2579 -172.038 -14.8664C-231.649 -51.2283 -291.829 -52.3468 -342.163 -9.79349" stroke="white" stroke-opacity="0.02" stroke-width="2.66666" stroke-miterlimit="10"/>
<path d="M500.346 142.465C464.82 61.3415 403.729 17.5088 349.857 29.7083C320.79 36.2913 293.585 56.738 265.104 69.9944C234.976 84.0167 201.889 88.3537 177.273 56.5046C157.386 30.7769 146.269 -15.3102 123.986 -44.6259C98.2196 -78.6948 64.0957 -74.2036 38.6231 -51.6118C13.7166 -29.5214 -6.8289 8.06315 -34.4298 23.3689C-77.3606 47.1763 -126.055 6.53905 -171.294 -19.8976C-232.777 -55.8263 -295.927 -52.8918 -347.363 -6.03605" stroke="white" stroke-opacity="0.02" stroke-width="2.66666" stroke-miterlimit="10"/>
<path d="M499.965 141.418C463.065 58.5799 399.824 14.0792 344.625 28.8095C315.5 36.5821 288.658 58.5814 259.975 71.1816C230.192 84.2656 196.258 85.0172 172.579 49.9479C153.706 21.9947 144.52 -24.7145 123.06 -53.2692C97.9226 -86.8419 64.0964 -79.2476 39.5385 -55.4015C15.3411 -31.9067 -4.65004 5.61601 -31.9543 20.4534C-75.481 44.106 -124.534 0.835177 -170.547 -24.9269C-233.899 -60.3973 -300.021 -53.4338 -352.558 -2.27439" stroke="white" stroke-opacity="0.02" stroke-width="2.66667" stroke-miterlimit="10"/>
<path d="M499.583 140.373C461.306 55.822 395.901 10.5956 339.396 27.9125C310.192 36.8624 283.731 60.447 254.848 72.3739C225.41 84.5315 190.588 81.6842 167.887 43.3918C149.995 13.2069 142.772 -34.1167 122.136 -61.91C97.6287 -94.9858 64.1074 -84.2799 40.4544 -59.1869C16.9751 -34.2783 -2.48312 3.10155 -29.4753 17.5407C-73.6245 40.9196 -123.006 -4.85329 -169.794 -29.953C-235.016 -64.9416 -304.111 -53.971 -357.749 1.49141" stroke="white" stroke-opacity="0.02" stroke-width="2.66667" stroke-miterlimit="10"/>
<path d="M499.199 139.329C459.55 53.0646 391.956 7.06146 334.17 27.0166C304.876 37.1331 278.808 62.3292 249.72 73.5684C220.631 84.8084 184.875 78.3376 163.197 36.8377C146.254 4.3995 141.026 -43.5181 121.215 -70.5494C97.3361 -103.128 64.1293 -89.3035 41.3755 -62.9714C18.6197 -36.6391 -0.284285 0.713146 -26.992 14.6295C-71.717 37.933 -121.473 -10.529 -169.038 -34.9777C-236.127 -69.4622 -308.195 -54.5064 -362.934 5.25936" stroke="white" stroke-opacity="0.02" stroke-width="2.66667" stroke-miterlimit="10"/>
</svg>