<svg width="440" height="956" viewBox="0 0 440 956" fill="none" xmlns="http://www.w3.org/2000/svg">
<path d="M695.855 539.917C702.109 466.266 684.981 383.559 651.862 327.472C618.744 271.385 570.665 243.673 528.368 256.286C480.538 270.554 442.507 331.598 393.62 337.91C334.206 345.576 277.797 272.276 220.949 226.14C142.709 162.651 54.0382 148.91 -22.936 188.34C-83.8479 219.543 -136.103 281.684 -194.09 324.109C-252.077 366.536 -321.768 387.849 -383.427 336.479C-449.664 281.292 -490.391 156.785 -552.888 87.99C-628.514 4.74237 -731.636 24.5683 -783.087 132.248" stroke="white" stroke-opacity="0.04" stroke-width="2.66667" stroke-miterlimit="10"/>
<path d="M703.598 530.523C708.508 455.515 689.883 372.536 655.579 317.041C621.49 261.718 572.818 235.259 530.191 249.026C526.524 250.208 522.912 251.665 519.352 253.35C476.141 273.796 440.306 327.737 395.296 336.189C373.448 340.293 351.909 333.657 330.396 321.15C293.516 299.799 257.145 260.916 220.674 231.464C193.148 209.239 164.47 192.267 135.597 181.095C81.228 160.018 25.6231 159.216 -25.422 182.298C-37.9144 187.938 -50.0822 194.914 -62.041 202.875C-109.331 234.395 -152.68 281.337 -199.551 315.884C-205.456 320.236 -211.475 324.38 -217.589 328.255C-272.26 362.916 -335.261 375.651 -391.151 327.992C-455.361 273.241 -495.123 152.759 -555.493 84.8573C-628.557 2.65718 -727.79 18.6364 -778.474 119.572" stroke="white" stroke-opacity="0.04" stroke-width="2.66668" stroke-miterlimit="10"/>
<path d="M711.343 521.129C714.914 444.768 694.791 361.517 659.298 306.62C624.246 252.054 574.989 226.844 532.025 241.764C528.329 243.047 524.693 244.601 521.105 246.391C477.603 268.06 441.838 323.399 396.981 334.475C375.209 339.85 353.643 334.779 331.892 323.542C294.533 304.416 257.48 266.58 220.4 236.793C192.51 214.372 163.561 196.472 134.558 184.034C79.896 160.518 23.9355 155.842 -27.8964 176.263C-40.5951 181.242 -52.998 187.641 -65.217 195.174C-113.492 224.983 -157.552 272.433 -205 307.664C-210.979 312.102 -217.065 316.335 -223.245 320.297C-278.495 355.746 -342.539 368.648 -398.862 319.51C-461.057 265.254 -499.844 148.737 -558.085 81.7284C-628.587 0.575769 -723.931 12.7081 -773.849 106.898" stroke="white" stroke-opacity="0.04" stroke-width="2.66667" stroke-miterlimit="10"/>
<path d="M719.103 511.736C721.322 434.023 699.636 350.64 663.031 296.195C626.94 242.527 577.162 218.435 533.866 234.502C530.14 235.884 526.475 237.539 522.863 239.427C479.071 262.324 443.368 319.063 398.673 332.756C376.977 339.402 355.384 335.895 333.393 325.94C295.546 309.035 257.815 272.246 220.137 242.121C191.882 219.507 162.66 200.68 133.522 186.973C78.5683 161.019 22.2481 152.47 -30.3678 170.223C-43.2723 174.546 -55.9132 180.37 -68.3879 187.469C-117.65 215.572 -162.421 263.532 -210.449 299.44C-216.499 303.965 -222.655 308.285 -228.898 312.339C-284.727 348.576 -349.815 361.667 -406.572 311.028C-466.76 257.327 -504.562 144.714 -560.676 78.599C-628.615 -1.50643 -720.071 6.7779 -769.223 94.2233" stroke="white" stroke-opacity="0.04" stroke-width="2.66667" stroke-miterlimit="10"/>
<path d="M726.845 502.342C727.729 423.274 704.535 339.66 666.752 285.772C629.684 232.899 579.33 210.022 535.699 227.24C531.95 228.721 528.254 230.476 524.619 232.467C480.542 256.59 444.902 314.724 400.358 331.038C378.741 338.959 357.125 336.932 334.892 328.336C296.565 313.516 258.142 277.913 219.875 247.447C191.248 224.643 161.752 204.885 132.487 189.912C77.2382 161.524 20.5616 149.096 -32.8415 164.188C-45.9546 167.852 -58.826 173.102 -71.563 179.769C-121.81 206.16 -167.292 254.627 -215.898 291.216C-222.023 295.827 -228.246 300.236 -234.553 304.381C-290.959 341.409 -357.093 354.717 -414.283 302.543C-472.475 249.457 -509.281 140.692 -563.268 75.4703C-628.644 -3.58749 -716.21 0.849785 -764.597 81.5485" stroke="white" stroke-opacity="0.04" stroke-width="2.66667" stroke-miterlimit="10"/>
<path d="M734.607 492.948C734.138 412.528 709.439 328.673 670.484 275.348C632.436 223.267 581.503 201.61 537.539 219.979C533.758 221.557 530.039 223.415 526.375 225.509C482.006 250.856 446.435 310.388 402.051 329.325C380.508 338.517 358.873 338.036 336.399 330.733C297.585 318.114 258.483 283.579 219.608 252.775C190.619 229.78 160.853 209.091 131.455 192.853C75.9097 162.027 18.8804 145.724 -35.3104 158.15C-48.6285 161.157 -61.7384 165.832 -74.7312 172.064C-125.961 196.748 -172.159 245.723 -221.344 282.994C-227.541 287.69 -233.83 292.191 -240.205 296.419C-297.188 334.24 -364.368 347.795 -421.989 294.062C-478.195 241.648 -513.996 136.67 -565.855 72.3425C-628.668 -5.66789 -712.345 -5.07839 -759.965 68.8746" stroke="white" stroke-opacity="0.04" stroke-width="2.66667" stroke-miterlimit="10"/>
<path d="M742.352 483.56C740.55 401.781 714.34 317.688 674.209 264.928C635.19 213.632 583.664 193.203 539.375 212.721C535.562 214.4 531.818 216.352 528.13 218.55C483.473 245.124 447.969 306.049 403.739 327.61C382.275 338.076 360.603 339.151 337.897 333.13C298.597 322.717 258.817 289.248 219.347 258.106C189.984 234.917 159.947 213.306 130.417 195.797C74.5802 162.533 17.1921 142.357 -37.7817 152.119C-51.3058 154.466 -64.651 158.564 -77.9046 164.369C-130.119 187.34 -177.027 236.825 -226.789 274.776C-233.06 279.555 -239.419 284.145 -245.857 288.465C-303.418 327.073 -371.647 340.909 -429.695 285.584C-483.926 233.896 -518.711 132.653 -568.442 69.2187C-628.692 -7.74385 -708.479 -11.0016 -755.333 56.2048" stroke="white" stroke-opacity="0.04" stroke-width="2.66666" stroke-miterlimit="10"/>
<path d="M750.11 474.168C746.956 391.04 719.252 306.694 677.935 254.506C637.951 203.994 585.843 184.797 541.216 205.465C537.379 207.242 533.602 209.296 529.89 211.596C484.946 239.396 449.503 301.718 405.434 325.901C384.044 337.639 362.348 340.264 339.405 335.532C299.61 327.327 259.153 294.922 219.087 263.44C189.357 240.06 159.05 217.517 129.389 198.743C73.2569 163.044 15.5131 138.989 -40.2484 146.086C-53.9811 147.777 -67.5589 151.303 -81.0732 156.67C-134.271 177.933 -181.891 227.926 -232.231 266.558C-238.574 271.427 -245 276.104 -251.504 280.511C-309.644 319.908 -378.926 334.058 -437.398 277.103C-489.665 226.194 -523.421 128.636 -571.024 66.0965C-628.712 -9.81814 -704.609 -16.9242 -750.696 43.5357" stroke="white" stroke-opacity="0.04" stroke-width="2.66667" stroke-miterlimit="10"/>
<path d="M757.869 464.78C753.367 380.299 724.164 295.703 681.667 244.09C640.713 194.354 588.015 176.394 543.053 198.213C539.19 200.089 535.388 202.242 531.65 204.641C486.421 233.667 451.04 297.389 407.13 324.189C385.814 337.204 364.09 341.386 340.906 337.939C300.624 331.944 259.491 300.601 218.827 268.778C188.731 245.206 158.151 221.736 128.36 201.697C71.9348 163.555 13.8319 135.627 -42.7125 140.061C-56.6517 141.092 -70.4646 144.039 -84.2363 148.979C-138.422 168.53 -186.752 219.029 -237.67 258.343C-244.086 263.296 -250.581 268.063 -257.15 272.557C-315.866 312.745 -386.207 327.249 -445.097 268.629C-495.409 218.548 -528.128 124.624 -573.602 62.9789C-628.726 -11.8871 -700.733 -22.8415 -746.054 30.8711" stroke="white" stroke-opacity="0.04" stroke-width="2.66667" stroke-miterlimit="10"/>
<path d="M765.621 455.392C759.78 369.558 729.084 284.703 685.394 233.677C643.478 184.707 590.184 167.993 544.901 190.96C541.006 192.937 537.177 195.189 533.415 197.691C487.889 227.943 452.581 293.06 408.827 322.484C387.585 336.766 365.835 342.508 342.423 340.342C301.643 336.57 259.84 306.275 218.572 274.116C188.105 250.35 157.259 225.952 127.336 204.648C70.6184 164.068 12.1609 132.265 -45.1743 134.034C-59.3146 134.407 -73.3631 136.779 -87.3963 141.285C-142.565 159.128 -191.605 210.138 -243.102 250.128C-249.59 255.167 -256.152 260.025 -262.787 264.607C-322.079 305.586 -393.488 320.477 -452.786 260.156C-501.156 210.951 -532.825 120.613 -576.171 59.8622C-628.732 -13.9547 -696.848 -28.757 -741.402 18.2086" stroke="white" stroke-opacity="0.04" stroke-width="2.66666" stroke-miterlimit="10"/>
<path d="M773.374 446.01C766.191 358.817 734.002 273.698 689.126 223.266C646.242 175.065 592.361 159.594 546.742 183.717C542.819 185.79 538.964 188.141 535.176 190.746C489.363 222.224 454.121 288.735 410.522 320.778C389.361 336.334 367.586 343.636 343.93 342.748C302.666 341.197 260.184 311.954 218.319 279.458C187.484 255.501 156.368 230.171 126.315 207.602C69.3023 164.585 10.4899 128.907 -47.6318 128.01C-61.9801 127.728 -76.2622 129.526 -90.5506 133.598C-146.706 149.731 -196.457 201.247 -248.531 241.916C-255.093 247.042 -261.723 251.988 -268.421 256.661C-328.292 298.427 -400.779 313.747 -460.474 251.682C-506.912 203.402 -537.52 116.605 -578.737 56.7497C-628.734 -16.0181 -692.96 -34.6679 -736.746 5.55011" stroke="white" stroke-opacity="0.04" stroke-width="2.66666" stroke-miterlimit="10"/>
<path d="M781.145 436.627C772.613 348.083 738.931 262.696 692.874 212.856C649.021 165.416 594.548 151.203 548.597 176.471C544.644 178.645 540.759 181.097 536.948 183.8C490.849 216.504 455.67 284.409 412.229 319.079C391.145 335.906 369.343 344.772 345.452 345.159C303.697 345.837 260.54 317.636 218.077 284.803C186.875 260.653 155.487 234.398 125.303 210.559C67.9961 165.109 8.82792 125.553 -50.0764 121.993C-64.6301 121.05 -79.1474 122.272 -93.6982 125.912C-150.833 140.335 -201.297 192.357 -253.948 233.71C-260.583 238.919 -267.282 243.953 -274.044 248.717C-334.492 291.271 -408.068 307.07 -468.15 243.215C-512.669 195.899 -542.203 112.601 -581.292 53.6401C-628.725 -18.0782 -689.06 -40.5758 -732.079 -7.10506" stroke="white" stroke-opacity="0.04" stroke-width="2.66667" stroke-miterlimit="10"/>
<path d="M788.903 427.248C779.03 337.355 743.859 251.692 696.606 202.454C651.804 155.769 596.729 142.817 550.451 169.234C546.473 171.507 542.561 174.053 538.72 176.865C492.335 210.791 457.224 280.091 413.94 317.38C392.932 335.482 371.096 345.914 346.977 347.575C304.733 350.484 260.9 323.322 217.836 290.153C186.268 265.812 154.611 238.626 124.297 213.521C66.6957 165.635 7.17346 122.206 -52.5174 115.98C-67.2744 114.384 -82.0302 115.026 -96.8364 118.232C-154.957 130.948 -206.13 183.479 -259.359 225.509C-266.066 230.805 -272.832 235.929 -279.661 240.776C-340.684 284.12 -415.362 300.451 -475.815 234.754C-518.427 188.444 -546.875 108.604 -583.835 50.5393C-628.705 -20.1293 -685.148 -46.4733 -727.4 -19.7517" stroke="white" stroke-opacity="0.04" stroke-width="2.66667" stroke-miterlimit="10"/>
<path d="M796.662 417.876C785.444 326.631 748.786 240.69 700.342 192.061C654.578 146.124 598.909 134.438 552.299 162.006C548.295 164.374 544.352 167.025 540.494 169.937C493.82 205.089 458.77 275.783 415.652 315.69C394.715 335.064 372.856 347.064 348.5 349.996C305.763 355.138 261.258 329.014 217.6 295.507C185.662 270.974 153.732 242.862 123.29 216.492C65.3978 166.169 5.51861 118.868 -54.9528 109.979C-69.919 107.724 -84.905 107.792 -99.9726 110.566C-159.076 121.569 -210.958 174.605 -264.763 217.313C-271.543 222.696 -278.377 227.907 -285.269 232.845C-346.869 276.975 -422.667 293.891 -483.473 226.296C-524.189 181.036 -551.538 104.616 -586.369 47.4471C-628.674 -22.1696 -681.227 -52.3615 -722.71 -32.3863" stroke="white" stroke-opacity="0.04" stroke-width="2.66666" stroke-miterlimit="10"/>
<path d="M804.418 408.506C791.857 315.915 753.717 229.689 704.082 181.675C657.356 136.485 601.098 126.066 554.151 154.784C550.114 157.253 546.153 160.001 542.262 163.014C495.304 199.391 460.324 271.478 417.359 314.005C396.5 334.652 374.618 348.219 350.023 352.419C306.804 359.802 261.621 334.71 217.366 300.868C185.062 276.144 152.865 247.105 122.289 219.469C64.1077 166.714 3.87325 115.533 -57.3827 103.982C-72.5527 101.071 -87.773 100.562 -103.099 102.903C-163.187 112.198 -215.776 165.741 -270.158 209.124C-277.011 214.593 -283.911 219.895 -290.868 224.921C-353.043 269.839 -429.983 287.395 -491.118 217.848C-529.952 173.67 -556.19 100.634 -588.892 44.3627C-628.632 -24.2033 -677.293 -58.2404 -718.008 -45.0131" stroke="white" stroke-opacity="0.04" stroke-width="2.66666" stroke-miterlimit="10"/>
<path d="M812.191 399.139C798.284 305.199 758.655 218.684 707.829 171.292C660.151 126.839 603.292 117.701 556.018 147.564C551.955 150.132 547.961 152.982 544.051 156.095C496.803 193.693 461.887 267.176 419.085 312.321C398.305 334.234 376.397 349.376 351.563 354.844C307.858 364.466 261.997 340.406 217.146 306.228C184.477 281.313 152.007 251.346 121.307 222.448C62.831 167.254 2.24377 112.203 -59.7954 97.9901C-75.1747 94.4193 -90.6293 93.3343 -106.212 95.2454C-167.281 102.829 -220.58 156.875 -275.536 200.94C-282.463 206.49 -289.431 211.881 -296.452 216.997C-359.201 262.702 -437.309 280.968 -498.748 209.399C-535.712 166.34 -560.825 96.6536 -591.398 41.2795C-628.574 -26.235 -673.343 -64.1176 -713.29 -57.6377" stroke="white" stroke-opacity="0.04" stroke-width="2.66666" stroke-miterlimit="10"/>
<path d="M819.957 389.773C804.706 294.488 763.595 207.676 711.57 160.913C662.94 117.193 605.484 109.335 557.879 140.347C553.79 143.014 549.769 145.962 545.834 149.175C498.302 188.002 463.447 262.872 420.803 310.638C400.103 333.823 378.185 350.618 353.104 357.271C308.936 369.28 262.377 346.105 216.926 311.589C183.889 286.48 151.153 255.59 120.319 225.426C61.5531 167.797 0.61059 108.874 -62.2112 91.9967C-77.7938 87.7699 -93.4815 86.1115 -109.324 87.5866C-171.372 93.4616 -225.384 148.012 -280.915 192.754C-287.913 198.393 -294.95 203.869 -302.036 209.072C-365.36 255.565 -444.663 274.621 -506.377 200.954C-541.486 159.044 -565.46 92.6752 -593.904 38.1978C-628.515 -28.2638 -669.393 -69.9918 -708.571 -70.2583" stroke="white" stroke-opacity="0.04" stroke-width="2.66666" stroke-miterlimit="10"/>
<path d="M827.718 380.41C811.128 283.772 768.531 196.662 715.31 150.527C665.729 107.539 607.674 100.965 559.742 133.126C555.62 135.894 551.579 138.939 547.618 142.255C499.796 182.303 465.013 258.567 422.527 308.948C401.904 333.408 379.957 351.763 354.641 359.694C309.986 373.925 262.749 351.799 216.702 316.946C183.299 291.647 150.291 259.829 119.328 228.4C60.27 168.341 -1.02373 105.543 -64.6291 86.0038C-80.4172 81.1169 -96.3427 78.8835 -112.441 79.9286C-175.472 84.0922 -230.191 139.149 -286.299 184.567C-293.369 190.291 -300.473 195.858 -307.624 201.149C-371.523 248.427 -452.057 268.353 -514.01 192.505C-547.279 151.775 -570.1 88.6937 -596.415 35.1137C-628.462 -30.2967 -665.449 -75.8697 -703.86 -82.8817" stroke="white" stroke-opacity="0.04" stroke-width="2.66667" stroke-miterlimit="10"/>
<path d="M835.49 371.041C817.549 273.058 773.5 185.497 719.06 140.142C668.554 97.7461 609.864 92.5966 561.602 125.91C557.451 128.774 553.382 131.916 549.396 135.338C501.288 176.606 466.577 254.262 424.246 307.264C403.704 332.992 381.731 352.91 356.177 362.113C311.039 378.568 263.124 357.49 216.479 322.298C182.712 296.812 149.434 264.064 118.343 231.373C58.9918 168.879 -2.65889 102.212 -67.0449 80.007C-83.0407 74.4646 -99.1969 71.6557 -115.557 72.2687C-179.569 74.7221 -234.996 130.283 -291.679 176.378C-298.822 182.188 -305.994 187.844 -313.208 193.225C-377.683 241.288 -459.492 262.179 -521.64 184.056C-553.084 144.532 -574.736 84.7118 -598.922 32.029C-628.406 -32.3303 -661.502 -81.7479 -699.145 -95.5047" stroke="white" stroke-opacity="0.04" stroke-width="2.66666" stroke-miterlimit="10"/>
<path d="M843.251 361.675C823.975 262.344 778.435 174.515 722.802 129.761C671.333 88.126 612.062 84.2308 563.469 118.689C559.291 121.652 555.187 124.896 551.181 128.415C502.785 170.912 468.145 249.956 425.97 305.575C405.507 332.576 383.509 354.052 357.713 364.536C312.095 383.215 263.5 363.182 216.262 327.653C182.125 301.974 148.577 268.305 117.356 234.345C57.7143 169.417 -4.28877 98.8799 -69.4588 74.0147C-85.6598 67.8132 -102.05 64.4272 -118.667 64.6086C-183.664 65.3534 -239.799 121.419 -297.057 168.194C-304.274 174.086 -311.512 179.833 -318.793 185.298C-383.841 234.153 -466.977 256.107 -529.27 175.608C-558.905 137.312 -579.372 80.73 -601.43 28.943C-628.35 -34.3651 -657.556 -87.6264 -694.43 -108.127" stroke="white" stroke-opacity="0.04" stroke-width="2.66667" stroke-miterlimit="10"/>
<path d="M851.016 352.307C830.397 251.627 783.363 163.53 726.551 119.374C674.12 78.499 614.258 75.857 565.333 111.464C561.126 114.524 557.003 117.868 552.971 121.491C504.287 165.208 469.707 245.649 427.698 303.884C407.304 332.157 385.284 355.195 359.252 366.954C313.15 387.852 263.88 368.867 216.042 333.003C181.54 307.134 147.723 272.535 116.37 237.313C56.4379 169.95 -5.91735 95.5421 -71.8725 68.0138C-88.2775 61.1563 -104.905 57.1965 -121.781 56.9449C-187.758 55.9799 -244.601 112.551 -302.435 160.002C-309.724 165.98 -317.03 171.815 -324.375 177.37C-389.998 227.01 -474.52 250.154 -536.897 167.156C-564.741 130.108 -584.006 76.7432 -603.935 25.853C-628.292 -36.4034 -653.608 -93.5089 -689.715 -120.754" stroke="white" stroke-opacity="0.04" stroke-width="2.66667" stroke-miterlimit="10"/>
<path d="M858.793 342.934C836.827 240.909 788.295 152.546 730.305 108.987C672.312 65.4251 606.011 67.5311 554.758 114.567C482.017 181.324 441.173 329.479 360.8 369.369C280.668 409.133 190.601 327.446 115.39 240.278C40.1758 153.111 -38.9177 52.7123 -124.888 49.2798C-200.287 46.2697 -263.757 119.017 -329.954 169.443C-396.152 219.868 -482.135 244.333 -544.522 158.705C-602.512 79.1125 -620.795 -71.6313 -684.999 -133.38" stroke="white" stroke-opacity="0.04" stroke-width="2.66667" stroke-miterlimit="10"/>
<path d="M857.997 340.797C833.247 235.297 780.288 147.979 719.686 107.124C661.411 67.8288 595.955 71.0359 544.331 116.922C472.238 181.597 429.78 321.614 351.233 356.096C273.171 390.367 186.978 308.423 113.423 222.787C39.4765 136.614 -39.0643 42.309 -123.148 41.5781C-197.157 41.2468 -259.439 114.144 -325.07 163.519C-392.44 213.795 -478.896 231.83 -543.154 148.507C-604.63 68.7902 -629.226 -72.7854 -695.66 -125.845" stroke="white" stroke-opacity="0.04" stroke-width="2.66666" stroke-miterlimit="10"/>
<path d="M857.196 338.656C829.666 229.68 772.368 143.335 709.072 105.252C650.589 70.0659 585.796 74.2236 533.905 119.275C462.308 181.434 418.412 313.741 341.664 342.817C265.688 371.597 183.349 289.386 111.456 205.28C38.7789 120.105 -39.2331 31.5507 -121.405 33.8662C-194.055 35.9128 -255.033 109.564 -320.187 157.585C-388.634 208.033 -475.72 219.397 -541.788 138.302C-606.802 58.4995 -637.664 -73.945 -706.329 -118.314" stroke="white" stroke-opacity="0.04" stroke-width="2.66666" stroke-miterlimit="10"/>
<path d="M856.413 336.509C826.097 224.055 764.525 138.592 698.461 103.377C639.84 72.1286 575.7 77.5794 523.478 121.628C452.474 181.513 407.066 305.877 332.1 329.527C258.236 352.833 179.728 270.337 109.495 187.764C38.0848 103.583 -39.3881 20.9761 -119.654 26.1473C-190.933 30.7391 -250.671 104.801 -315.294 151.648C-384.873 202.091 -472.586 207.033 -540.414 128.088C-609.01 48.2499 -646.097 -75.1104 -716.993 -110.784" stroke="white" stroke-opacity="0.04" stroke-width="2.66667" stroke-miterlimit="10"/>
<path d="M855.632 334.363C822.531 218.43 756.742 133.74 687.851 101.499C629.147 74.0229 565.614 80.9477 513.06 123.972C442.658 181.61 395.747 298.02 322.538 316.234C250.807 334.079 176.111 251.285 107.54 170.238C37.4003 87.055 -39.5407 10.4102 -117.898 18.4235C-187.809 25.5736 -246.311 100.014 -310.396 145.707C-381.113 196.131 -469.489 194.737 -539.035 117.869C-611.251 38.0497 -654.528 -76.2774 -727.657 -103.253" stroke="white" stroke-opacity="0.04" stroke-width="2.66667" stroke-miterlimit="10"/>
<path d="M854.849 332.209C818.959 212.797 748.998 128.762 677.229 99.6203C618.485 75.7613 555.531 84.3257 502.628 126.323C432.831 181.73 384.448 290.183 312.969 302.935C243.4 315.343 172.494 232.218 105.584 152.704C36.71 70.5168 -39.6951 -0.146513 -116.144 10.6967C-184.689 20.4181 -241.954 95.2069 -305.494 139.762C-377.356 190.151 -466.426 182.509 -537.654 107.646C-613.524 27.9036 -662.959 -77.4447 -738.322 -95.7189" stroke="white" stroke-opacity="0.04" stroke-width="2.66666" stroke-miterlimit="10"/>
<path d="M854.062 330.054C815.392 207.157 741.299 123.643 666.618 97.7324C607.855 77.3483 545.452 87.7149 492.21 128.665C423.024 181.865 373.176 282.363 303.403 289.621C236.02 296.633 168.878 213.138 103.631 135.161C36.0285 53.9683 -39.8493 -10.696 -114.384 2.95938C-181.563 15.2676 -237.598 90.3761 -300.59 133.808C-373.599 184.149 -463.387 170.34 -536.27 97.4124C-615.823 17.8104 -671.39 -78.6194 -748.987 -88.1882" stroke="white" stroke-opacity="0.04" stroke-width="2.66667" stroke-miterlimit="10"/>
<path d="M853.283 327.896C811.828 201.514 733.629 118.374 656.002 95.8453C597.251 78.7918 535.378 91.1212 481.781 131.008C413.231 182.025 361.935 274.58 293.841 276.306C228.667 277.957 165.267 194.056 101.683 117.608C35.3522 37.4136 -39.9995 -21.2324 -112.617 -4.78094C-178.433 10.1293 -233.241 85.5261 -295.677 127.853C-369.841 178.13 -460.365 158.232 -534.879 87.1749C-618.141 7.77712 -679.819 -79.7943 -759.652 -80.6535" stroke="white" stroke-opacity="0.04" stroke-width="2.66667" stroke-miterlimit="10"/>
<path d="M852.512 325.731C808.259 195.867 725.964 112.956 645.389 93.9539C586.652 80.1034 525.307 94.541 471.351 133.352C403.433 182.204 350.722 266.838 284.276 262.983C221.341 259.329 161.654 174.959 99.7372 100.045C34.6734 20.8478 -40.1441 -31.7566 -110.851 -12.526C-175.301 5.00379 -228.885 80.6555 -290.762 121.893C-366.084 172.092 -457.359 146.178 -533.486 76.9318C-620.477 -2.19639 -688.247 -80.9707 -770.315 -73.1176" stroke="white" stroke-opacity="0.04" stroke-width="2.66667" stroke-miterlimit="10"/>
<path d="M851.718 323.571C804.684 190.219 717.865 122.646 634.754 92.0669C576.35 70.5774 515.233 97.9824 460.913 135.701C393.64 182.409 339.273 251.708 274.703 249.654C214.27 247.732 158.039 155.856 97.7826 82.4786C33.9938 4.27945 -40.2956 -42.2626 -109.085 -20.2713C-172.169 -0.105585 -224.535 75.7713 -285.847 115.933C-362.334 166.035 -454.37 134.179 -532.093 66.6882C-622.832 -12.1047 -696.679 -82.1442 -780.983 -65.5748" stroke="white" stroke-opacity="0.04" stroke-width="2.66666" stroke-miterlimit="10"/>
<path d="M850.944 321.4C801.116 184.562 710.474 117.255 624.134 90.1701C565.562 71.7919 505.175 101.432 450.481 138.039C383.856 182.633 328.351 251.544 265.134 236.316C206.748 222.254 154.429 136.745 95.838 64.8966C33.3183 -12.3026 -40.4396 -52.7584 -107.312 -28.0282C-169.033 -5.20349 -220.183 70.8616 -280.926 109.964C-358.581 159.953 -451.385 122.223 -530.696 56.4328C-625.196 -21.9587 -705.108 -83.3251 -791.65 -58.0354" stroke="white" stroke-opacity="0.04" stroke-width="2.66667" stroke-miterlimit="10"/>
<path d="M850.169 319.234C797.558 178.909 703.084 111.396 613.515 88.2763C554.773 73.1069 495.12 104.907 440.055 140.385C374.089 182.883 317.208 244.013 255.574 222.977C199.488 203.829 150.828 117.623 93.9016 47.3151C32.6564 -28.8897 -40.5671 -63.2348 -105.531 -35.784C-165.88 -10.2828 -215.82 65.9389 -275.992 103.996C-354.821 153.853 -448.396 110.315 -529.285 46.1753C-627.559 -31.7494 -713.527 -84.5033 -802.308 -50.4896" stroke="white" stroke-opacity="0.04" stroke-width="2.66667" stroke-miterlimit="10"/>
<path d="M849.388 317.07C793.989 173.256 695.663 105.072 602.887 86.389C543.982 74.5229 485.071 108.411 429.617 142.74C364.324 183.162 306.06 236.586 246.009 209.632C192.233 185.499 147.225 98.5007 91.9681 29.7295C31.9933 -45.4736 -40.6884 -73.6839 -103.742 -43.5352C-162.719 -15.3353 -211.457 61.008 -271.049 98.0302C-351.057 147.737 -445.402 98.4553 -527.863 35.9217C-629.921 -41.4721 -721.936 -85.6715 -812.954 -42.9325" stroke="white" stroke-opacity="0.04" stroke-width="2.66666" stroke-miterlimit="10"/>
<path d="M848.609 314.912C790.415 167.613 687.579 83.4958 592.267 84.512C533.585 85.1365 475.024 111.949 419.183 145.103C354.561 183.477 294.918 229.274 236.449 196.298C184.979 167.273 143.635 79.387 90.0431 12.1509C31.3427 -62.0507 -40.7976 -84.0997 -101.942 -51.2751C-159.541 -20.3543 -207.083 56.0723 -266.094 92.0747C-347.284 141.611 -442.398 86.6472 -526.427 25.677C-632.274 -51.1225 -730.33 -86.8265 -823.586 -35.3584" stroke="white" stroke-opacity="0.04" stroke-width="2.66667" stroke-miterlimit="10"/>
<path d="M847.835 312.759C786.853 161.972 679.846 77.1554 581.645 82.6425C522.943 85.9205 464.992 115.515 408.764 147.474C344.814 183.82 283.769 222.076 226.9 182.959C177.725 149.14 140.054 60.2685 88.1292 -5.42671C30.7033 -78.6252 -40.8823 -94.4888 -100.129 -59.0103C-156.338 -25.3489 -202.696 51.1273 -261.119 86.1216C-343.497 135.464 -439.375 74.8782 -524.97 15.4336C-634.611 -60.7108 -738.705 -87.9758 -834.198 -27.7759" stroke="white" stroke-opacity="0.04" stroke-width="2.66667" stroke-miterlimit="10"/>
<path d="M847.06 310.612C783.29 156.341 672.074 70.6828 571.022 80.787C512.272 86.6625 454.963 119.122 398.341 149.86C335.081 184.199 272.593 214.996 217.357 169.632C170.449 131.111 136.481 41.1583 86.2274 -22.9936C30.0786 -95.1877 -40.9504 -104.841 -98.2996 -66.7323C-153.115 -30.3063 -198.295 46.1827 -256.128 80.1801C-339.697 129.307 -436.334 63.157 -523.492 5.20237C-636.931 -70.2277 -747.059 -89.1085 -844.788 -20.1759" stroke="white" stroke-opacity="0.04" stroke-width="2.66666" stroke-miterlimit="10"/>
<path d="M846.284 308.47C779.725 150.714 664.271 64.0755 560.404 78.9339C501.59 87.3464 444.939 122.755 387.921 152.245C325.349 184.611 261.37 208.024 207.817 156.305C163.138 113.159 132.913 22.0518 84.3297 -40.5616C29.4568 -111.751 -41.0021 -115.169 -96.4661 -74.4514C-149.88 -35.2384 -193.894 41.2281 -251.132 74.2408C-335.896 123.13 -433.286 51.4714 -522.008 -5.02862C-639.247 -79.6863 -755.407 -90.2364 -855.373 -12.5697" stroke="white" stroke-opacity="0.04" stroke-width="2.66667" stroke-miterlimit="10"/>
<path d="M845.504 306.335C776.159 145.1 656.43 57.3413 549.784 77.0914C490.883 88.0004 434.925 126.426 377.504 154.646C315.625 185.052 250.085 201.143 198.278 142.981C155.783 95.2741 129.351 2.94702 82.4354 -58.1203C28.8403 -128.303 -41.0407 -125.463 -94.6256 -82.158C-146.624 -40.1363 -189.482 36.2701 -246.123 68.3101C-332.087 116.936 -430.222 39.8247 -520.511 -15.2498C-641.548 -89.0808 -763.739 -91.3518 -865.942 -4.94949" stroke="white" stroke-opacity="0.04" stroke-width="2.66666" stroke-miterlimit="10"/>
<path d="M844.73 304.205C772.596 139.488 648.554 50.4877 539.169 75.2581C480.15 88.6246 424.913 130.14 367.084 157.057C305.91 185.528 238.729 194.335 188.747 129.667C148.368 77.428 125.795 -16.1495 80.5516 -75.6736C28.2336 -144.849 -41.0534 -135.73 -92.7741 -89.8581C-143.345 -45.0047 -185.062 31.3088 -241.104 62.3863C-328.273 110.726 -427.145 28.2142 -519.001 -25.464C-643.838 -98.4155 -772.06 -92.4571 -876.5 2.6811" stroke="white" stroke-opacity="0.04" stroke-width="2.66666" stroke-miterlimit="10"/>
<path d="M843.954 302.078C769.031 133.88 640.623 43.5234 528.545 73.4325C469.408 89.2145 414.907 133.883 356.668 159.467C296.195 186.033 227.294 187.559 179.214 116.353C140.893 59.5954 122.241 -35.2452 78.668 -93.2241C27.6285 -161.392 -41.054 -145.972 -90.9175 -97.5536C-140.049 -49.8485 -180.64 26.3394 -236.08 56.466C-324.459 104.491 -424.058 16.6322 -517.485 -35.6765C-646.119 -107.697 -780.376 -93.5582 -887.05 10.3184" stroke="white" stroke-opacity="0.04" stroke-width="2.66667" stroke-miterlimit="10"/>
<path d="M843.183 299.957C765.465 128.28 632.662 36.4503 517.932 71.6115C458.635 89.7838 404.906 137.671 346.261 161.888C286.49 186.574 215.784 180.792 169.692 103.041C133.363 41.7525 118.696 -54.3356 76.7969 -110.768C27.0356 -177.927 -41.0276 -156.189 -89.0538 -105.239C-136.727 -54.6637 -176.236 21.2341 -231.042 50.552C-320.685 98.0218 -420.953 5.08224 -515.953 -45.8815C-648.383 -116.924 -788.676 -94.6488 -897.585 17.9648" stroke="white" stroke-opacity="0.04" stroke-width="2.66667" stroke-miterlimit="10"/>
<path d="M842.405 297.839C761.899 122.684 624.653 29.2769 507.322 69.7949C447.841 90.3359 394.912 141.495 335.85 164.316C276.786 187.138 204.186 174 160.17 89.7361C125.767 23.872 115.153 -73.4222 74.9272 -128.308C26.4422 -194.457 -40.9824 -166.387 -87.1829 -112.921C-133.387 -59.4547 -171.771 16.387 -226 44.6434C-316.811 91.9601 -417.837 -6.43952 -514.416 -56.0815C-650.638 -126.1 -796.968 -95.7334 -908.112 25.6179" stroke="white" stroke-opacity="0.04" stroke-width="2.66667" stroke-miterlimit="10"/>
</svg>
