<svg width="225" height="220" viewBox="0 0 225 220" fill="none" xmlns="http://www.w3.org/2000/svg">
<rect width="225" height="220" rx="15" fill="#145CC0"/>
<path d="M121.171 130.589C127.912 130.589 133.376 136.053 133.376 142.794C133.376 149.535 127.912 155 121.171 155C114.43 155 108.965 149.535 108.965 142.794C108.965 136.053 114.43 130.589 121.171 130.589ZM108.102 65C110.357 65.0611 111.536 66.1609 112.098 67.3223C112.588 68.3374 113.472 69.3154 114.6 69.3154H134.218C134.313 69.3154 134.41 69.3218 134.505 69.3359C142.542 70.537 147.928 74.7185 150.106 77.1768C150.462 77.5775 150.935 77.8615 151.465 77.9395C154.493 78.385 157.962 79.0738 159.946 79.4971C160.459 79.6065 160.905 79.9177 161.19 80.3574L163.145 83.3701C163.496 83.9114 164.109 84.2015 164.704 84.4512C166.085 85.0308 166.543 86.5696 166.577 86.9434L166.54 101.616C166.54 102.602 165.636 102.849 165.184 102.85H160.499C159.513 102.751 159.266 101.986 159.266 101.616L159.02 87.0684C159.02 86.5649 159.071 86.152 159.158 85.8154C159.373 84.9861 160.009 83.1579 159.543 82.4395C159.371 82.1743 159.075 82.0139 158.759 82.0137H156.215C154.728 82.0137 153.686 83.6189 154.068 85.0557C154.304 85.9428 154.468 86.7551 154.557 87.2881C154.573 87.3884 154.581 87.4892 154.581 87.5908V141.068C154.486 143.721 151.881 144.918 150.438 145.227C150.324 145.251 150.207 145.26 150.091 145.26H138.921C137.735 145.26 136.821 144.232 136.823 143.047C136.847 132.252 128.309 127.947 123.759 127.137C109.208 125.629 105.538 136.047 105.427 143.061C105.408 144.241 104.489 145.26 103.308 145.26H83.5039C82.7816 145.26 82.1149 144.87 81.7607 144.24L58.1807 102.319C58.0123 102.02 57.9238 101.682 57.9238 101.339V71.4385C57.9238 70.3339 58.8193 69.4385 59.9238 69.4385H71.1475C72.2763 69.4383 73.1158 68.4627 73.5361 67.415C74.1589 65.8628 75.5276 65.1936 76.4004 65.0234C76.4932 65.0054 76.5881 65 76.6826 65H108.102ZM134.469 73.6504C133.913 73.5128 133.251 73.5697 133.163 74.1348C133.142 74.2678 133.13 74.427 133.13 74.6162V103.278C133.13 105.207 133.915 107.076 135.521 108.144C138.801 110.323 143.467 112.468 146.075 113.082C147.637 113.369 150.464 112.243 150.267 108.891V87.3154C149.938 84.4387 147.776 78.1914 141.76 76.2188C139.884 75.4686 136.266 74.0961 134.469 73.6504ZM64.2832 99.0762C64.2832 99.6285 64.7309 100.076 65.2832 100.076H91.9385C92.4906 100.076 92.9385 99.6283 92.9385 99.0762V88.0273C92.9385 84.1614 89.8045 81.0273 85.9385 81.0273H71.2832C67.4172 81.0273 64.2832 84.1614 64.2832 88.0273V99.0762ZM98.9512 98.6523C98.9512 99.2044 99.3991 99.6521 99.9512 99.6523H126.607C127.159 99.652 127.607 99.2044 127.607 98.6523V88.0273C127.607 84.1614 124.473 81.0273 120.607 81.0273H105.951C102.085 81.0273 98.9512 84.1614 98.9512 88.0273V98.6523ZM65.2832 73.8086C64.7311 73.8086 64.2835 74.2566 64.2832 74.8086C64.2832 76.8813 65.9634 78.5615 68.0361 78.5615H89.1855C91.2582 78.5615 92.9385 76.8813 92.9385 74.8086C92.9381 74.2567 92.4904 73.8088 91.9385 73.8086H65.2832ZM99.9512 73.3848C99.3992 73.385 98.9513 73.8327 98.9512 74.3848C98.9512 76.6915 100.821 78.5615 103.128 78.5615H123.431C125.737 78.5615 127.607 76.6915 127.607 74.3848C127.607 73.8328 127.159 73.3851 126.607 73.3848H99.9512Z" fill="white"/>
</svg>