<svg width="440" height="956" viewBox="0 0 440 956" fill="none" xmlns="http://www.w3.org/2000/svg">
<g clip-path="url(#clip0_196_3968)">
<!-- <rect width="440" height="956" fill="url(#paint0_linear_196_3968)"/> -->
<path d="M491.115 1263.68C519.413 1210.71 533.159 1143.47 526.429 1090.97C519.698 1038.48 492.697 1002.37 457.074 998.212C416.789 993.519 368.814 1026.89 330.293 1015.92C283.479 1002.58 264.884 929.762 237.246 877.083C199.206 804.585 137.418 765.88 67.3048 770.621C11.8216 774.374 -47.1244 804 -104.024 817.069C-160.925 830.139 -219.789 823.692 -249.339 765.561C-281.083 703.113 -271.543 597.098 -296.128 525.69C-325.879 439.281 -409.223 420.999 -482.178 484.879" stroke="white" stroke-opacity="0.03" stroke-width="2.66667" stroke-miterlimit="10"/>
<path d="M499.915 1259.16C527.644 1204.74 540.361 1136.82 532.555 1084.38C524.855 1032.15 497.009 996.778 460.769 993.38C457.652 993.086 454.488 993.015 451.29 993.131C412.472 994.532 368.415 1023.3 332.103 1015.17C314.476 1011.23 300.525 999.365 288.477 983.126C267.795 955.355 253.116 914.659 235.338 880.972C221.919 855.549 205.955 833.679 187.985 816.075C154.158 782.898 112.905 764.461 67.3928 765.316C56.2575 765.519 44.9357 766.823 33.4541 768.93C-11.9614 777.29 -59.3827 798.426 -105.457 809.179C-111.262 810.534 -117.084 811.697 -122.892 812.628C-174.825 820.965 -225.943 810.26 -252.377 756.75C-282.747 695.278 -273.778 592.578 -297.062 522.519C-325.236 437.714 -404.443 417.807 -474.662 476.899" stroke="white" stroke-opacity="0.03" stroke-width="2.66668" stroke-miterlimit="10"/>
<path d="M508.709 1254.63C535.873 1198.77 547.558 1130.16 538.673 1077.79C530.012 1025.81 501.327 991.19 464.467 988.545C461.296 988.316 458.083 988.311 454.83 988.495C415.403 990.716 370.949 1020.55 333.909 1014.43C315.931 1011.46 301.458 1000.76 288.825 985.39C267.071 959.125 251.548 918.993 233.423 884.86C219.795 859.174 203.926 836.524 186.264 817.934C153.002 782.842 112.726 761.398 67.4803 760.015C56.4029 759.658 45.0906 760.456 33.552 762.16C-12.0497 768.926 -60.1649 790.213 -106.889 801.292C-112.776 802.688 -118.678 803.895 -124.563 804.87C-177.181 813.609 -229.131 802.695 -255.414 747.942C-284.438 687.485 -276.013 588.058 -297.996 519.349C-324.592 436.148 -399.662 414.617 -467.146 468.919" stroke="white" stroke-opacity="0.03" stroke-width="2.66667" stroke-miterlimit="10"/>
<path d="M517.512 1250.1C544.101 1192.8 554.662 1123.59 544.802 1071.21C535.077 1019.56 505.645 985.608 468.168 983.712C464.943 983.549 461.676 983.609 458.374 983.86C418.336 986.904 373.48 1017.81 335.72 1013.69C317.391 1011.69 302.397 1002.15 289.174 987.659C266.343 962.898 249.978 923.328 231.515 888.751C217.676 862.804 201.901 839.375 184.546 819.794C151.847 782.789 112.545 758.338 67.5701 754.712C56.5496 753.799 45.2443 754.091 33.654 755.389C-12.1373 760.564 -60.9468 782.005 -108.321 793.403C-114.29 794.84 -120.271 796.091 -126.232 797.114C-179.536 806.256 -232.326 795.147 -258.451 739.136C-286.155 679.736 -278.248 583.54 -298.929 516.18C-323.948 434.583 -394.88 411.427 -459.628 460.939" stroke="white" stroke-opacity="0.03" stroke-width="2.66667" stroke-miterlimit="10"/>
<path d="M526.306 1245.58C552.332 1186.83 561.841 1116.97 550.923 1064.62C540.213 1013.26 509.962 980.024 471.866 978.881C468.592 978.783 465.27 978.908 461.918 979.228C421.274 983.096 376.016 1015.06 337.529 1012.95C318.85 1011.93 303.363 1003.48 289.523 989.93C265.666 966.571 248.403 927.665 229.61 892.645C215.554 866.436 199.874 842.224 182.83 821.658C150.692 782.74 112.368 755.28 67.6591 749.414C56.6944 747.942 45.4011 747.732 33.7536 748.623C-12.2239 752.205 -61.727 773.795 -109.751 785.517C-115.803 786.994 -121.863 788.289 -127.902 789.36C-181.89 798.907 -235.53 787.625 -261.486 730.328C-287.898 672.029 -280.481 579.024 -299.86 513.014C-323.303 433.021 -390.097 408.241 -452.109 452.962" stroke="white" stroke-opacity="0.03" stroke-width="2.66667" stroke-miterlimit="10"/>
<path d="M535.112 1241.05C560.562 1180.87 569.026 1110.34 557.051 1058.04C545.356 1006.95 514.281 974.44 475.567 974.05C472.238 974.014 468.866 974.208 465.458 974.597C424.204 979.285 378.55 1012.32 339.341 1012.21C320.309 1012.16 304.312 1004.86 289.878 992.202C264.95 970.33 246.839 932.004 227.699 896.535C213.435 870.069 197.851 845.075 181.114 823.521C149.537 782.689 112.193 752.222 67.7515 744.113C56.8442 742.086 45.5574 741.37 33.8584 741.854C-12.3053 743.846 -62.5053 765.586 -111.18 777.631C-117.313 779.149 -123.453 780.491 -129.568 781.603C-184.241 791.556 -238.742 780.123 -264.52 721.524C-289.664 664.364 -282.712 574.508 -300.789 509.849C-322.655 431.46 -385.312 405.055 -444.587 444.986" stroke="white" stroke-opacity="0.03" stroke-width="2.66667" stroke-miterlimit="10"/>
<path d="M543.908 1236.53C568.799 1174.9 576.211 1103.71 563.177 1051.45C550.505 1000.64 518.593 968.859 479.268 969.222C475.883 969.252 472.461 969.508 469.003 969.965C427.14 975.477 381.089 1009.57 341.153 1011.48C321.772 1012.4 305.248 1006.25 290.229 994.474C264.231 974.092 245.271 936.345 225.796 900.433C211.315 873.702 195.825 847.932 179.397 825.388C148.384 782.642 112.015 749.168 67.843 738.82C56.9939 736.233 45.7165 735.011 33.96 735.093C-12.3894 735.49 -63.2834 757.384 -112.608 769.751C-118.822 771.307 -125.042 772.693 -131.234 773.853C-186.592 784.209 -241.965 772.649 -267.551 712.724C-291.454 656.739 -284.942 569.998 -301.717 506.688C-322.005 429.904 -380.524 401.875 -437.062 437.015" stroke="white" stroke-opacity="0.03" stroke-width="2.66666" stroke-miterlimit="10"/>
<path d="M552.714 1232.01C577.027 1168.94 583.405 1097.08 569.304 1044.87C555.659 994.33 522.917 963.282 482.972 964.394C479.536 964.49 476.058 964.811 472.549 965.337C430.078 971.673 383.625 1006.83 342.968 1010.74C323.234 1012.64 306.195 1007.64 290.585 996.75C263.509 977.858 243.702 940.687 223.891 904.331C209.198 877.339 193.805 850.786 177.685 827.256C147.233 782.597 111.843 746.114 67.938 733.523C57.1435 730.38 45.8763 728.656 34.0655 728.327C-12.4702 727.134 -64.0581 749.179 -114.033 761.869C-120.33 763.468 -126.628 764.898 -132.897 766.102C-188.939 776.861 -245.2 765.198 -270.58 703.921C-293.266 649.147 -287.169 565.487 -302.642 503.528C-321.353 428.348 -375.733 398.694 -429.535 429.044" stroke="white" stroke-opacity="0.03" stroke-width="2.66667" stroke-miterlimit="10"/>
<path d="M561.519 1227.49C585.261 1162.98 590.6 1090.45 575.433 1038.29C560.815 988.02 527.237 957.705 486.671 959.569C483.185 959.731 479.656 960.118 476.096 960.71C433.019 967.869 386.163 1004.09 344.785 1010.01C324.696 1012.89 307.137 1009.04 290.935 999.028C262.786 981.63 242.134 945.035 221.986 908.232C207.081 880.979 191.782 853.648 175.971 829.131C146.084 782.555 111.668 743.065 68.0334 728.235C57.2965 724.532 46.039 722.302 34.1733 721.571C-12.5505 718.783 -64.8311 740.978 -115.456 753.991C-121.834 755.63 -128.212 757.105 -134.558 758.353C-191.285 769.518 -248.45 757.779 -273.607 695.125C-295.1 641.596 -289.393 560.982 -303.565 500.373C-320.699 426.798 -370.94 395.52 -422.005 421.078" stroke="white" stroke-opacity="0.03" stroke-width="2.66667" stroke-miterlimit="10"/>
<path d="M570.317 1222.97C593.493 1157.01 597.8 1083.82 581.554 1031.71C565.973 981.705 531.549 952.13 490.376 954.748C486.833 954.974 483.253 955.427 479.641 956.088C435.949 964.067 388.701 1001.35 346.597 1009.28C326.157 1013.13 308.078 1010.44 291.295 1001.31C262.062 985.41 240.573 949.383 220.082 912.136C204.962 884.619 189.762 856.509 174.258 831.005C144.935 782.515 111.497 740.019 68.1271 722.946C57.4511 718.688 46.2026 715.951 34.2808 714.813C-12.629 710.435 -65.6035 732.783 -116.877 746.115C-123.338 747.796 -129.795 749.318 -136.218 750.61C-193.628 762.18 -251.715 750.387 -276.631 686.332C-296.955 634.081 -291.615 556.481 -304.485 497.222C-320.041 425.253 -366.144 392.35 -414.472 413.118" stroke="white" stroke-opacity="0.03" stroke-width="2.66666" stroke-miterlimit="10"/>
<path d="M579.117 1218.45C601.727 1151.05 605.004 1077.18 587.682 1025.14C571.132 975.395 535.871 946.56 494.076 949.933C490.482 950.222 486.85 950.74 483.186 951.47C438.887 960.272 391.24 998.618 348.412 1008.55C327.624 1013.38 309.025 1011.84 291.65 1003.59C261.343 989.194 239.01 953.734 218.181 916.044C202.849 888.267 187.745 859.375 172.55 832.884C143.789 782.48 111.329 736.978 68.2274 717.662C57.6064 712.848 46.3675 709.608 34.3942 708.065C-12.7034 702.092 -66.3711 724.59 -118.294 738.245C-124.837 739.966 -131.373 741.532 -137.872 742.871C-195.967 754.844 -254.996 743.026 -279.65 677.541C-298.828 626.6 -293.832 551.984 -305.399 494.077C-319.379 423.713 -361.342 389.186 -406.933 405.163" stroke="white" stroke-opacity="0.03" stroke-width="2.66666" stroke-miterlimit="10"/>
<path d="M587.926 1213.94C609.963 1145.1 612.211 1070.55 593.818 1018.57C576.3 969.083 540.194 940.996 497.783 945.118C494.135 945.473 490.448 946.057 486.735 946.852C441.829 956.477 393.782 995.885 350.229 1007.83C329.091 1013.63 309.97 1013.25 292.011 1005.88C260.622 992.987 237.451 958.089 216.284 919.955C200.739 891.917 185.729 862.246 170.844 834.766C142.643 782.452 111.163 733.94 68.3306 712.385C57.7683 707.012 46.5388 703.266 34.5081 701.316C-12.7723 693.753 -67.1349 716.4 -119.707 730.38C-126.331 732.14 -132.947 733.749 -139.524 735.136C-198.302 747.511 -258.298 735.701 -282.665 668.757C-300.72 619.152 -296.045 547.491 -306.311 490.935C-318.713 422.177 -356.538 386.026 -399.391 397.212" stroke="white" stroke-opacity="0.03" stroke-width="2.66667" stroke-miterlimit="10"/>
<path d="M596.726 1209.42C618.194 1139.15 619.421 1063.92 599.941 1012C581.471 962.773 544.511 935.436 501.488 940.31C497.789 940.73 494.052 941.377 490.283 942.243C444.771 952.689 396.327 993.16 352.051 1007.11C330.56 1013.88 310.912 1014.67 292.374 1008.17C259.904 996.789 235.895 962.449 214.387 923.872C198.63 895.574 183.718 865.122 169.142 836.655C141.503 782.427 111 730.911 68.4368 707.112C57.9322 701.187 46.7103 696.932 34.6285 694.576C-12.84 685.422 -67.8952 708.221 -121.116 722.522C-127.822 724.324 -134.517 725.978 -141.17 727.406C-200.631 740.186 -261.62 728.42 -285.674 659.981C-302.628 611.739 -298.252 543.009 -307.216 487.804C-318.041 420.653 -351.726 382.878 -391.841 389.272" stroke="white" stroke-opacity="0.03" stroke-width="2.66667" stroke-miterlimit="10"/>
<path d="M605.525 1204.92C626.424 1133.2 626.628 1057.28 606.064 1005.44C586.637 956.463 548.827 929.88 505.187 935.507C501.438 935.99 497.644 936.705 493.83 937.64C447.709 948.909 398.863 990.44 353.871 1006.4C332.026 1014.15 311.858 1016.09 292.734 1010.47C259.18 1000.59 234.336 966.813 212.494 927.794C196.521 899.232 181.704 868.002 167.437 838.55C140.363 782.41 110.836 727.888 68.5442 701.852C58.095 695.367 46.8854 690.61 34.7471 687.847C-12.9055 677.1 -68.6519 700.048 -122.521 714.67C-129.309 716.513 -136.083 718.211 -142.812 719.687C-202.956 732.869 -264.969 721.179 -288.677 651.211C-304.552 604.36 -300.453 538.536 -308.115 484.683C-317.363 419.14 -346.909 379.741 -384.286 381.344" stroke="white" stroke-opacity="0.03" stroke-width="2.66666" stroke-miterlimit="10"/>
<path d="M614.325 1200.41C634.652 1127.26 633.842 1050.65 612.192 998.886C591.807 950.16 553.151 924.333 508.89 930.712C505.085 931.259 501.246 932.04 497.374 933.041C450.648 945.133 401.408 987.726 355.69 1005.69C333.494 1014.41 312.806 1017.52 293.097 1012.76C258.464 1004.41 232.783 971.184 210.603 931.722C194.419 902.901 179.699 870.893 165.739 840.453C139.229 782.404 110.682 724.871 68.6576 696.597C58.2668 689.556 47.0676 684.294 34.8751 681.124C-12.9641 668.786 -69.4016 691.887 -123.918 706.827C-130.787 708.711 -137.64 710.456 -144.446 711.975C-205.272 725.562 -268.343 713.985 -291.67 642.452C-306.488 597.014 -302.645 534.072 -309.005 481.573C-316.675 417.636 -342.083 376.616 -376.721 373.428" stroke="white" stroke-opacity="0.03" stroke-width="2.66666" stroke-miterlimit="10"/>
<path d="M623.13 1195.91C642.886 1121.32 641.057 1044.02 618.317 992.336C596.986 943.855 557.47 918.792 512.598 925.919C508.741 926.533 504.845 927.379 500.928 928.449C453.593 941.36 403.953 985.015 357.516 1004.99C334.973 1014.68 313.761 1018.95 293.467 1015.07C257.753 1008.23 231.235 975.556 208.717 935.652C192.322 906.572 177.696 873.784 164.048 842.361C138.101 782.397 110.531 721.862 68.7766 691.349C58.441 683.749 47.2517 677.981 35.0055 674.409C-13.0176 660.478 -70.1455 683.726 -125.309 698.992C-132.26 700.913 -139.192 702.702 -146.075 704.269C-207.582 718.257 -271.752 706.836 -294.658 633.697C-308.439 589.693 -304.83 529.613 -309.889 478.466C-315.982 416.138 -337.251 373.495 -369.151 365.516" stroke="white" stroke-opacity="0.03" stroke-width="2.66666" stroke-miterlimit="10"/>
<path d="M631.931 1191.41C651.115 1115.38 648.275 1037.39 624.438 985.787C602.16 937.547 561.788 913.248 516.301 921.127C512.393 921.807 508.445 922.718 504.476 923.854C456.536 937.59 406.496 982.301 359.337 1004.28C336.446 1014.95 314.695 1020.45 293.836 1017.37C257.011 1012.17 229.688 979.932 206.831 939.582C190.223 910.239 175.694 876.677 162.353 844.266C136.97 782.391 110.378 718.852 68.8939 686.098C58.6171 677.943 47.4377 671.673 35.1377 667.691C-13.0686 652.171 -70.8905 675.567 -126.7 691.154C-133.733 693.118 -140.744 694.948 -147.703 696.56C-209.892 710.952 -275.207 699.737 -297.646 624.943C-310.411 582.393 -307.016 525.155 -310.773 475.36C-315.29 414.641 -332.419 370.375 -361.582 357.607" stroke="white" stroke-opacity="0.03" stroke-width="2.66666" stroke-miterlimit="10"/>
<path d="M640.73 1186.91C659.349 1109.45 655.495 1030.75 630.565 979.234C607.341 931.236 566.111 907.704 520.01 916.335C516.044 917.079 512.051 918.056 508.03 919.261C459.481 933.816 409.048 979.59 361.168 1003.57C337.925 1015.22 315.653 1021.88 294.208 1019.68C256.307 1015.97 228.141 984.302 204.946 943.511C188.127 913.908 173.693 879.565 160.661 846.169C135.84 782.386 110.228 715.842 69.0134 680.849C58.7948 672.136 47.6224 665.36 35.269 660.975C-13.1216 643.862 -71.6338 667.41 -128.091 683.315C-135.206 685.32 -142.295 687.197 -149.331 688.853C-212.201 703.647 -278.715 692.686 -300.632 616.188C-312.401 575.108 -309.201 520.695 -311.656 472.253C-314.596 413.141 -327.588 367.253 -354.013 349.696" stroke="white" stroke-opacity="0.03" stroke-width="2.66667" stroke-miterlimit="10"/>
<path d="M649.539 1182.41C667.579 1103.51 662.786 1024.01 636.695 972.684C612.592 924.831 570.43 902.158 523.714 911.545C519.696 912.351 515.651 913.391 511.577 914.667C462.423 930.042 411.597 976.878 362.992 1002.87C339.402 1015.48 316.609 1023.3 294.58 1021.97C255.603 1019.78 226.595 988.671 203.063 947.435C186.031 917.575 171.695 882.452 158.972 848.072C134.713 782.378 110.077 712.83 69.134 675.597C58.9707 666.328 47.8107 659.048 35.4007 654.257C-13.1737 635.552 -72.3765 659.249 -129.48 675.476C-136.677 677.521 -143.845 679.443 -150.957 681.145C-214.509 696.341 -282.284 685.692 -303.617 607.432C-314.411 567.838 -311.384 516.234 -312.538 469.146C-313.901 411.641 -322.755 364.131 -346.443 341.785" stroke="white" stroke-opacity="0.03" stroke-width="2.66666" stroke-miterlimit="10"/>
<path d="M658.337 1177.91C675.813 1097.57 669.993 1017.39 642.819 966.136C617.752 918.542 574.754 896.619 527.424 906.754C523.354 907.626 519.25 908.731 515.13 910.073C465.367 926.272 414.149 974.168 364.82 1002.16C340.881 1015.75 317.569 1024.73 294.948 1024.28C254.9 1023.59 225.05 993.042 201.183 951.363C183.937 921.242 169.694 885.344 157.28 849.975C133.586 782.371 109.928 709.821 69.2537 670.35C59.1487 660.523 47.9993 652.737 35.5355 647.542C-13.2257 627.246 -73.1192 651.092 -130.87 667.641C-138.148 669.725 -145.396 671.693 -152.584 673.437C-216.818 689.04 -285.925 678.759 -306.603 598.679C-316.441 560.582 -313.568 511.776 -313.421 466.038C-313.208 410.14 -317.924 361.009 -338.875 333.875" stroke="white" stroke-opacity="0.03" stroke-width="2.66667" stroke-miterlimit="10"/>
<path d="M667.14 1173.41C684.047 1091.63 677.197 1010.77 648.951 959.584C622.923 912.248 579.081 891.071 531.134 901.957C527.012 902.892 522.861 904.066 518.688 905.477C468.32 922.495 416.698 971.452 366.654 1001.45C342.358 1016.01 318.529 1026.15 295.323 1026.57C254.201 1027.39 223.511 997.406 199.304 955.286C181.846 924.905 167.7 888.226 155.594 851.873C132.464 782.357 109.785 706.805 69.3783 665.095C59.3314 654.713 48.1889 646.422 35.6712 640.82C-13.2734 618.933 -73.8578 642.929 -132.256 659.799C-139.615 661.924 -146.941 663.936 -154.206 665.726C-219.121 681.732 -289.645 671.894 -309.584 589.921C-318.485 553.331 -315.747 507.311 -314.299 462.927C-312.509 408.636 -313.088 357.883 -331.303 325.96" stroke="white" stroke-opacity="0.03" stroke-width="2.66667" stroke-miterlimit="10"/>
<path d="M675.951 1168.9C692.284 1085.69 684.402 1004.16 655.084 953.033C625.766 901.908 575.594 882.21 522.242 900.881C446.522 927.38 368.5 1024.88 295.702 1028.87C223.123 1032.85 182.092 942.975 153.909 853.773C125.724 764.569 98.8872 664.244 35.8086 634.101C-19.5138 607.665 -90.2347 641.611 -155.83 658.018C-221.426 674.425 -293.464 665.105 -312.568 581.165C-330.324 503.143 -295.612 384.742 -323.733 318.047" stroke="white" stroke-opacity="0.03" stroke-width="2.66667" stroke-miterlimit="10"/>
<path d="M676.041 1167.05C691.411 1080.35 679.888 998.178 647.753 948.236C616.855 900.206 566.961 881.601 513.701 899.294C439.133 924.448 362.516 1015.35 292.816 1015.9C223.546 1016.44 185.489 927.612 158.051 840.084C130.493 752.03 102.114 656.431 39.5774 628.91C-15.5669 604.92 -85.4491 639.359 -150.285 655.164C-216.708 671.083 -287.037 656.81 -308.276 573.992C-328.596 494.758 -301.538 381.176 -334.11 320.252" stroke="white" stroke-opacity="0.03" stroke-width="2.66666" stroke-miterlimit="10"/>
<path d="M676.132 1165.2C690.541 1075.01 675.467 992.17 640.432 943.434C608.061 898.404 558.357 880.721 505.166 897.706C431.774 921.141 356.558 1005.83 289.935 1002.91C223.983 1000.02 188.889 912.236 162.202 826.384C135.271 739.482 105.442 648.345 43.355 623.712C-11.5371 601.933 -80.688 637.354 -144.733 652.3C-212.016 668.003 -280.674 648.547 -303.979 566.811C-326.913 486.379 -307.462 377.604 -344.489 322.452" stroke="white" stroke-opacity="0.03" stroke-width="2.66666" stroke-miterlimit="10"/>
<path d="M676.236 1163.34C689.681 1069.67 671.133 986.112 633.112 938.628C599.374 896.494 549.743 879.986 496.626 896.116C424.407 918.043 350.61 996.318 287.059 989.923C224.44 983.625 192.297 896.853 166.356 812.677C140.052 726.924 108.718 640.4 47.1378 618.51C-7.54756 599.071 -75.9043 635.195 -139.177 649.437C-207.303 664.772 -274.369 640.322 -299.678 559.626C-325.274 478.018 -313.385 374.027 -354.867 324.651" stroke="white" stroke-opacity="0.03" stroke-width="2.66667" stroke-miterlimit="10"/>
<path d="M676.34 1161.49C688.822 1064.32 666.878 979.992 625.793 933.822C590.783 894.477 541.132 879.265 488.096 894.523C417.046 914.966 344.68 986.821 284.184 976.931C224.909 967.24 195.708 881.468 170.518 798.966C144.843 714.365 111.992 632.463 50.9256 613.307C-3.55963 596.216 -71.1144 633.02 -133.615 646.572C-202.585 661.528 -268.114 632.135 -295.371 552.44C-323.676 469.683 -319.305 370.451 -365.245 326.851" stroke="white" stroke-opacity="0.03" stroke-width="2.66667" stroke-miterlimit="10"/>
<path d="M676.446 1159.63C687.963 1058.97 662.695 973.793 618.466 929.013C582.265 892.355 532.521 878.552 479.554 892.933C409.672 911.904 338.759 977.346 281.307 963.934C225.391 950.878 199.125 866.075 174.683 785.249C149.633 701.798 115.264 624.533 54.7136 608.102C0.42409 593.369 -66.3197 630.83 -128.049 643.707C-197.861 658.27 -261.903 623.99 -291.06 545.252C-322.118 461.381 -325.225 366.875 -375.623 329.055" stroke="white" stroke-opacity="0.03" stroke-width="2.66666" stroke-miterlimit="10"/>
<path d="M676.551 1157.77C687.109 1053.62 658.589 967.502 611.15 924.2C573.821 890.131 523.909 877.85 471.024 891.339C402.308 908.859 332.853 967.892 278.437 950.926C225.884 934.544 202.546 850.672 178.853 771.527C154.434 689.226 118.534 616.609 58.5103 602.892C4.4097 590.528 -61.5181 628.622 -122.477 640.837C-193.131 654.996 -255.731 615.881 -286.744 538.057C-320.596 453.109 -331.142 363.294 -386.001 331.257" stroke="white" stroke-opacity="0.03" stroke-width="2.66667" stroke-miterlimit="10"/>
<path d="M676.66 1155.91C686.257 1048.26 654.552 961.107 603.828 919.385C565.44 887.806 515.294 877.16 462.485 889.743C394.943 905.837 326.956 958.475 275.569 937.918C226.384 918.242 205.97 835.267 183.029 757.798C159.238 676.65 121.8 608.695 62.311 597.68C8.39331 587.696 -56.7108 626.399 -116.901 637.967C-188.396 651.708 -249.592 607.811 -282.423 530.86C-319.109 444.875 -337.059 359.713 -396.381 333.46" stroke="white" stroke-opacity="0.03" stroke-width="2.66667" stroke-miterlimit="10"/>
<path d="M676.778 1154.05C685.404 1042.9 650.567 954.603 596.511 914.568C557.106 885.384 506.678 876.482 453.947 888.146C387.571 902.826 321.069 949.098 272.701 924.903C226.891 901.985 209.4 819.851 187.21 744.062C164.045 664.065 125.068 600.791 66.1134 592.464C12.3753 584.874 -51.8972 624.16 -111.32 635.094C-183.655 648.404 -243.481 599.776 -278.097 523.659C-317.654 436.679 -342.974 356.13 -406.76 335.664" stroke="white" stroke-opacity="0.03" stroke-width="2.66667" stroke-miterlimit="10"/>
<path d="M676.882 1152.18C684.55 1037.54 641.415 959.239 589.181 909.748C552.475 874.968 498.057 875.819 445.404 886.551C380.198 899.838 317.379 934.13 269.834 911.881C225.335 891.059 212.833 804.431 191.39 730.321C168.857 651.478 128.328 592.9 69.9196 587.248C16.3558 582.064 -47.0799 621.909 -105.736 632.222C-178.909 645.086 -237.397 591.778 -273.768 516.459C-316.229 428.527 -348.889 352.549 -417.141 337.873" stroke="white" stroke-opacity="0.03" stroke-width="2.66666" stroke-miterlimit="10"/>
<path d="M677.001 1150.31C683.703 1032.17 637.629 952.845 581.863 904.926C544.033 872.415 489.442 875.169 436.868 884.952C372.823 896.867 309.28 930.505 266.971 898.856C227.895 869.628 216.27 789.007 195.58 716.573C173.673 638.884 131.589 585.02 73.7331 582.028C20.334 579.266 -42.2542 619.642 -100.145 629.346C-174.155 641.751 -231.332 583.812 -269.434 509.253C-314.832 420.414 -354.802 348.965 -427.522 340.081" stroke="white" stroke-opacity="0.03" stroke-width="2.66667" stroke-miterlimit="10"/>
<path d="M677.114 1148.44C682.858 1026.81 633.988 946.097 574.539 900.102C535.553 869.932 480.818 874.535 428.329 883.354C365.449 893.918 303.373 921.305 264.11 885.827C228.383 853.54 219.713 773.573 199.771 702.823C178.497 626.285 134.852 577.154 77.5477 576.806C24.3136 576.482 -37.4212 617.363 -94.5503 626.47C-169.394 638.4 -225.283 575.877 -265.093 502.045C-313.458 412.343 -360.712 345.381 -437.902 342.291" stroke="white" stroke-opacity="0.03" stroke-width="2.66667" stroke-miterlimit="10"/>
<path d="M677.227 1146.58C682.008 1021.44 630.478 938.996 567.212 895.285C527.043 867.529 472.193 873.928 419.781 881.765C358.07 890.995 297.435 912.185 261.251 872.798C228.848 837.529 223.159 758.143 203.971 689.076C183.324 613.694 138.115 569.316 81.3709 571.595C28.2954 573.726 -32.5814 615.083 -88.946 623.603C-164.621 635.044 -219.242 567.986 -260.741 494.848C-312.101 404.329 -366.614 341.813 -448.273 344.519" stroke="white" stroke-opacity="0.03" stroke-width="2.66666" stroke-miterlimit="10"/>
<path d="M677.341 1144.72C681.153 1016.08 631.368 920.296 559.889 890.477C515.881 872.117 463.561 873.346 411.237 880.182C350.684 888.098 291.466 903.152 258.396 859.778C229.284 821.597 226.614 742.723 208.176 675.336C188.159 601.11 141.378 561.506 85.2008 566.395C32.2813 570.999 -27.7293 612.802 -83.3328 620.748C-159.836 631.681 -213.208 560.135 -256.379 487.661C-310.759 396.37 -372.507 338.258 -458.637 346.762" stroke="white" stroke-opacity="0.03" stroke-width="2.66667" stroke-miterlimit="10"/>
<path d="M677.453 1142.86C680.302 1010.73 627.628 913.082 552.557 885.674C507.682 869.289 454.925 872.791 402.697 878.61C343.296 885.228 285.45 894.203 255.545 846.757C229.684 805.734 230.073 727.302 212.385 661.6C192.998 588.532 144.646 553.724 89.0346 561.202C36.2735 568.299 -22.8692 610.519 -77.711 617.9C-155.038 628.308 -207.178 552.319 -252.006 480.482C-309.429 388.463 -378.391 334.714 -468.994 349.019" stroke="white" stroke-opacity="0.03" stroke-width="2.66667" stroke-miterlimit="10"/>
<path d="M677.56 1141.01C679.445 1005.38 623.9 905.756 545.219 880.88C499.475 866.418 446.278 872.264 394.147 877.046C335.905 882.387 279.376 885.331 252.693 833.745C230.034 789.939 233.533 711.888 216.598 647.875C197.842 575.966 147.913 545.972 92.8744 556.023C40.2667 565.631 -18.0007 608.238 -72.0819 615.065C-150.229 624.93 -201.15 544.544 -247.624 473.317C-308.111 380.613 -384.267 331.187 -479.341 351.294" stroke="white" stroke-opacity="0.03" stroke-width="2.66666" stroke-miterlimit="10"/>
<path d="M677.668 1139.16C678.59 1000.04 620.195 898.322 537.888 876.092C491.283 863.503 437.631 871.763 385.604 875.486C328.508 879.574 273.235 876.527 249.848 820.737C230.336 774.193 237 696.482 220.818 634.152C202.693 563.403 151.189 538.247 96.7206 550.85C44.2653 562.988 -13.1242 605.953 -66.4452 612.235C-145.409 621.539 -195.124 536.799 -243.233 466.157C-306.804 372.81 -390.137 327.668 -489.682 353.578" stroke="white" stroke-opacity="0.03" stroke-width="2.66667" stroke-miterlimit="10"/>
<path d="M677.771 1137.32C677.729 994.703 616.502 890.778 530.551 871.308C483.08 860.556 428.977 871.29 377.057 873.935C321.108 876.782 267.017 867.769 247.001 807.728C230.582 758.48 240.47 681.076 225.037 620.435C207.542 550.848 154.463 530.549 100.567 545.686C48.2669 560.375 -8.23989 603.666 -60.8033 609.413C-140.579 618.136 -189.101 529.086 -238.836 459.005C-305.508 365.057 -395.999 324.161 -500.016 355.875" stroke="white" stroke-opacity="0.03" stroke-width="2.66666" stroke-miterlimit="10"/>
<path d="M677.877 1135.48C676.87 989.37 612.821 883.134 523.215 866.533C474.867 857.578 420.312 870.85 368.505 872.391C313.703 874.021 260.724 859.042 244.158 794.73C230.773 742.779 243.942 665.678 229.263 606.726C212.398 538.3 157.747 522.88 104.42 540.532C52.2768 557.792 -3.34858 601.379 -55.1562 606.601C-135.739 614.723 -183.079 521.405 -234.431 451.864C-304.223 357.354 -401.857 320.666 -510.346 358.184" stroke="white" stroke-opacity="0.03" stroke-width="2.66666" stroke-miterlimit="10"/>
<path d="M677.981 1133.64C676.01 984.041 609.136 875.391 515.871 861.763C466.66 854.573 411.643 870.435 359.958 870.85C306.29 871.282 254.363 850.317 241.314 781.734C230.915 727.069 247.417 650.283 233.489 593.021C217.255 525.758 161.034 515.235 108.276 535.383C56.2934 555.235 1.54869 599.089 -49.5041 603.794C-130.889 611.293 -177.057 513.75 -230.022 444.727C-302.946 349.694 -407.71 317.177 -520.67 360.502" stroke="white" stroke-opacity="0.03" stroke-width="2.66667" stroke-miterlimit="10"/>
<path d="M678.084 1131.81C675.141 978.715 605.46 867.556 508.531 856.998C458.433 851.54 402.96 870.053 351.41 869.317C298.869 868.57 247.94 841.571 238.474 768.74C231.016 711.331 250.893 634.893 237.718 579.322C222.115 513.222 164.33 507.614 112.131 530.242C60.3161 552.704 6.4721 596.689 -43.8481 600.994C-125.999 607.673 -171.035 506.123 -225.606 437.599C-301.678 342.078 -413.557 313.699 -530.99 362.829" stroke="white" stroke-opacity="0.03" stroke-width="2.66667" stroke-miterlimit="10"/>
<path d="M678.181 1129.98C674.273 973.393 601.781 859.631 501.191 852.238C450.196 848.49 394.27 869.701 342.857 867.79C291.442 865.879 241.459 832.779 235.633 755.753C231.08 695.546 254.369 619.507 241.948 565.628C226.974 500.691 167.634 500.015 115.991 525.108C64.3447 550.199 11.3589 594.503 -38.1897 598.2C-121.164 604.39 -165.015 498.521 -221.188 430.478C-300.419 334.504 -419.402 310.229 -541.305 365.165" stroke="white" stroke-opacity="0.03" stroke-width="2.66667" stroke-miterlimit="10"/>
<path d="M683.115 567.684C711.412 514.707 725.159 447.468 718.429 394.973C711.698 342.477 684.696 306.364 649.074 302.211C608.789 297.518 560.814 330.888 522.293 319.917C475.479 306.579 456.884 233.761 429.246 181.082C391.206 108.584 329.418 69.8794 259.305 74.6204C203.821 78.373 144.875 107.999 87.9758 121.068C31.0752 134.138 -27.7892 127.691 -57.3396 69.5603C-89.0832 7.11158 -79.5431 -98.9029 -104.129 -170.311C-133.879 -256.72 -217.224 -275.002 -290.179 -211.122" stroke="white" stroke-opacity="0.03" stroke-width="2.66667" stroke-miterlimit="10"/>
<path d="M691.915 563.159C719.644 508.738 732.361 440.816 724.555 388.382C716.855 336.146 689.008 300.778 652.769 297.38C649.652 297.086 646.488 297.015 643.29 297.131C604.472 298.532 560.415 327.304 524.102 319.174C506.475 315.228 492.524 303.365 480.477 287.126C459.794 259.355 445.116 218.659 427.338 184.972C413.919 159.549 397.955 137.679 379.985 120.075C346.158 86.8983 304.904 68.4612 259.393 69.3162C248.257 69.5188 236.935 70.8233 225.454 72.9297C180.038 81.2897 132.617 102.426 86.5432 113.179C80.7381 114.534 74.9155 115.697 69.1081 116.628C17.1746 124.965 -33.943 114.26 -60.3777 60.7503C-90.7474 -0.722177 -81.7786 -103.422 -105.063 -173.481C-133.236 -258.286 -212.443 -278.193 -282.663 -219.101" stroke="white" stroke-opacity="0.03" stroke-width="2.66668" stroke-miterlimit="10"/>
<path d="M700.709 558.629C727.872 502.769 739.558 434.163 730.673 381.794C722.011 329.813 693.327 295.191 656.466 292.546C653.295 292.317 650.083 292.312 646.83 292.496C607.402 294.717 562.949 324.555 525.908 318.434C507.931 315.461 493.457 304.757 480.825 289.39C459.071 263.126 443.548 222.994 425.423 188.861C411.794 163.175 395.926 140.525 378.264 121.935C345.002 86.8433 304.725 65.3994 259.48 64.0155C248.402 63.6587 237.09 64.4572 225.552 66.1608C179.95 72.9269 131.835 94.2141 85.1103 105.293C79.2233 106.689 73.3217 107.896 67.437 108.871C14.8186 117.61 -37.1314 106.696 -63.4147 51.943C-92.4387 -8.51407 -84.0139 -107.941 -105.996 -176.65C-132.593 -259.851 -207.663 -281.382 -275.146 -227.08" stroke="white" stroke-opacity="0.03" stroke-width="2.66667" stroke-miterlimit="10"/>
<path d="M709.512 554.105C736.101 496.801 746.662 427.596 736.802 375.208C727.076 323.564 697.644 289.609 660.167 287.713C656.942 287.55 653.675 287.61 650.373 287.861C610.336 290.905 565.479 321.808 527.72 317.692C509.391 315.693 494.396 306.147 481.173 291.66C458.343 266.899 441.977 227.329 423.514 192.752C409.676 166.805 393.901 143.376 376.545 123.795C343.847 86.7898 304.545 62.339 259.57 58.7128C248.549 57.7998 237.244 58.0924 225.654 59.39C179.862 64.5655 131.053 86.006 83.6786 97.4044C77.7098 98.8414 71.7287 100.092 65.7673 101.115C12.4636 110.257 -40.3265 99.148 -66.4516 43.1366C-94.156 -16.2629 -86.2483 -112.459 -106.929 -179.819C-131.949 -261.416 -202.881 -284.572 -267.629 -235.06" stroke="white" stroke-opacity="0.03" stroke-width="2.66667" stroke-miterlimit="10"/>
<path d="M718.306 549.576C744.332 490.833 753.841 420.971 742.923 368.62C732.213 317.257 701.962 284.024 663.866 282.881C660.592 282.783 657.27 282.908 653.918 283.228C613.274 287.096 568.016 319.061 529.529 316.95C510.85 315.928 495.363 307.48 481.523 293.93C457.666 270.571 440.403 231.665 421.61 196.645C407.554 170.436 391.874 146.224 374.83 125.658C342.692 86.7399 304.368 59.2796 259.659 53.4137C248.694 51.9418 237.401 51.7321 225.754 52.623C179.776 56.2046 130.273 77.7951 82.2486 89.5167C76.1974 90.9943 70.1371 92.2894 64.0984 93.3599C10.1105 102.907 -43.5299 91.6255 -69.4864 34.3279C-95.898 -23.9715 -88.481 -116.976 -107.86 -182.986C-131.303 -262.979 -198.097 -287.759 -260.109 -243.038" stroke="white" stroke-opacity="0.03" stroke-width="2.66667" stroke-miterlimit="10"/>
<path d="M727.112 545.053C752.562 484.866 761.026 414.342 749.051 362.035C737.356 310.949 706.281 278.44 667.567 278.05C664.238 278.014 660.866 278.208 657.458 278.597C616.204 283.285 570.55 316.315 531.341 316.213C512.309 316.164 496.312 308.864 481.878 296.202C456.95 274.33 438.839 236.004 419.699 200.535C405.435 174.069 389.851 149.075 373.114 127.521C341.537 86.6889 304.193 56.2218 259.751 48.113C248.844 46.0856 237.557 45.3698 225.858 45.8541C179.695 47.8457 129.495 69.5863 80.8196 81.631C74.6866 83.1486 68.5474 84.4909 62.432 85.6026C7.7588 95.5562 -46.742 84.123 -72.52 25.5238C-97.6643 -31.6362 -90.7122 -121.492 -108.789 -186.151C-130.655 -264.54 -193.312 -290.945 -252.587 -251.014" stroke="white" stroke-opacity="0.03" stroke-width="2.66667" stroke-miterlimit="10"/>
<path d="M735.908 540.53C760.799 478.901 768.211 407.713 755.177 355.452C742.505 304.64 710.593 272.858 671.268 273.221C667.883 273.251 664.461 273.507 661.003 273.964C619.14 279.476 573.089 313.569 533.153 315.475C513.772 316.403 497.248 310.252 482.229 298.473C456.231 278.091 437.271 240.344 417.796 204.432C403.315 177.701 387.825 151.931 371.397 129.387C340.384 86.6408 304.015 53.1671 259.843 42.8187C248.994 40.232 237.716 39.0102 225.96 39.0915C179.611 39.4892 128.717 61.3828 79.3923 73.7502C73.1777 75.3062 66.9582 76.6923 60.7658 77.8516C5.40825 88.2076 -49.9652 76.6478 -75.5511 16.723C-99.4541 -39.2619 -92.9416 -126.003 -109.717 -189.313C-130.005 -266.097 -188.524 -294.126 -245.062 -258.986" stroke="white" stroke-opacity="0.03" stroke-width="2.66666" stroke-miterlimit="10"/>
<path d="M744.713 536.007C769.027 472.938 775.405 401.083 761.303 348.868C747.658 298.331 714.917 267.283 674.971 268.395C671.536 268.491 668.058 268.812 664.549 269.338C622.078 275.674 575.624 310.829 534.967 314.744C515.233 316.644 498.194 311.644 482.584 300.751C455.508 281.859 435.702 244.688 415.891 208.332C401.198 181.34 385.804 154.787 369.685 131.257C339.233 86.5982 303.842 50.1155 259.938 37.5244C249.143 34.3812 237.876 32.6569 226.065 32.3283C179.529 31.1349 127.941 53.1795 77.9668 65.8699C71.6698 67.4694 65.3718 68.8994 59.1026 70.103C3.0602 80.862 -53.201 69.1987 -78.5806 7.92153C-101.266 -46.8522 -95.169 -130.512 -110.643 -192.471C-129.354 -267.651 -183.734 -297.305 -237.536 -266.955" stroke="white" stroke-opacity="0.03" stroke-width="2.66667" stroke-miterlimit="10"/>
<path d="M753.519 531.488C777.261 466.976 782.6 394.453 767.433 342.289C752.815 292.021 719.237 261.706 678.671 263.57C675.185 263.732 671.656 264.119 668.096 264.711C625.019 271.87 578.163 308.089 536.785 314.01C516.696 316.887 499.137 313.04 482.935 303.029C454.786 285.631 434.134 249.036 413.986 212.233C399.081 184.98 383.782 157.649 367.971 133.132C338.084 86.5558 303.668 47.0663 260.033 32.2355C249.296 28.5332 238.039 26.3025 226.173 25.5717C179.449 22.7842 127.169 44.9785 76.5442 57.9918C70.1655 59.6313 63.7878 61.1062 57.4415 62.354C0.715092 73.5186 -56.4497 61.7801 -81.6068 -0.874418C-103.1 -54.4028 -97.393 -135.017 -111.565 -195.626C-128.699 -269.201 -178.94 -300.479 -230.005 -274.921" stroke="white" stroke-opacity="0.03" stroke-width="2.66667" stroke-miterlimit="10"/>
<path d="M762.317 526.967C785.493 461.015 789.8 387.82 773.554 335.711C757.972 285.706 723.548 256.131 682.376 258.749C678.833 258.975 675.253 259.428 671.641 260.089C627.949 268.068 580.7 305.352 538.597 313.281C518.157 317.129 500.077 314.438 483.295 305.31C454.061 289.411 432.573 253.384 412.082 216.137C396.962 188.62 381.761 160.51 366.258 135.006C336.935 86.5164 303.497 44.0203 260.127 26.9466C249.451 22.689 238.202 19.9525 226.281 18.8142C179.371 14.4361 126.396 36.7837 75.1225 50.1162C68.6622 51.7968 62.205 53.3187 55.7822 54.6105C-1.62869 66.181 -59.715 54.3879 -84.6311 -9.66717C-104.955 -61.9185 -99.6151 -139.518 -112.485 -198.777C-128.041 -270.746 -174.144 -303.649 -222.472 -282.881" stroke="white" stroke-opacity="0.03" stroke-width="2.66666" stroke-miterlimit="10"/>
<path d="M771.117 522.45C793.727 455.054 797.004 381.183 779.682 329.137C763.132 279.395 727.871 250.56 686.076 253.933C682.482 254.222 678.85 254.74 675.186 255.47C630.887 264.272 583.24 302.618 540.412 312.552C519.624 317.377 501.025 315.842 483.65 307.59C453.343 293.194 431.01 257.734 410.181 220.044C394.849 192.267 379.745 163.375 364.55 136.884C335.789 86.4803 303.329 40.9778 260.227 21.6617C249.606 16.8478 238.367 13.6084 226.394 12.0646C179.297 6.09241 125.629 28.5901 73.7063 42.2447C67.1633 43.9663 60.6273 45.5321 54.1276 46.8713C-3.96725 58.8439 -62.9962 47.026 -87.6495 -18.4588C-106.828 -69.3998 -101.832 -144.016 -113.399 -201.923C-127.379 -272.287 -169.342 -306.814 -214.933 -290.837" stroke="white" stroke-opacity="0.03" stroke-width="2.66666" stroke-miterlimit="10"/>
<path d="M779.926 517.939C801.963 449.1 804.211 374.551 785.818 322.568C768.3 273.084 732.194 244.997 689.783 249.119C686.135 249.474 682.448 250.058 678.735 250.853C633.829 260.478 585.782 299.886 542.229 311.832C521.091 317.629 501.97 317.254 484.011 309.878C452.622 296.988 429.451 262.09 408.284 223.956C392.739 195.918 377.729 166.247 362.844 138.767C334.643 86.4526 303.163 37.9407 260.331 16.3856C249.768 11.0126 238.539 7.26714 226.508 5.31687C179.228 -2.24588 124.865 20.4009 72.2928 34.3812C65.6686 36.1406 59.0527 37.75 52.476 39.1373C-6.30236 51.512 -66.2979 39.7021 -90.6651 -27.2425C-108.72 -76.8475 -104.045 -148.508 -114.311 -205.064C-126.713 -273.822 -164.538 -309.973 -207.391 -298.787" stroke="white" stroke-opacity="0.03" stroke-width="2.66667" stroke-miterlimit="10"/>
<path d="M788.726 513.425C810.194 443.149 811.42 367.916 791.94 315.999C773.471 266.773 736.511 239.436 693.488 244.31C689.789 244.73 686.052 245.377 682.282 246.243C636.771 256.689 588.326 297.16 544.051 311.111C522.56 317.885 502.912 318.668 484.373 312.17C451.904 300.789 427.895 266.449 406.387 227.872C390.629 199.574 375.718 169.122 361.142 140.655C333.503 86.4274 303 34.9106 260.437 11.1123C249.932 5.18661 238.71 0.932411 226.628 -1.42428C179.16 -10.5776 124.105 12.2215 70.884 26.5216C64.1776 28.324 57.483 29.9783 50.8298 31.406C-8.63148 44.1862 -69.6207 32.4202 -93.674 -36.0193C-110.629 -84.2613 -106.252 -152.991 -115.216 -208.196C-126.041 -275.347 -159.727 -313.122 -199.841 -306.728" stroke="white" stroke-opacity="0.03" stroke-width="2.66667" stroke-miterlimit="10"/>
<path d="M797.525 508.919C818.423 437.203 818.628 361.284 798.064 309.44C778.637 260.464 740.827 233.881 697.187 239.508C693.438 239.991 689.644 240.706 685.829 241.641C639.709 252.91 590.863 294.441 545.871 310.4C524.026 318.146 503.857 320.092 484.734 314.467C451.18 304.595 426.336 270.814 404.493 231.795C388.521 203.233 373.704 172.003 359.437 142.551C332.363 86.4109 302.836 31.8888 260.544 5.85254C250.095 -0.632391 238.885 -5.38901 226.747 -8.1521C179.094 -18.8994 123.348 4.04941 69.4791 18.6706C62.6908 20.5138 55.9173 22.2121 49.1882 23.6876C-10.956 36.8695 -72.969 25.1803 -96.6769 -44.7883C-112.553 -91.6388 -108.453 -157.463 -116.115 -211.316C-125.363 -276.859 -154.909 -316.258 -192.286 -314.655" stroke="white" stroke-opacity="0.03" stroke-width="2.66666" stroke-miterlimit="10"/>
<path d="M806.325 504.413C826.652 431.261 825.842 354.654 804.191 302.886C783.806 254.16 745.151 228.333 700.89 234.712C697.084 235.259 693.245 236.04 689.374 237.041C642.648 249.133 593.407 291.726 547.689 309.69C525.493 318.412 504.806 321.52 485.097 316.765C450.464 308.411 424.783 275.184 402.602 235.722C386.419 206.901 371.698 174.893 357.739 144.453C331.229 86.4038 302.681 28.8714 260.657 0.59673C250.267 -6.44373 239.067 -11.7065 226.875 -14.8758C179.036 -27.2135 122.598 -4.11346 68.0822 10.8267C61.2123 12.711 54.36 14.4558 47.5536 15.9755C-13.2723 29.5624 -76.3432 17.9848 -99.6707 -53.5478C-114.489 -98.9864 -110.645 -161.928 -117.005 -214.427C-124.676 -278.364 -150.083 -319.384 -184.722 -322.572" stroke="white" stroke-opacity="0.03" stroke-width="2.66666" stroke-miterlimit="10"/>
<path d="M815.13 499.913C834.886 425.322 833.057 348.022 810.317 296.336C788.986 247.855 749.47 222.792 704.598 229.919C700.741 230.533 696.845 231.379 692.928 232.449C645.593 245.36 595.953 289.015 549.516 308.986C526.973 318.678 505.761 322.954 485.467 319.069C449.753 312.231 423.235 279.556 400.717 239.652C384.322 210.572 369.696 177.784 356.048 146.361C330.101 86.397 302.531 25.8621 260.777 -4.65119C250.441 -12.2508 239.252 -18.0189 227.005 -21.5915C178.982 -35.522 121.854 -12.2738 66.6908 2.99152C59.7397 4.91261 52.8083 6.70165 45.9255 8.26891C-15.5819 22.2575 -79.7517 10.8357 -102.658 -62.303C-116.439 -106.307 -112.83 -166.387 -117.889 -217.534C-123.982 -279.862 -145.251 -322.505 -177.151 -330.484" stroke="white" stroke-opacity="0.03" stroke-width="2.66666" stroke-miterlimit="10"/>
<path d="M823.931 495.41C843.114 419.384 840.275 341.386 816.438 289.786C794.16 241.546 753.788 217.247 708.301 225.126C704.393 225.806 700.445 226.717 696.476 227.853C648.536 241.589 598.496 286.3 551.337 308.278C528.445 318.946 506.695 324.453 485.836 321.372C449.011 316.168 421.688 283.931 398.83 243.581C382.223 214.238 367.694 180.676 354.353 148.265C328.97 86.39 302.378 22.851 260.894 -9.90294C250.617 -18.0575 239.437 -24.3284 227.137 -28.3096C178.931 -43.8299 121.109 -20.4343 65.2994 -4.8473C58.2663 -2.88276 51.2557 -1.05257 44.2969 0.558622C-17.8922 14.9515 -83.2076 3.73586 -105.646 -71.0579C-118.411 -113.608 -115.016 -170.846 -118.773 -220.641C-123.29 -281.36 -140.42 -325.626 -169.582 -338.394" stroke="white" stroke-opacity="0.03" stroke-width="2.66666" stroke-miterlimit="10"/>
<path d="M832.73 490.911C851.348 413.445 847.494 334.749 822.564 283.233C799.341 235.235 758.11 211.703 712.01 220.334C708.044 221.078 704.051 222.055 700.03 223.26C651.481 237.815 601.048 283.589 553.168 307.571C529.925 319.215 507.653 325.876 486.208 323.676C448.307 319.973 420.141 288.301 396.946 247.51C380.127 217.907 365.692 183.564 352.66 150.168C327.839 86.3855 302.228 19.8406 261.013 -15.1516C250.795 -23.8649 239.622 -30.6414 227.269 -35.0258C178.878 -52.1389 120.366 -28.5913 63.9084 -12.6864C56.7938 -10.6808 49.7045 -8.80388 42.6692 -7.14825C-20.2015 7.64609 -86.7156 -3.31451 -108.632 -79.8133C-120.402 -120.893 -117.201 -175.306 -119.656 -223.748C-122.596 -282.86 -135.588 -328.748 -162.013 -346.305" stroke="white" stroke-opacity="0.03" stroke-width="2.66667" stroke-miterlimit="10"/>
<path d="M841.538 486.411C859.579 407.507 854.786 328.009 828.695 276.684C804.592 228.831 762.43 206.158 715.713 215.545C711.696 216.351 707.65 217.391 703.577 218.667C654.423 234.042 603.597 280.878 554.991 306.866C531.402 319.482 508.609 327.303 486.579 325.975C447.603 323.778 418.595 292.671 395.063 251.435C378.031 221.575 363.694 186.452 350.972 152.072C326.713 86.3777 302.077 16.8296 261.134 -20.4028C250.97 -29.6721 239.81 -36.9522 227.4 -41.7431C178.826 -60.4476 119.623 -36.7514 62.5194 -20.5245C55.3228 -18.4788 48.1546 -16.5575 41.0426 -14.8548C-22.5093 0.341432 -90.2843 -10.3085 -111.618 -88.5676C-122.411 -128.162 -119.384 -179.766 -120.538 -226.854C-121.902 -284.359 -130.755 -331.869 -154.443 -354.215" stroke="white" stroke-opacity="0.03" stroke-width="2.66666" stroke-miterlimit="10"/>
<path d="M850.337 481.91C867.813 401.571 861.993 321.394 834.819 270.136C809.752 222.542 766.754 200.619 719.424 210.754C715.354 211.626 711.25 212.731 707.13 214.073C657.367 230.272 606.149 278.168 556.82 306.159C532.881 319.751 509.569 328.727 486.948 328.278C446.9 327.587 417.05 297.042 393.183 255.363C375.937 225.242 361.694 189.344 349.28 153.975C325.586 86.3705 301.928 13.8205 261.254 -25.6497C251.149 -35.4768 239.999 -43.2627 227.536 -48.4584C178.774 -68.7544 118.881 -44.9081 61.1296 -28.3587C53.852 -26.2754 46.6045 -24.3071 39.4156 -22.5633C-24.8177 -6.95972 -93.9252 -17.2414 -114.603 -97.3211C-124.441 -135.418 -121.568 -184.224 -121.421 -229.962C-121.208 -285.86 -125.924 -334.991 -146.875 -362.125" stroke="white" stroke-opacity="0.03" stroke-width="2.66667" stroke-miterlimit="10"/>
<path d="M859.14 477.407C876.047 395.631 869.197 314.774 840.951 263.585C814.923 216.249 771.081 195.072 723.134 205.958C719.011 206.893 714.861 208.067 710.688 209.477C660.319 226.496 608.697 275.453 558.653 305.451C534.358 320.015 510.529 330.149 487.323 330.576C446.201 331.387 415.511 301.407 391.304 259.287C373.846 228.906 359.7 192.227 347.594 155.874C324.464 86.3584 301.784 10.8062 261.378 -30.904C251.331 -41.2864 240.189 -49.5767 227.671 -55.1786C178.726 -77.0656 118.142 -53.0696 59.744 -36.1996C52.3849 -34.0753 45.0585 -32.0632 37.7934 -30.2726C-27.1215 -14.2673 -97.645 -24.1052 -117.585 -106.078C-126.485 -142.668 -123.748 -188.688 -122.299 -233.072C-120.509 -287.363 -121.088 -338.116 -139.303 -370.039" stroke="white" stroke-opacity="0.03" stroke-width="2.66667" stroke-miterlimit="10"/>
<path d="M867.951 472.904C884.283 389.692 876.401 308.156 847.083 257.034C817.765 205.909 767.594 186.211 714.241 204.882C638.522 231.381 560.5 328.881 487.702 332.875C415.123 336.853 374.091 246.976 345.909 157.774C317.723 68.5704 290.887 -31.7549 227.808 -61.898C172.486 -88.3344 101.765 -54.3878 36.1693 -37.9805C-29.4265 -21.574 -101.464 -30.8945 -120.568 -114.834C-138.325 -192.856 -103.613 -311.257 -131.733 -377.952" stroke="white" stroke-opacity="0.03" stroke-width="2.66667" stroke-miterlimit="10"/>
<path d="M868.041 471.053C883.411 384.354 871.888 302.178 839.753 252.236C808.855 204.206 758.961 185.601 705.701 203.294C631.133 228.448 554.516 319.354 484.816 319.896C415.546 320.438 377.489 231.612 350.051 144.084C322.493 56.0303 294.114 -39.5689 231.577 -67.0897C176.433 -91.0805 106.551 -56.6411 41.7151 -40.8364C-24.7078 -24.9172 -95.0368 -39.1897 -116.276 -122.008C-136.596 -201.242 -109.538 -314.824 -142.11 -375.748" stroke="white" stroke-opacity="0.03" stroke-width="2.66666" stroke-miterlimit="10"/>
<path d="M868.132 469.199C882.541 379.013 867.467 296.171 832.432 247.435C800.06 202.405 750.357 184.722 697.165 201.707C623.774 225.142 548.558 309.831 481.935 306.915C415.983 304.026 380.889 216.237 354.201 130.385C327.271 43.4829 297.442 -47.6536 235.355 -72.2869C180.463 -94.0661 111.312 -58.6455 47.2664 -43.6987C-20.0164 -27.9964 -88.6746 -47.4517 -111.98 -129.188C-134.914 -209.62 -115.463 -318.395 -152.489 -373.547" stroke="white" stroke-opacity="0.03" stroke-width="2.66666" stroke-miterlimit="10"/>
<path d="M868.236 467.344C881.68 373.667 863.132 290.113 825.111 242.629C791.374 200.495 741.743 183.987 688.625 200.117C616.406 222.044 542.61 300.319 479.058 293.924C416.439 287.626 384.296 200.854 358.356 116.678C332.052 30.9247 300.718 -55.5987 239.138 -77.4887C184.452 -96.9282 116.095 -60.8038 52.8228 -46.5624C-15.3032 -31.2275 -82.3691 -55.6771 -107.678 -136.373C-133.274 -217.981 -121.385 -321.972 -162.867 -371.348" stroke="white" stroke-opacity="0.03" stroke-width="2.66667" stroke-miterlimit="10"/>
<path d="M868.34 465.491C880.822 368.324 858.878 283.993 817.792 237.823C782.783 198.478 733.132 183.266 680.095 198.524C609.046 218.967 536.68 290.822 476.183 280.932C416.909 271.241 387.707 185.469 362.518 102.967C336.843 18.3658 303.992 -63.536 242.925 -82.6919C188.44 -99.7828 120.885 -62.9786 58.3847 -49.4267C-10.5848 -34.471 -76.1139 -63.8637 -103.372 -143.559C-131.676 -226.316 -127.306 -325.548 -173.245 -369.148" stroke="white" stroke-opacity="0.03" stroke-width="2.66667" stroke-miterlimit="10"/>
<path d="M868.446 463.631C879.962 362.972 854.694 277.793 810.465 233.013C774.265 196.355 724.52 182.552 671.553 196.933C601.672 215.904 530.759 281.346 473.307 267.934C417.39 254.878 391.125 170.075 366.683 89.2492C341.633 5.79777 307.264 -71.4667 246.713 -87.8979C192.424 -102.631 125.68 -65.1699 63.9512 -52.2929C-5.86122 -37.7298 -69.9034 -72.0098 -99.0605 -150.748C-130.118 -234.619 -133.225 -329.125 -183.623 -366.945" stroke="white" stroke-opacity="0.03" stroke-width="2.66666" stroke-miterlimit="10"/>
<path d="M868.551 461.771C879.109 357.619 850.589 271.503 803.15 228.201C765.821 194.132 715.909 181.851 663.024 195.34C594.308 212.86 524.853 271.893 470.437 254.927C417.884 238.545 394.546 154.673 370.853 75.5282C346.434 -6.77295 310.534 -79.3898 250.51 -93.1073C196.41 -105.471 130.482 -67.3769 69.5228 -55.1619C-1.1313 -41.003 -63.7309 -80.1177 -94.7439 -157.942C-128.596 -242.89 -139.142 -332.705 -194.001 -364.742" stroke="white" stroke-opacity="0.03" stroke-width="2.66667" stroke-miterlimit="10"/>
<path d="M868.66 459.909C878.257 352.262 846.552 265.107 795.828 223.385C757.44 191.806 707.294 181.16 654.485 193.743C586.943 209.837 518.956 262.475 467.569 241.918C418.384 222.242 397.97 139.267 375.029 61.7979C351.238 -19.3499 313.8 -87.3051 254.311 -98.3202C200.393 -108.304 135.289 -69.601 75.0994 -58.0329C3.60398 -44.2922 -57.592 -88.1888 -90.4233 -165.14C-127.109 -251.125 -145.059 -336.287 -204.381 -362.54" stroke="white" stroke-opacity="0.03" stroke-width="2.66667" stroke-miterlimit="10"/>
<path d="M868.778 458.045C877.404 346.901 842.567 258.603 788.511 218.568C749.105 189.384 698.678 180.482 645.947 192.146C579.571 206.826 513.068 253.098 464.701 228.903C418.89 205.985 401.399 123.851 379.21 48.0617C356.045 -31.9352 317.068 -95.2087 258.113 -103.536C204.375 -111.126 140.103 -71.8403 80.68 -60.9064C8.34508 -47.5956 -51.4815 -96.2237 -86.0976 -172.341C-125.654 -259.321 -150.974 -339.87 -214.76 -360.336" stroke="white" stroke-opacity="0.03" stroke-width="2.66667" stroke-miterlimit="10"/>
<path d="M868.881 456.179C876.55 341.538 833.415 263.24 781.181 213.749C744.474 178.969 690.057 179.82 637.403 190.552C572.198 203.839 509.379 238.131 461.834 215.882C417.335 195.06 404.832 108.432 383.389 34.3218C360.856 -44.5209 320.328 -103.099 261.919 -108.751C208.356 -113.935 144.92 -74.0899 86.2642 -63.7773C13.091 -50.9131 -45.3973 -104.221 -81.7686 -179.54C-124.23 -267.472 -156.889 -343.45 -225.141 -358.126" stroke="white" stroke-opacity="0.03" stroke-width="2.66666" stroke-miterlimit="10"/>
<path d="M869.001 454.311C875.703 336.172 829.629 256.845 773.863 208.926C736.032 176.415 681.442 179.169 628.868 188.952C564.823 200.867 501.279 234.505 458.971 202.856C419.895 173.628 408.27 93.0071 387.58 20.5731C365.673 -57.1159 323.589 -110.98 265.733 -113.972C212.334 -116.734 149.746 -76.3581 91.8543 -66.654C17.8446 -54.2487 -39.3322 -112.188 -77.4338 -186.747C-122.832 -275.586 -162.802 -347.035 -235.522 -355.919" stroke="white" stroke-opacity="0.03" stroke-width="2.66667" stroke-miterlimit="10"/>
<path d="M869.114 452.443C874.858 330.807 825.988 250.098 766.539 204.103C727.553 173.933 672.818 178.536 620.329 187.355C557.449 197.919 495.373 225.306 456.11 189.828C420.383 157.541 411.713 77.5738 391.771 6.82419C370.497 -69.7137 326.852 -118.845 269.548 -119.193C216.314 -119.517 154.579 -78.636 97.4497 -69.5293C22.6056 -57.5987 -33.2831 -120.122 -73.0926 -193.954C-121.458 -283.656 -168.712 -350.618 -245.902 -353.708" stroke="white" stroke-opacity="0.03" stroke-width="2.66667" stroke-miterlimit="10"/>
<path d="M869.227 450.578C874.007 325.443 822.478 242.997 759.211 199.286C719.043 171.53 664.193 177.929 611.781 185.766C550.07 194.996 489.435 216.186 453.251 176.799C420.848 141.53 415.159 62.1443 395.97 -6.92296C375.323 -82.3054 330.114 -126.683 273.371 -124.404C220.295 -122.273 159.418 -80.916 103.054 -72.3956C27.3788 -60.9554 -27.2425 -128.013 -68.7411 -201.151C-120.101 -291.67 -174.614 -354.186 -256.273 -351.48" stroke="white" stroke-opacity="0.03" stroke-width="2.66666" stroke-miterlimit="10"/>
<path d="M869.341 448.718C873.152 320.085 823.368 224.297 751.889 194.478C707.88 176.118 655.561 177.347 603.237 184.183C542.683 192.099 483.466 207.153 450.396 163.779C421.284 125.598 418.614 46.7241 400.176 -20.6631C380.159 -94.8891 333.378 -134.493 277.201 -129.604C224.281 -125 164.27 -83.197 108.667 -75.2514C32.1635 -64.3181 -21.2087 -135.864 -64.3791 -208.338C-118.759 -299.629 -180.507 -357.741 -266.638 -349.237" stroke="white" stroke-opacity="0.03" stroke-width="2.66667" stroke-miterlimit="10"/>
<path d="M869.453 446.861C872.302 314.729 819.628 217.081 744.557 189.673C699.682 173.288 646.925 176.79 594.697 182.609C535.296 189.227 477.45 198.202 447.545 150.756C421.684 109.733 422.073 31.3014 404.385 -34.4007C384.998 -107.469 336.646 -142.277 281.035 -134.799C228.273 -127.702 169.131 -85.4823 114.289 -78.101C36.9617 -67.6931 -15.1776 -143.682 -60.0063 -215.519C-117.429 -307.538 -186.391 -361.287 -276.994 -346.982" stroke="white" stroke-opacity="0.03" stroke-width="2.66667" stroke-miterlimit="10"/>
<path d="M869.559 445.01C871.445 309.384 815.899 209.757 737.219 184.881C691.475 170.419 638.278 176.265 586.146 181.047C527.904 186.388 471.375 189.332 444.693 137.746C422.033 93.9398 425.532 15.8894 408.597 -48.1241C389.841 -120.033 339.913 -150.027 284.874 -139.976C232.266 -130.368 173.999 -87.7609 119.918 -80.9344C41.7701 -71.0695 -9.15063 -151.455 -55.6243 -222.682C-116.111 -315.386 -192.268 -364.812 -287.341 -344.705" stroke="white" stroke-opacity="0.03" stroke-width="2.66666" stroke-miterlimit="10"/>
<path d="M869.668 443.162C870.59 304.04 812.195 202.322 729.888 180.092C683.283 167.503 629.631 175.763 577.604 179.486C520.508 183.574 465.235 180.527 441.848 124.737C422.336 78.1926 429 0.481585 412.818 -61.8476C394.693 -132.597 343.189 -157.753 288.721 -145.15C236.265 -133.012 178.876 -90.0471 125.555 -83.7648C46.5912 -74.4613 -3.12447 -159.201 -51.2329 -229.843C-114.804 -323.19 -198.137 -368.332 -297.682 -342.422" stroke="white" stroke-opacity="0.03" stroke-width="2.66667" stroke-miterlimit="10"/>
<path d="M869.771 441.318C869.729 298.704 808.502 194.779 722.551 175.309C675.079 164.557 620.977 175.291 569.057 177.936C513.108 180.783 459.017 171.77 439.001 111.729C422.582 62.4813 432.47 -14.9235 417.037 -75.5637C399.542 -145.151 346.462 -165.45 292.567 -150.313C240.267 -135.624 183.76 -92.3332 131.196 -86.5856C51.421 -77.8633 2.89853 -166.913 -46.8362 -236.994C-113.509 -330.942 -204 -371.838 -308.016 -340.124" stroke="white" stroke-opacity="0.03" stroke-width="2.66666" stroke-miterlimit="10"/>
<path d="M869.877 439.48C868.87 293.371 804.821 187.135 715.215 170.534C666.867 161.579 612.311 174.851 560.505 176.392C505.702 178.022 452.724 163.043 436.157 98.7314C422.773 46.7795 435.942 -30.3212 421.262 -89.2727C404.398 -157.699 349.747 -173.119 296.419 -155.467C244.277 -138.207 188.651 -94.6196 136.844 -89.3984C56.2611 -81.2763 8.92054 -174.594 -42.4317 -244.135C-112.223 -338.645 -209.857 -375.333 -318.346 -337.815" stroke="white" stroke-opacity="0.03" stroke-width="2.66666" stroke-miterlimit="10"/>
<path d="M869.981 437.644C868.009 288.042 801.136 179.392 707.87 165.764C658.66 158.574 603.643 174.436 551.958 174.851C498.29 175.283 446.363 154.318 433.314 85.7353C422.915 31.0697 439.417 -45.7158 425.488 -102.978C409.255 -170.241 353.034 -180.765 300.276 -160.616C248.293 -140.764 193.548 -96.9097 142.496 -92.2052C61.1106 -84.7058 14.9427 -182.249 -38.0219 -251.272C-110.946 -346.305 -215.71 -378.822 -328.671 -335.497" stroke="white" stroke-opacity="0.03" stroke-width="2.66667" stroke-miterlimit="10"/>
<path d="M870.084 435.811C867.141 282.716 797.46 171.556 700.53 160.999C650.433 155.541 594.959 174.054 543.41 173.318C490.869 172.571 439.939 145.572 430.474 72.7412C423.015 15.3321 442.893 -61.1061 429.718 -116.677C414.115 -182.778 356.33 -188.385 304.131 -165.757C252.316 -143.295 198.472 -99.3097 148.152 -95.0055C66.0012 -88.3265 20.9647 -189.876 -33.6066 -258.4C-109.679 -353.921 -221.558 -382.3 -338.99 -333.17" stroke="white" stroke-opacity="0.03" stroke-width="2.66667" stroke-miterlimit="10"/>
<path d="M870.181 433.979C866.273 277.392 793.781 163.63 693.191 156.237C642.196 152.489 586.27 173.7 534.857 171.789C483.442 169.878 433.459 136.778 427.633 59.7518C423.08 -0.455015 446.369 -76.4937 433.948 -130.373C418.974 -195.31 359.634 -195.986 307.991 -170.893C256.345 -145.802 203.359 -101.497 153.81 -97.8005C70.8363 -91.6108 26.9851 -197.48 -29.1881 -265.523C-108.419 -361.497 -227.402 -385.772 -349.305 -330.835" stroke="white" stroke-opacity="0.03" stroke-width="2.66667" stroke-miterlimit="10"/>
<path d="M227.589 450.386C227.82 450.411 228.058 450.435 228.304 450.452L240.414 451.338C250.53 452.15 254.074 457.098 254.074 462.857C254.074 468.839 249.053 476.961 235.171 476.961C234.473 476.961 233.793 476.942 233.131 476.909L231.94 471.207C232.937 471.299 234.013 471.349 235.171 471.349C244.327 471.349 247.576 467.509 247.576 462.857C247.576 460.199 246.025 457.393 240.044 456.95L228.791 456.141L227.589 450.386ZM276.214 445.209C287.659 445.209 291.721 451.043 291.721 458.796V474.967C291.721 475.41 290.909 476.222 290.466 476.223H287.365C286.921 476.223 286.331 475.41 286.183 474.967L285.223 472.752H285.001L283.894 473.638C281.309 475.705 277.322 476.961 272.892 476.961C265.139 476.961 261.447 472.9 261.447 467.805C261.447 463.153 264.77 459.239 274.073 459.239H285.223V458.058C285.223 453.701 283.524 450.821 276.214 450.821C271.046 450.821 269.052 452.372 269.052 455.547V455.769C269.052 456.211 268.24 456.432 267.797 456.433H263.809C263.366 456.432 262.554 455.621 262.554 455.178V454.956C262.554 449.27 266.468 445.209 276.214 445.209ZM339.574 445.209C350.207 445.209 355.302 451.633 355.302 459.165C355.302 461.071 355.083 462.905 355.08 462.931H329.458C330.049 468.026 334.553 471.349 340.165 471.349C344.152 471.349 347.253 470.463 350.133 467.805C350.502 467.435 350.724 467.066 351.536 467.066C352.201 467.066 352.349 467.214 352.718 467.583L354.269 469.06C354.638 469.429 354.785 469.724 354.785 470.241C354.785 470.98 354.416 471.275 353.9 471.792C350.651 474.967 346.146 476.961 340.165 476.961C331.009 476.961 322.812 471.497 322.812 461.085C322.812 452.076 329.237 445.209 339.574 445.209ZM314.659 426.749C317.465 426.749 319.754 427.339 321.305 428.004C321.969 428.299 322.339 428.521 322.339 429.038C322.339 429.407 322.191 429.703 321.97 430.146L320.641 432.73C320.346 433.247 319.902 433.395 319.238 433.1C318.056 432.657 316.579 432.361 314.881 432.361C311.78 432.361 308.752 434.059 308.752 438.858V445.947H318.795C319.238 445.948 319.828 446.539 319.828 446.981V450.525C319.828 450.968 319.238 451.559 318.795 451.56H308.752V474.967C308.752 475.41 307.94 476.222 307.497 476.223H303.51C303.067 476.223 302.254 475.41 302.254 474.967V451.56H298.267C297.824 451.559 297.234 450.968 297.234 450.525V446.981C297.234 446.538 297.824 445.947 298.267 445.947H302.254V438.858C302.254 430.441 308.088 426.749 314.659 426.749ZM274.073 464.112C269.126 464.112 267.945 465.959 267.945 467.805C267.945 469.946 269.569 471.349 272.892 471.349C277.839 471.349 282.565 469.503 285.223 467.361V464.112H274.073ZM339.574 450.821C334.701 450.821 330.418 453.11 329.606 458.058H348.731C348.362 453.11 345.038 450.821 339.574 450.821ZM233.547 431.18C247.281 431.18 252.229 437.456 252.229 445.062C252.229 445.431 251.933 445.8 251.12 445.8H246.764C246.026 445.8 245.73 445.578 245.656 444.545C245.287 440.705 242.186 436.791 233.547 436.791C230.091 436.791 227.245 437.54 225.168 438.799L223.931 432.869C226.541 431.809 229.736 431.18 233.547 431.18Z" fill="#77A2DD"/>
<path d="M184.707 447.238C185.15 447.238 185.962 448.05 185.962 448.493V464.96C185.962 469.686 188.104 472.639 192.387 472.639C197.482 472.639 201.469 469.686 202.872 465.698V448.493C202.872 448.05 203.684 447.239 204.127 447.238H208.114C208.557 447.238 209.37 448.05 209.37 448.493V476.258C209.37 476.701 208.557 477.513 208.114 477.513H205.087C204.57 477.513 204.054 476.774 203.832 476.184L202.872 473.82H202.503L202.134 474.189C199.919 476.405 196.374 478.251 192.018 478.251C183.157 478.251 179.464 472.861 179.464 464.96V448.493C179.464 448.05 180.277 447.238 180.72 447.238H184.707ZM137.384 433.208C138.27 433.208 138.418 433.208 139.156 434.094L152.964 450.561H153.111C154.071 449.158 155.918 446.499 156.804 445.392L166.256 434.094C166.994 433.208 167.142 433.208 168.027 433.208H173.861C174.156 433.208 174.304 433.43 174.304 433.651C174.304 433.799 174.23 434.021 174.009 434.242L156.729 455.065L174.747 476.479C174.968 476.7 175.043 476.922 175.043 477.069C175.043 477.291 174.895 477.513 174.6 477.513H168.545C167.659 477.513 167.511 477.513 166.772 476.627L152.004 459.053H151.856C151.044 460.382 149.862 462.375 149.124 463.188L138.122 476.627C137.384 477.513 137.236 477.513 136.35 477.513H130.442C130.147 477.513 130 477.291 130 477.069C130 476.922 130.074 476.7 130.295 476.479L148.164 454.548L131.107 434.242C130.886 434.021 130.812 433.799 130.812 433.651C130.812 433.43 130.96 433.208 131.255 433.208H137.384ZM224.694 461.044V476.258C224.694 476.701 223.881 477.513 223.438 477.513H219.451C219.008 477.512 218.197 476.701 218.196 476.258V430.033C218.196 429.784 218.456 429.419 218.76 429.146L224.694 461.044Z" fill="white"/>
</g>
<defs>
<!-- <linearGradient id="paint0_linear_196_3968" x1="123" y1="621" x2="502" y2="-275.5" gradientUnits="userSpaceOnUse">
<stop stop-color="#0D4896"/>
<stop offset="1" stop-color="#1A6DE3"/>
</linearGradient> -->
<clipPath id="clip0_196_3968">
<rect width="440" height="956" fill="white"/>
</clipPath>
</defs>
</svg>
