<svg width="440" height="956" viewBox="0 0 440 956" fill="none" xmlns="http://www.w3.org/2000/svg">
<path d="M491.115 1263.68C519.412 1210.71 533.159 1143.47 526.428 1090.97C519.698 1038.48 492.696 1002.36 457.074 998.212C416.789 993.518 368.814 1026.89 330.293 1015.92C283.479 1002.58 264.884 929.762 237.246 877.082C199.206 804.585 137.418 765.88 67.3045 770.621C11.8213 774.374 -47.1247 803.999 -104.024 817.068C-160.925 830.138 -219.789 823.691 -249.34 765.561C-281.083 703.112 -271.543 597.098 -296.129 525.69C-325.879 439.28 -409.224 420.998 -482.179 484.879" stroke="white" stroke-opacity="0.02" stroke-width="2.66667" stroke-miterlimit="10"/>
<path d="M499.915 1259.16C527.644 1204.74 540.36 1136.82 532.555 1084.38C524.855 1032.15 497.008 996.777 460.769 993.38C457.652 993.086 454.488 993.014 451.29 993.131C412.472 994.531 368.414 1023.3 332.102 1015.17C314.475 1011.23 300.524 999.364 288.477 983.125C267.794 955.355 253.116 914.659 235.338 880.972C221.919 855.549 205.955 833.678 187.984 816.075C154.158 782.898 112.904 764.461 67.3925 765.316C56.2572 765.518 44.9354 766.823 33.4538 768.929C-11.9617 777.289 -59.383 798.426 -105.457 809.179C-111.262 810.534 -117.085 811.696 -122.892 812.628C-174.826 820.964 -225.943 810.259 -252.378 756.75C-282.747 695.277 -273.779 592.577 -297.063 522.519C-325.236 437.713 -404.443 417.807 -474.663 476.898" stroke="white" stroke-opacity="0.02" stroke-width="2.66668" stroke-miterlimit="10"/>
<path d="M508.709 1254.63C535.872 1198.77 547.558 1130.16 538.673 1077.79C530.012 1025.81 501.327 991.191 464.467 988.546C461.296 988.317 458.083 988.311 454.83 988.496C415.402 990.717 370.949 1020.56 333.908 1014.43C315.931 1011.46 301.457 1000.76 288.825 985.39C267.071 959.126 251.548 918.993 233.423 884.861C219.794 859.174 203.926 836.524 186.264 817.934C153.002 782.843 112.726 761.399 67.4801 760.015C56.4026 759.658 45.0904 760.457 33.5518 762.16C-12.05 768.926 -60.1652 790.214 -106.889 801.293C-112.776 802.688 -118.678 803.895 -124.563 804.87C-177.181 813.61 -229.131 802.695 -255.414 747.943C-284.438 687.485 -276.014 588.058 -297.996 519.349C-324.593 436.148 -399.663 414.618 -467.146 468.919" stroke="white" stroke-opacity="0.02" stroke-width="2.66667" stroke-miterlimit="10"/>
<path d="M517.512 1250.1C544.101 1192.8 554.662 1123.59 544.802 1071.21C535.076 1019.56 505.644 985.608 468.167 983.712C464.942 983.549 461.675 983.609 458.373 983.86C418.336 986.904 373.479 1017.81 335.72 1013.69C317.391 1011.69 302.396 1002.15 289.174 987.659C266.343 962.898 249.977 923.328 231.515 888.751C217.676 862.804 201.901 839.375 184.546 819.794C151.847 782.789 112.545 758.338 67.5698 754.712C56.5493 753.799 45.244 754.091 33.6537 755.389C-12.1376 760.564 -60.9471 782.005 -108.321 793.403C-114.29 794.84 -120.271 796.091 -126.233 797.114C-179.536 806.256 -232.326 795.147 -258.451 739.136C-286.156 679.736 -278.248 583.54 -298.929 516.18C-323.949 434.583 -394.881 411.427 -459.629 460.939" stroke="white" stroke-opacity="0.02" stroke-width="2.66667" stroke-miterlimit="10"/>
<path d="M526.306 1245.58C552.332 1186.83 561.841 1116.97 550.923 1064.62C540.213 1013.26 509.962 980.023 471.866 978.88C468.592 978.783 465.27 978.908 461.918 979.227C421.274 983.095 376.016 1015.06 337.529 1012.95C318.85 1011.93 303.363 1003.48 289.523 989.93C265.666 966.57 248.403 927.664 229.61 892.644C215.554 866.436 199.874 842.223 182.83 821.657C150.692 782.739 112.368 755.279 67.6591 749.413C56.6944 747.941 45.4011 747.732 33.7536 748.623C-12.2239 752.204 -61.727 773.795 -109.751 785.516C-115.803 786.994 -121.863 788.289 -127.902 789.359C-181.89 798.907 -235.53 787.625 -261.486 730.327C-287.898 672.028 -280.481 579.023 -299.86 513.014C-323.303 433.021 -390.097 408.241 -452.109 452.962" stroke="white" stroke-opacity="0.02" stroke-width="2.66667" stroke-miterlimit="10"/>
<path d="M535.112 1241.05C560.562 1180.87 569.026 1110.34 557.051 1058.03C545.356 1006.95 514.281 974.44 475.567 974.049C472.238 974.014 468.866 974.208 465.458 974.596C424.204 979.284 378.55 1012.32 339.341 1012.21C320.309 1012.16 304.312 1004.86 289.877 992.202C264.95 970.33 246.839 932.003 227.699 896.535C213.435 870.069 197.851 845.074 181.114 823.521C149.537 782.688 112.193 752.221 67.7513 744.112C56.844 742.085 45.5573 741.369 33.8583 741.854C-12.3054 743.845 -62.5055 765.586 -111.181 777.631C-117.313 779.148 -123.453 780.49 -129.568 781.602C-184.241 791.556 -238.742 780.123 -264.52 721.523C-289.664 664.363 -282.712 574.508 -300.79 509.848C-322.655 431.459 -385.312 405.054 -444.587 444.986" stroke="white" stroke-opacity="0.02" stroke-width="2.66667" stroke-miterlimit="10"/>
<path d="M543.908 1236.53C568.799 1174.9 576.211 1103.71 563.177 1051.45C550.505 1000.64 518.593 968.858 479.268 969.221C475.883 969.251 472.461 969.507 469.003 969.964C427.14 975.476 381.089 1009.57 341.153 1011.48C321.772 1012.4 305.248 1006.25 290.229 994.473C264.231 974.091 245.271 936.344 225.796 900.432C211.315 873.701 195.825 847.931 179.397 825.387C148.384 782.641 112.015 749.167 67.8431 738.819C56.9939 736.232 45.7165 735.01 33.96 735.092C-12.3893 735.489 -63.2833 757.383 -112.608 769.75C-118.822 771.306 -125.042 772.692 -131.234 773.852C-186.592 784.208 -241.965 772.648 -267.551 712.723C-291.454 656.738 -284.942 569.997 -301.717 506.687C-322.005 429.903 -380.524 401.874 -437.062 437.014" stroke="white" stroke-opacity="0.02" stroke-width="2.66666" stroke-miterlimit="10"/>
<path d="M552.714 1232.01C577.027 1168.94 583.405 1097.08 569.303 1044.87C555.659 994.33 522.917 963.282 482.971 964.394C479.536 964.49 476.058 964.811 472.549 965.337C430.078 971.673 383.625 1006.83 342.967 1010.74C323.234 1012.64 306.194 1007.64 290.585 996.75C263.509 977.858 243.702 940.687 223.891 904.331C209.198 877.339 193.804 850.786 177.685 827.256C147.233 782.597 111.842 746.114 67.9378 733.523C57.1433 730.38 45.876 728.656 34.0653 728.327C-12.4705 727.134 -64.0584 749.179 -114.033 761.869C-120.33 763.468 -126.628 764.898 -132.897 766.102C-188.94 776.861 -245.201 765.198 -270.58 703.921C-293.266 649.147 -287.169 565.487 -302.642 503.528C-321.354 428.348 -375.733 398.694 -429.535 429.044" stroke="white" stroke-opacity="0.02" stroke-width="2.66667" stroke-miterlimit="10"/>
<path d="M561.519 1227.49C585.261 1162.98 590.6 1090.45 575.433 1038.29C560.815 988.02 527.236 957.705 486.671 959.569C483.185 959.731 479.656 960.118 476.095 960.71C433.019 967.869 386.162 1004.09 344.785 1010.01C324.696 1012.89 307.136 1009.04 290.935 999.028C262.786 981.63 242.134 945.035 221.986 908.232C207.081 880.979 191.781 853.648 175.971 829.131C146.084 782.555 111.668 743.065 68.0332 728.235C57.2963 724.532 46.0388 722.302 34.1732 721.571C-12.5507 718.783 -64.8312 740.978 -115.456 753.991C-121.835 755.63 -128.212 757.105 -134.559 758.353C-191.285 769.518 -248.45 757.779 -273.607 695.125C-295.1 641.596 -289.393 560.982 -303.565 500.373C-320.699 426.798 -370.94 395.52 -422.005 421.078" stroke="white" stroke-opacity="0.02" stroke-width="2.66667" stroke-miterlimit="10"/>
<path d="M570.317 1222.97C593.493 1157.01 597.8 1083.82 581.554 1031.71C565.972 981.705 531.548 952.13 490.376 954.748C486.833 954.974 483.253 955.427 479.641 956.088C435.949 964.067 388.7 1001.35 346.597 1009.28C326.157 1013.13 308.077 1010.44 291.295 1001.31C262.061 985.41 240.573 949.383 220.082 912.136C204.962 884.619 189.761 856.509 174.258 831.005C144.935 782.515 111.497 740.019 68.1269 722.946C57.4508 718.688 46.2024 715.951 34.2806 714.813C-12.6292 710.435 -65.6038 732.783 -116.878 746.115C-123.338 747.796 -129.795 749.318 -136.218 750.61C-193.629 762.18 -251.715 750.387 -276.631 686.332C-296.955 634.081 -291.615 556.481 -304.485 497.222C-320.041 425.253 -366.144 392.35 -414.472 413.118" stroke="white" stroke-opacity="0.02" stroke-width="2.66666" stroke-miterlimit="10"/>
<path d="M579.117 1218.45C601.727 1151.05 605.004 1077.18 587.682 1025.14C571.132 975.395 535.871 946.559 494.075 949.932C490.482 950.221 486.85 950.74 483.186 951.469C438.886 960.271 391.24 998.618 348.412 1008.55C327.623 1013.38 309.025 1011.84 291.65 1003.59C261.343 989.194 239.01 953.734 218.181 916.043C202.848 888.266 187.745 859.374 172.55 832.884C143.789 782.48 111.329 736.977 68.2272 717.661C57.6063 712.847 46.3673 709.608 34.3941 708.064C-12.7036 702.092 -66.3713 724.59 -118.294 738.244C-124.837 739.966 -131.373 741.532 -137.873 742.871C-195.967 754.843 -254.996 743.026 -279.65 677.541C-298.828 626.6 -293.832 551.984 -305.4 494.076C-319.379 423.713 -361.343 389.186 -406.933 405.162" stroke="white" stroke-opacity="0.02" stroke-width="2.66666" stroke-miterlimit="10"/>
<path d="M587.926 1213.94C609.963 1145.1 612.211 1070.55 593.818 1018.57C576.3 969.083 540.193 940.996 497.783 945.118C494.135 945.473 490.448 946.057 486.735 946.852C441.829 956.477 393.782 995.885 350.229 1007.83C329.091 1013.63 309.97 1013.25 292.011 1005.88C260.622 992.987 237.451 958.089 216.284 919.955C200.738 891.917 185.729 862.246 170.844 834.766C142.643 782.452 111.163 733.94 68.3306 712.385C57.7682 707.012 46.5387 703.266 34.508 701.316C-12.7724 693.753 -67.135 716.4 -119.707 730.38C-126.331 732.14 -132.947 733.749 -139.524 735.136C-198.302 747.511 -258.298 735.701 -282.665 668.757C-300.721 619.152 -296.045 547.491 -306.311 490.935C-318.713 422.177 -356.538 386.026 -399.391 397.212" stroke="white" stroke-opacity="0.02" stroke-width="2.66667" stroke-miterlimit="10"/>
<path d="M596.726 1209.42C618.194 1139.15 619.42 1063.92 599.94 1012C581.471 962.773 544.511 935.435 501.488 940.309C497.789 940.73 494.052 941.376 490.282 942.243C444.771 952.689 396.326 993.16 352.051 1007.11C330.56 1013.88 310.912 1014.67 292.373 1008.17C259.904 996.788 235.895 962.449 214.387 923.871C198.63 895.573 183.718 865.121 169.142 836.655C141.503 782.427 111 730.91 68.4367 707.112C57.932 701.186 46.7102 696.932 34.6283 694.575C-12.8402 685.422 -67.8954 708.221 -121.116 722.521C-127.822 724.323 -134.517 725.978 -141.17 727.405C-200.631 740.186 -261.621 728.42 -285.674 659.98C-302.628 611.738 -298.252 543.008 -307.216 487.804C-318.041 420.652 -351.726 382.878 -391.841 389.271" stroke="white" stroke-opacity="0.02" stroke-width="2.66667" stroke-miterlimit="10"/>
<path d="M605.525 1204.92C626.423 1133.2 626.628 1057.28 606.064 1005.44C586.637 956.463 548.827 929.88 505.187 935.507C501.438 935.99 497.644 936.705 493.829 937.64C447.709 948.909 398.863 990.44 353.871 1006.4C332.026 1014.15 311.857 1016.09 292.734 1010.47C259.18 1000.59 234.336 966.813 212.493 927.794C196.521 899.232 181.704 868.002 167.437 838.55C140.363 782.41 110.836 727.888 68.5441 701.852C58.0948 695.367 46.8853 690.61 34.7469 687.847C-12.9056 677.1 -68.6521 700.048 -122.521 714.67C-129.309 716.513 -136.083 718.211 -142.812 719.687C-202.956 732.869 -264.969 721.179 -288.677 651.211C-304.553 604.36 -300.453 538.536 -308.115 484.683C-317.363 419.14 -346.909 379.741 -384.286 381.344" stroke="white" stroke-opacity="0.02" stroke-width="2.66666" stroke-miterlimit="10"/>
<path d="M614.325 1200.41C634.652 1127.26 633.842 1050.65 612.191 998.886C591.806 950.16 553.151 924.333 508.89 930.711C505.084 931.259 501.245 932.04 497.374 933.041C450.648 945.132 401.407 987.726 355.689 1005.69C333.493 1014.41 312.806 1017.52 293.097 1012.76C258.464 1004.41 232.783 971.183 210.602 931.721C194.419 902.9 179.698 870.892 165.739 840.452C139.229 782.403 110.681 724.871 68.6574 696.596C58.2666 689.556 47.0674 684.293 34.8749 681.124C-12.9644 668.786 -69.4018 691.886 -123.918 706.826C-130.788 708.711 -137.64 710.455 -144.446 711.975C-205.272 725.562 -268.343 713.984 -291.671 642.452C-306.489 597.013 -302.645 534.071 -309.005 481.572C-316.676 417.636 -342.083 376.615 -376.722 373.428" stroke="white" stroke-opacity="0.02" stroke-width="2.66666" stroke-miterlimit="10"/>
<path d="M623.13 1195.91C642.886 1121.32 641.057 1044.02 618.317 992.336C596.986 943.855 557.47 918.791 512.598 925.919C508.741 926.533 504.845 927.379 500.927 928.449C453.593 941.359 403.953 985.015 357.516 1004.99C334.973 1014.68 313.761 1018.95 293.467 1015.07C257.753 1008.23 231.235 975.556 208.717 935.652C192.322 906.572 177.696 873.783 164.048 842.361C138.1 782.396 110.531 721.862 68.7766 691.348C58.441 683.749 47.2517 677.981 35.0054 674.408C-13.0177 660.478 -70.1456 683.726 -125.309 698.991C-132.26 700.912 -139.192 702.701 -146.075 704.268C-207.582 718.257 -271.752 706.835 -294.658 633.697C-308.439 589.693 -304.83 529.613 -309.889 478.466C-315.982 416.137 -337.251 373.494 -369.152 365.516" stroke="white" stroke-opacity="0.02" stroke-width="2.66666" stroke-miterlimit="10"/>
<path d="M631.931 1191.41C651.115 1115.38 648.275 1037.39 624.438 985.786C602.16 937.547 561.788 913.248 516.301 921.127C512.393 921.806 508.445 922.717 504.476 923.853C456.536 937.59 406.496 982.301 359.337 1004.28C336.445 1014.95 314.695 1020.45 293.836 1017.37C257.011 1012.17 229.688 979.931 206.83 939.582C190.223 910.239 175.694 876.676 162.353 844.265C136.97 782.39 110.378 718.852 68.8937 686.098C58.6169 677.943 47.4375 671.672 35.1375 667.691C-13.0688 652.171 -70.8907 675.566 -126.701 691.153C-133.734 693.118 -140.744 694.948 -147.703 696.559C-209.892 710.952 -275.208 699.736 -297.646 624.943C-310.411 582.392 -307.016 525.154 -310.773 475.36C-315.29 414.64 -332.419 370.375 -361.582 357.607" stroke="white" stroke-opacity="0.02" stroke-width="2.66666" stroke-miterlimit="10"/>
<path d="M640.73 1186.91C659.348 1109.45 655.494 1030.75 630.564 979.234C607.341 931.235 566.11 907.703 520.01 916.335C516.044 917.079 512.051 918.056 508.03 919.26C459.481 933.816 409.048 979.59 361.168 1003.57C337.925 1015.22 315.652 1021.88 294.208 1019.68C256.307 1015.97 228.141 984.302 204.946 943.51C188.127 913.908 173.692 879.565 160.66 846.169C135.839 782.386 110.228 715.841 69.0131 680.849C58.7945 672.136 47.6221 665.359 35.2686 660.975C-13.1219 643.862 -71.6341 667.409 -128.092 683.314C-135.206 685.32 -142.296 687.197 -149.331 688.852C-212.202 703.647 -278.716 692.686 -300.632 616.187C-312.402 575.107 -309.201 520.694 -311.656 472.253C-314.596 413.141 -327.588 367.253 -354.013 349.695" stroke="white" stroke-opacity="0.02" stroke-width="2.66667" stroke-miterlimit="10"/>
<path d="M649.538 1182.41C667.579 1103.51 662.786 1024.01 636.695 972.684C612.592 924.831 570.43 902.158 523.713 911.545C519.696 912.351 515.65 913.391 511.577 914.667C462.423 930.042 411.597 976.878 362.991 1002.87C339.402 1015.48 316.609 1023.3 294.579 1021.97C255.603 1019.78 226.595 988.671 203.063 947.435C186.031 917.575 171.694 882.452 158.972 848.072C134.713 782.378 110.077 712.83 69.1337 675.597C58.9704 666.328 47.8104 659.048 35.4004 654.257C-13.1739 635.552 -72.3767 659.249 -129.481 675.476C-136.677 677.521 -143.845 679.443 -150.957 681.145C-214.509 696.341 -282.284 685.692 -303.618 607.432C-314.411 567.838 -311.384 516.234 -312.538 469.146C-313.902 411.641 -322.755 364.131 -346.443 341.785" stroke="white" stroke-opacity="0.02" stroke-width="2.66666" stroke-miterlimit="10"/>
<path d="M658.337 1177.91C675.813 1097.57 669.993 1017.39 642.819 966.136C617.752 918.541 574.754 896.619 527.424 906.753C523.354 907.626 519.25 908.73 515.13 910.072C465.367 926.271 414.149 974.168 364.82 1002.16C340.881 1015.75 317.569 1024.73 294.948 1024.28C254.9 1023.59 225.05 993.041 201.183 951.363C183.937 921.241 169.694 885.344 157.28 849.975C133.586 782.37 109.928 709.82 69.2537 670.35C59.1486 660.523 47.9993 652.737 35.5354 647.541C-13.2258 627.245 -73.1193 651.091 -130.87 667.641C-138.148 669.724 -145.396 671.692 -152.584 673.436C-216.818 689.04 -285.925 678.758 -306.603 598.678C-316.441 560.582 -313.568 511.775 -313.421 466.038C-313.208 410.14 -317.924 361.009 -338.875 333.875" stroke="white" stroke-opacity="0.02" stroke-width="2.66667" stroke-miterlimit="10"/>
<path d="M667.14 1173.41C684.047 1091.63 677.197 1010.77 648.951 959.584C622.923 912.248 579.081 891.071 531.134 901.957C527.011 902.892 522.861 904.066 518.688 905.477C468.319 922.495 416.697 971.452 366.653 1001.45C342.358 1016.01 318.529 1026.15 295.323 1026.57C254.201 1027.39 223.511 997.406 199.304 955.286C181.846 924.905 167.7 888.226 155.594 851.873C132.464 782.357 109.784 706.805 69.3781 665.095C59.3312 654.713 48.1887 646.422 35.671 640.82C-13.2736 618.933 -73.8581 642.929 -132.256 659.799C-139.615 661.924 -146.942 663.936 -154.207 665.726C-219.121 681.732 -289.645 671.894 -309.585 589.921C-318.485 553.331 -315.748 507.311 -314.299 462.927C-312.509 408.636 -313.088 357.883 -331.303 325.96" stroke="white" stroke-opacity="0.02" stroke-width="2.66667" stroke-miterlimit="10"/>
<path d="M675.951 1168.9C692.284 1085.69 684.402 1004.16 655.084 953.033C625.766 901.908 575.594 882.21 522.242 900.881C446.522 927.38 368.5 1024.88 295.702 1028.87C223.123 1032.85 182.092 942.975 153.909 853.773C125.724 764.569 98.8871 664.244 35.8085 634.101C-19.5138 607.665 -90.2348 641.611 -155.831 658.018C-221.426 674.425 -293.464 665.105 -312.568 581.165C-330.324 503.143 -295.613 384.742 -323.733 318.047" stroke="white" stroke-opacity="0.02" stroke-width="2.66667" stroke-miterlimit="10"/>
<path d="M676.041 1167.05C691.41 1080.35 679.888 998.177 647.753 948.235C616.855 900.205 566.961 881.6 513.701 899.293C439.133 924.447 362.516 1015.35 292.816 1015.9C223.545 1016.44 185.488 927.611 158.05 840.083C130.492 752.029 102.114 656.43 39.5771 628.909C-15.5672 604.919 -85.4494 639.358 -150.285 655.163C-216.708 671.082 -287.037 656.809 -308.276 573.991C-328.596 494.757 -301.538 381.175 -334.111 320.251" stroke="white" stroke-opacity="0.02" stroke-width="2.66666" stroke-miterlimit="10"/>
<path d="M676.132 1165.2C690.541 1075.01 675.467 992.17 640.432 943.434C608.06 898.404 558.357 880.721 505.165 897.706C431.774 921.141 356.558 1005.83 289.935 1002.91C223.983 1000.02 188.889 912.236 162.201 826.384C135.27 739.482 105.442 648.345 43.3547 623.712C-11.5374 601.933 -80.6883 637.354 -144.734 652.3C-212.017 668.003 -280.675 648.547 -303.98 566.811C-326.914 486.379 -307.463 377.604 -344.489 322.452" stroke="white" stroke-opacity="0.02" stroke-width="2.66666" stroke-miterlimit="10"/>
<path d="M676.236 1163.34C689.68 1069.67 671.133 986.112 633.111 938.628C599.374 896.494 549.743 879.986 496.625 896.116C424.407 918.043 350.61 996.318 287.058 989.923C224.439 983.625 192.296 896.853 166.356 812.677C140.052 726.924 108.718 640.4 47.1376 618.51C-7.54774 599.071 -75.9045 635.195 -139.177 649.437C-207.303 664.772 -274.369 640.322 -299.678 559.626C-325.274 478.018 -313.385 374.027 -354.867 324.651" stroke="white" stroke-opacity="0.02" stroke-width="2.66667" stroke-miterlimit="10"/>
<path d="M676.34 1161.49C688.822 1064.32 666.878 979.992 625.792 933.822C590.783 894.477 541.131 879.264 488.095 894.523C417.046 914.965 344.68 986.82 284.183 976.931C224.909 967.24 195.707 881.468 170.518 798.965C144.842 714.364 111.992 632.463 50.9253 613.307C-3.55993 596.216 -71.1147 633.02 -133.615 646.572C-202.585 661.528 -268.114 632.135 -295.372 552.439C-323.676 469.683 -319.306 370.45 -365.245 326.851" stroke="white" stroke-opacity="0.02" stroke-width="2.66667" stroke-miterlimit="10"/>
<path d="M676.446 1159.63C687.963 1058.97 662.694 973.793 618.465 929.013C582.265 892.355 532.52 878.552 479.553 892.933C409.672 911.904 338.759 977.346 281.307 963.934C225.39 950.878 199.125 866.075 174.683 785.249C149.633 701.798 115.264 624.533 54.7134 608.102C0.423907 593.369 -66.3198 630.83 -128.049 643.707C-197.861 658.27 -261.903 623.99 -291.06 545.252C-322.118 461.381 -325.225 366.875 -375.623 329.055" stroke="white" stroke-opacity="0.02" stroke-width="2.66666" stroke-miterlimit="10"/>
<path d="M676.551 1157.77C687.109 1053.62 658.589 967.502 611.15 924.2C573.821 890.131 523.909 877.85 471.024 891.339C402.308 908.859 332.853 967.892 278.437 950.926C225.884 934.544 202.546 850.672 178.853 771.527C154.434 689.226 118.534 616.609 58.5103 602.892C4.4097 590.528 -61.5181 628.622 -122.477 640.837C-193.131 654.996 -255.731 615.881 -286.744 538.057C-320.596 453.109 -331.142 363.294 -386.001 331.257" stroke="white" stroke-opacity="0.02" stroke-width="2.66667" stroke-miterlimit="10"/>
<path d="M676.66 1155.91C686.257 1048.26 654.552 961.107 603.829 919.385C565.44 887.805 515.294 877.16 462.485 889.742C394.943 905.836 326.957 958.474 275.569 937.918C226.384 918.242 205.971 835.267 183.029 757.797C159.238 676.65 121.8 608.694 62.3111 597.679C8.39337 587.695 -56.7108 626.399 -116.901 637.967C-188.396 651.707 -249.592 607.811 -282.423 530.859C-319.109 444.874 -337.059 359.712 -396.381 333.459" stroke="white" stroke-opacity="0.02" stroke-width="2.66667" stroke-miterlimit="10"/>
<path d="M676.778 1154.04C685.404 1042.9 650.567 954.603 596.511 914.567C557.105 885.384 506.678 876.482 453.947 888.146C387.571 902.826 321.069 949.097 272.701 924.903C226.89 901.984 209.399 819.851 187.21 744.061C164.045 664.064 125.068 600.791 66.1133 592.463C12.3752 584.873 -51.8974 624.159 -111.32 635.093C-183.655 648.404 -243.481 599.776 -278.097 523.659C-317.654 436.679 -342.974 356.13 -406.76 335.664" stroke="white" stroke-opacity="0.02" stroke-width="2.66667" stroke-miterlimit="10"/>
<path d="M676.881 1152.18C684.55 1037.54 641.415 959.239 589.181 909.748C552.474 874.968 498.057 875.819 445.404 886.551C380.198 899.838 317.379 934.13 269.834 911.881C225.335 891.059 212.833 804.431 191.389 730.321C168.856 651.478 128.328 592.9 69.9194 587.248C16.3556 582.064 -47.0801 621.909 -105.736 632.222C-178.909 645.086 -237.397 591.778 -273.769 516.459C-316.23 428.527 -348.889 352.549 -417.141 337.873" stroke="white" stroke-opacity="0.02" stroke-width="2.66666" stroke-miterlimit="10"/>
<path d="M677.001 1150.31C683.703 1032.17 637.629 952.845 581.862 904.926C544.032 872.415 489.442 875.169 436.868 884.951C372.823 896.867 309.279 930.505 266.971 898.856C227.895 869.627 216.27 789.007 195.579 716.573C173.673 638.884 131.589 585.019 73.7328 582.028C20.3337 579.266 -42.2545 619.641 -100.146 629.345C-174.155 641.751 -231.332 583.811 -269.434 509.253C-314.832 420.413 -354.802 348.964 -427.522 340.08" stroke="white" stroke-opacity="0.02" stroke-width="2.66667" stroke-miterlimit="10"/>
<path d="M677.114 1148.44C682.858 1026.81 633.988 946.097 574.539 900.102C535.553 869.932 480.818 874.535 428.329 883.354C365.449 893.918 303.373 921.305 264.11 885.827C228.383 853.54 219.713 773.573 199.771 702.823C178.497 626.285 134.852 577.154 77.5477 576.806C24.3136 576.482 -37.4212 617.363 -94.5503 626.47C-169.394 638.4 -225.283 575.877 -265.093 502.045C-313.458 412.343 -360.712 345.381 -437.902 342.291" stroke="white" stroke-opacity="0.02" stroke-width="2.66667" stroke-miterlimit="10"/>
<path d="M677.227 1146.58C682.007 1021.44 630.477 938.996 567.211 895.285C527.043 867.529 472.193 873.928 419.781 881.765C358.07 890.995 297.435 912.185 261.251 872.798C228.848 837.529 223.159 758.143 203.97 689.076C183.323 613.694 138.114 569.316 81.3706 571.595C28.2951 573.726 -32.5817 615.083 -88.9463 623.603C-164.621 635.044 -219.243 567.986 -260.741 494.848C-312.101 404.329 -366.614 341.813 -448.273 344.519" stroke="white" stroke-opacity="0.02" stroke-width="2.66666" stroke-miterlimit="10"/>
<path d="M677.341 1144.72C681.152 1016.08 631.368 920.297 559.889 890.478C515.88 872.118 463.561 873.347 411.237 880.183C350.683 888.099 291.466 903.153 258.396 859.779C229.284 821.598 226.614 742.724 208.176 675.337C188.159 601.111 141.378 561.507 85.2005 566.396C32.2811 571 -27.7296 612.803 -83.333 620.749C-159.837 631.682 -213.209 560.136 -256.379 487.662C-310.759 396.371 -372.507 338.259 -458.638 346.763" stroke="white" stroke-opacity="0.02" stroke-width="2.66667" stroke-miterlimit="10"/>
<path d="M677.452 1142.86C680.301 1010.73 627.628 913.081 552.557 885.673C507.682 869.288 454.925 872.79 402.697 878.609C343.296 885.227 285.45 894.202 255.544 846.756C229.684 805.733 230.073 727.301 212.385 661.599C192.998 588.531 144.646 553.723 89.0344 561.201C36.2733 568.298 -22.8694 610.518 -77.7112 617.899C-155.039 628.307 -207.178 552.318 -252.006 480.481C-309.429 388.462 -378.392 334.713 -468.994 349.018" stroke="white" stroke-opacity="0.02" stroke-width="2.66667" stroke-miterlimit="10"/>
<path d="M677.559 1141.01C679.445 1005.38 623.899 905.756 545.219 880.88C499.475 866.418 446.278 872.264 394.147 877.046C335.905 882.387 279.375 885.331 252.693 833.745C230.033 789.939 233.532 711.888 216.598 647.875C197.842 575.966 147.913 545.972 92.8741 556.023C40.2664 565.631 -18.001 608.238 -72.0822 615.065C-150.23 624.93 -201.15 544.544 -247.624 473.317C-308.111 380.613 -384.268 331.187 -479.341 351.294" stroke="white" stroke-opacity="0.02" stroke-width="2.66666" stroke-miterlimit="10"/>
<path d="M677.668 1139.16C678.59 1000.04 620.195 898.321 537.888 876.091C491.282 863.503 437.631 871.763 385.604 875.485C328.508 879.574 273.235 876.527 249.848 820.736C230.335 774.192 237 696.481 220.818 634.152C202.692 563.403 151.189 538.247 96.7205 550.85C44.2652 562.988 -13.1243 605.952 -66.4454 612.235C-145.409 621.538 -195.125 536.799 -243.233 466.156C-306.804 372.81 -390.137 327.668 -489.682 353.578" stroke="white" stroke-opacity="0.02" stroke-width="2.66667" stroke-miterlimit="10"/>
<path d="M677.771 1137.32C677.729 994.703 616.502 890.778 530.551 871.308C483.079 860.556 428.977 871.29 377.057 873.935C321.108 876.782 267.017 867.769 247.001 807.728C230.582 758.48 240.47 681.076 225.037 620.435C207.542 550.848 154.462 530.549 100.567 545.686C48.2667 560.375 -8.24014 603.666 -60.8036 609.413C-140.579 618.136 -189.101 529.086 -238.836 459.005C-305.509 365.057 -396 324.161 -500.016 355.875" stroke="white" stroke-opacity="0.02" stroke-width="2.66666" stroke-miterlimit="10"/>
<path d="M677.877 1135.48C676.87 989.37 612.821 883.134 523.215 866.533C474.867 857.578 420.311 870.85 368.505 872.391C313.702 874.021 260.724 859.042 244.157 794.73C230.773 742.779 243.942 665.678 229.262 606.726C212.398 538.3 157.747 522.88 104.419 540.532C52.2766 557.792 -3.34882 601.379 -55.1564 606.601C-135.739 614.723 -183.079 521.405 -234.432 451.864C-304.223 357.354 -401.857 320.666 -510.346 358.184" stroke="white" stroke-opacity="0.02" stroke-width="2.66666" stroke-miterlimit="10"/>
<path d="M677.981 1133.64C676.01 984.041 609.136 875.391 515.871 861.763C466.66 854.573 411.643 870.435 359.958 870.85C306.29 871.282 254.363 850.317 241.314 781.734C230.915 727.069 247.417 650.283 233.489 593.021C217.255 525.758 161.034 515.235 108.276 535.383C56.2933 555.235 1.54857 599.089 -49.5042 603.794C-130.889 611.293 -177.057 513.75 -230.022 444.727C-302.946 349.694 -407.71 317.177 -520.671 360.502" stroke="white" stroke-opacity="0.02" stroke-width="2.66667" stroke-miterlimit="10"/>
<path d="M678.084 1131.81C675.141 978.715 605.46 867.556 508.53 856.998C458.433 851.54 402.96 870.053 351.41 869.317C298.869 868.57 247.94 841.571 238.474 768.74C231.016 711.331 250.893 634.893 237.718 579.322C222.115 513.222 164.33 507.614 112.131 530.242C60.3159 552.704 6.47198 596.689 -43.8483 600.994C-125.999 607.673 -171.035 506.123 -225.607 437.599C-301.678 342.078 -413.557 313.699 -530.99 362.829" stroke="white" stroke-opacity="0.02" stroke-width="2.66667" stroke-miterlimit="10"/>
<path d="M678.181 1129.98C674.273 973.392 601.781 859.631 501.19 852.237C450.196 848.489 394.27 869.701 342.857 867.789C291.442 865.878 241.459 832.779 235.633 755.752C231.08 695.545 254.369 619.507 241.948 565.628C226.973 500.691 167.634 500.015 115.991 525.107C64.3446 550.199 11.3588 594.503 -38.1898 598.2C-121.164 604.39 -165.015 498.52 -221.188 430.477C-300.419 334.504 -419.402 310.229 -541.306 365.165" stroke="white" stroke-opacity="0.02" stroke-width="2.66667" stroke-miterlimit="10"/>
<path d="M617.51 362.48C622.592 302.634 608.674 235.431 581.764 189.858C554.853 144.285 515.787 121.767 481.419 132.016C442.554 143.609 411.653 193.21 371.929 198.339C323.653 204.568 277.818 145.009 231.626 107.521C168.053 55.9325 96.0029 44.7678 33.4576 76.8062C-16.0362 102.16 -58.4962 152.652 -105.613 187.125C-152.731 221.599 -209.358 238.917 -259.459 197.177C-313.28 152.335 -346.372 51.1665 -397.154 -4.73292C-458.604 -72.3756 -542.395 -56.2661 -584.202 31.229" stroke="white" stroke-opacity="0.03" stroke-width="2.66667" stroke-miterlimit="10"/>
<path d="M623.808 354.847C627.798 293.9 612.664 226.475 584.79 181.382C557.092 136.43 517.543 114.93 482.907 126.117C479.927 127.078 476.992 128.261 474.099 129.631C438.988 146.244 409.87 190.074 373.298 196.941C355.545 200.275 338.044 194.884 320.563 184.721C290.597 167.372 261.043 135.778 231.409 111.847C209.043 93.7881 185.74 79.9971 162.28 70.9194C118.102 53.7932 72.9206 53.1421 31.444 71.8968C21.2933 76.4795 11.4064 82.1481 1.68928 88.6166C-36.7357 114.229 -71.9591 152.371 -110.044 180.442C-114.843 183.978 -119.733 187.346 -124.701 190.494C-169.124 218.658 -220.315 229.006 -265.729 190.28C-317.902 145.793 -350.211 47.8954 -399.264 -7.27822C-458.632 -74.0698 -539.264 -61.0859 -580.447 20.9288" stroke="white" stroke-opacity="0.03" stroke-width="2.66668" stroke-miterlimit="10"/>
<path d="M630.099 347.213C633.001 285.166 616.65 217.521 587.81 172.914C559.329 128.576 519.305 108.092 484.395 120.216C481.391 121.258 478.437 122.521 475.522 123.975C440.174 141.582 411.113 186.548 374.665 195.548C356.974 199.915 339.45 195.794 321.777 186.664C291.421 171.123 261.314 140.38 231.185 116.177C208.522 97.958 185 83.4132 161.433 73.3071C117.018 54.1994 71.5474 50.3998 29.4314 66.9924C19.1131 71.0382 9.03519 76.2382 -0.893361 82.3591C-40.1188 106.58 -75.9202 145.135 -114.474 173.762C-119.332 177.369 -124.277 180.808 -129.299 184.027C-174.192 212.832 -226.231 223.315 -271.996 183.388C-322.532 139.302 -354.048 44.6263 -401.373 -9.82124C-458.659 -75.7617 -536.131 -65.9036 -576.691 10.6304" stroke="white" stroke-opacity="0.03" stroke-width="2.66667" stroke-miterlimit="10"/>
<path d="M636.401 339.581C638.205 276.435 620.584 208.682 590.841 164.443C561.515 120.835 521.068 101.259 485.887 114.314C482.86 115.438 479.882 116.782 476.947 118.317C441.364 136.921 412.353 183.024 376.036 194.151C358.407 199.551 340.862 196.701 322.994 188.612C292.241 174.876 261.582 144.983 230.968 120.505C208.009 102.13 184.265 86.8323 160.589 75.6949C115.936 54.6062 70.1733 47.6593 27.4203 62.0851C16.9348 65.5974 6.66342 70.3299 -3.47285 76.0982C-43.5005 98.9328 -79.8792 137.903 -118.904 167.08C-123.821 170.756 -128.822 174.267 -133.895 177.561C-179.259 207.005 -232.146 217.642 -278.263 176.496C-327.169 132.861 -357.885 41.3575 -403.481 -12.3642C-458.685 -77.4538 -532.996 -70.7223 -572.935 0.33127" stroke="white" stroke-opacity="0.03" stroke-width="2.66667" stroke-miterlimit="10"/>
<path d="M642.693 331.947C643.41 267.701 624.564 199.761 593.864 155.974C563.744 113.012 522.829 94.4233 487.377 108.414C484.33 109.617 481.328 111.044 478.374 112.661C442.56 132.262 413.6 179.499 377.406 192.755C359.841 199.191 342.277 197.544 324.212 190.559C293.069 178.517 261.848 149.588 230.755 124.833C207.493 106.304 183.527 90.2496 159.748 78.0833C114.855 55.0164 68.8029 44.9183 25.4102 57.1813C14.7552 60.1581 4.29658 64.4243 -6.05285 69.8416C-46.8809 91.2853 -83.8376 130.667 -123.332 160.397C-128.308 164.144 -133.365 167.727 -138.491 171.094C-184.323 201.182 -238.059 211.995 -284.53 169.601C-331.814 126.466 -361.72 38.0894 -405.587 -14.9063C-458.708 -79.1445 -529.86 -75.539 -569.176 -9.96739" stroke="white" stroke-opacity="0.03" stroke-width="2.66667" stroke-miterlimit="10"/>
<path d="M648.997 324.315C648.616 258.97 628.547 190.834 596.894 147.505C565.978 105.186 524.593 87.5884 488.87 102.515C485.797 103.797 482.776 105.306 479.799 107.008C443.747 127.604 414.843 175.976 378.78 191.363C361.275 198.832 343.695 198.442 325.434 192.508C293.896 182.254 262.124 154.192 230.536 129.162C206.98 110.479 182.794 93.6675 158.907 80.4733C113.774 55.4258 67.4348 42.1784 23.4022 52.275C12.5805 54.7188 1.92816 58.5176 -8.62915 63.5816C-50.256 83.638 -87.7938 123.433 -127.759 153.717C-132.794 157.533 -137.905 161.19 -143.084 164.626C-189.386 195.357 -243.973 206.371 -290.793 162.71C-336.463 120.122 -365.553 34.8219 -407.691 -17.4473C-458.73 -80.8346 -526.721 -80.3556 -565.415 -20.2652" stroke="white" stroke-opacity="0.03" stroke-width="2.66667" stroke-miterlimit="10"/>
<path d="M655.293 316.687C653.829 250.237 632.532 181.907 599.923 139.037C568.218 97.3568 526.351 80.7572 490.364 96.6166C487.266 97.9808 484.223 99.5673 481.227 101.353C444.94 122.945 416.092 172.451 380.153 189.969C362.713 198.474 345.103 199.347 326.654 194.455C294.72 185.994 262.397 158.799 230.326 133.494C206.467 114.652 182.06 97.092 158.066 82.8656C112.696 55.8369 66.0651 39.4422 21.3961 47.3747C10.4072 49.2817 -0.43646 52.6117 -11.2057 57.3282C-53.6324 75.9935 -91.7474 116.203 -132.181 147.04C-137.277 150.923 -142.444 154.652 -147.675 158.162C-194.447 189.533 -249.885 200.776 -297.052 155.821C-341.118 113.822 -369.382 31.5575 -409.791 -19.9858C-458.747 -82.5215 -523.578 -85.1686 -561.649 -30.5602" stroke="white" stroke-opacity="0.03" stroke-width="2.66666" stroke-miterlimit="10"/>
<path d="M661.597 309.054C659.034 241.509 636.523 172.974 602.952 130.569C570.462 89.525 528.122 73.927 491.861 90.72C488.743 92.1643 485.674 93.833 482.658 95.7018C446.138 118.291 417.339 168.931 381.531 188.58C364.151 198.118 346.522 200.251 327.879 196.406C295.544 189.739 262.67 163.408 230.115 137.828C205.958 118.831 181.332 100.513 157.231 85.2582C111.621 56.2512 64.7014 36.7056 19.3925 42.4722C8.23396 43.8463 -2.79867 46.7107 -13.7796 51.072C-57.0058 68.3491 -95.6987 108.971 -136.603 140.362C-141.757 144.317 -146.978 148.118 -152.263 151.699C-199.504 183.711 -255.799 195.208 -303.311 148.93C-345.78 107.563 -373.209 28.293 -411.888 -22.5233C-458.762 -84.2076 -520.432 -89.9816 -557.88 -40.855" stroke="white" stroke-opacity="0.03" stroke-width="2.66667" stroke-miterlimit="10"/>
<path d="M667.903 301.426C664.245 232.781 640.517 164.042 605.986 122.104C572.708 81.6918 529.889 67.0981 493.355 84.827C490.216 86.3518 487.126 88.101 484.089 90.0502C447.339 113.636 418.59 165.412 382.911 187.189C365.59 197.764 347.938 201.162 329.101 198.361C296.37 193.49 262.947 168.023 229.905 142.165C205.451 123.011 180.603 103.941 156.397 87.6582C110.549 56.6663 63.3372 33.9734 17.3921 37.5756C6.06581 38.4133 -5.15783 40.8086 -16.348 44.822C-60.3765 60.7087 -99.6466 101.742 -141.02 133.686C-146.234 137.71 -151.511 141.584 -156.849 145.236C-204.558 177.89 -261.714 189.676 -309.564 142.044C-350.446 101.351 -377.031 25.0324 -413.981 -25.057C-458.772 -85.8893 -517.282 -94.7902 -554.107 -51.1462" stroke="white" stroke-opacity="0.03" stroke-width="2.66667" stroke-miterlimit="10"/>
<path d="M674.2 293.799C669.454 224.054 644.512 155.105 609.012 113.644C574.953 73.8543 531.649 60.2733 494.855 78.9344C491.689 80.5414 488.579 82.3712 485.521 84.4041C448.529 108.985 419.84 161.896 384.288 185.804C367.028 197.409 349.355 202.075 330.332 200.315C297.196 197.25 263.229 172.634 229.697 146.503C204.94 127.192 179.877 107.367 155.563 90.0569C109.477 57.0841 61.9775 31.2425 15.3898 32.6796C3.90016 32.9831 -7.51487 34.9101 -18.9175 38.5713C-63.7448 53.0701 -103.592 94.5178 -145.436 127.011C-150.708 131.106 -156.04 135.054 -161.431 138.777C-209.609 172.074 -267.632 184.173 -315.815 135.16C-355.118 95.1781 -380.85 21.7743 -416.071 -27.5885C-458.779 -87.5683 -514.127 -99.5959 -550.329 -61.434" stroke="white" stroke-opacity="0.03" stroke-width="2.66666" stroke-miterlimit="10"/>
<path d="M680.503 286.175C674.666 215.327 648.511 146.163 612.047 105.185C577.202 66.0195 533.421 53.4485 496.353 73.0495C493.165 74.7341 490.033 76.6445 486.955 78.7611C449.73 104.339 421.094 158.381 385.668 184.418C368.473 197.058 350.78 202.991 331.558 202.27C298.03 201.01 263.511 177.249 229.493 150.844C204.439 131.377 179.156 110.796 154.736 92.457C108.41 57.5038 60.6223 28.5139 13.3956 27.7849C1.73691 27.5555 -9.86794 29.0168 -21.478 32.3257C-67.1072 45.4341 -107.532 87.2934 -149.845 120.339C-155.177 124.504 -160.563 128.523 -166.006 132.32C-214.654 166.257 -273.553 178.706 -322.059 128.275C-359.792 89.0446 -384.662 18.5182 -418.153 -30.1174C-458.778 -89.2448 -510.965 -104.399 -546.543 -71.7196" stroke="white" stroke-opacity="0.03" stroke-width="2.66666" stroke-miterlimit="10"/>
<path d="M686.815 278.551C679.882 206.605 652.514 137.224 615.09 96.7265C579.458 58.179 535.196 46.6304 497.859 67.162C494.647 68.9285 491.49 70.9206 488.393 73.117C450.935 99.6907 422.35 154.867 387.053 183.038C369.921 196.71 352.206 203.914 332.793 204.229C298.865 204.78 263.798 181.865 229.295 155.187C203.942 135.564 178.437 114.23 153.911 94.8596C107.347 57.9296 59.2699 25.7884 11.4073 22.8957C-0.418343 22.1295 -12.2143 23.1221 -24.0376 26.0803C-70.4627 37.7995 -111.467 80.0701 -154.248 113.671C-159.64 117.903 -165.083 121.994 -170.577 125.865C-219.695 160.442 -279.479 173.279 -328.298 121.394C-364.471 82.9482 -388.469 15.264 -420.231 -32.6444C-458.773 -90.9189 -507.798 -109.199 -542.753 -82.0027" stroke="white" stroke-opacity="0.03" stroke-width="2.66667" stroke-miterlimit="10"/>
<path d="M693.118 270.93C685.095 197.887 656.517 128.282 618.122 88.274C581.718 50.3401 536.967 39.8161 499.363 61.2811C496.131 63.1279 492.953 65.197 489.832 67.4816C452.142 95.048 423.613 151.358 388.442 181.657C371.372 196.365 353.629 204.842 334.031 206.191C299.706 208.555 264.089 186.485 229.098 159.533C203.448 139.756 177.724 117.665 153.093 97.2668C106.289 58.357 57.9244 23.0689 9.42273 18.0093C-2.5681 16.7125 -14.5579 17.2346 -26.5887 19.8396C-73.8146 30.1718 -115.395 72.8558 -158.646 107.007C-164.096 111.311 -169.593 115.474 -175.142 119.412C-224.727 154.631 -285.406 167.901 -334.527 114.519C-369.151 76.8903 -392.267 12.0161 -422.299 -35.1641C-458.757 -92.5858 -504.621 -113.992 -538.952 -92.2789" stroke="white" stroke-opacity="0.03" stroke-width="2.66667" stroke-miterlimit="10"/>
<path d="M699.423 263.316C690.308 189.175 660.521 119.343 621.158 79.8298C583.973 42.5033 538.739 33.0083 500.866 55.4088C497.612 57.3324 494.409 59.4871 491.274 61.8527C453.349 90.4154 424.869 147.858 389.834 180.284C372.822 196.027 355.06 205.777 335.269 208.16C300.544 212.338 264.381 191.11 228.907 163.885C202.956 143.95 177.011 121.108 152.276 99.6813C105.235 58.7916 56.5806 20.357 7.44472 13.1341C-4.71605 11.3017 -16.8929 11.3573 -29.136 13.6112C-77.1604 22.5516 -119.317 65.6461 -163.036 100.348C-168.545 104.722 -174.098 108.956 -179.698 112.969C-229.751 148.826 -291.341 162.571 -340.748 107.648C-373.832 70.8716 -396.055 8.77619 -424.357 -37.6761C-458.731 -94.2431 -501.433 -118.775 -535.14 -102.545" stroke="white" stroke-opacity="0.03" stroke-width="2.66666" stroke-miterlimit="10"/>
<path d="M705.729 255.702C695.522 180.467 664.531 110.404 624.201 71.3904C586.233 34.6715 540.521 26.2051 502.375 49.5407C499.095 51.5464 495.876 53.7796 492.714 56.2278C454.558 85.7854 426.135 144.36 391.224 178.915C374.275 195.692 356.495 206.715 336.51 210.128C301.393 216.127 264.679 195.739 228.72 168.24C202.472 148.151 176.31 124.555 151.466 102.1C104.191 59.2337 55.2472 17.6467 5.47374 8.26141C-6.85264 5.89551 -19.2198 5.48209 -31.6731 7.38416C-80.497 14.937 -123.229 58.4432 -167.417 93.6939C-172.985 98.1376 -178.591 102.446 -184.245 106.53C-234.764 143.028 -297.282 157.293 -346.958 100.783C-378.512 64.8861 -399.831 5.54054 -426.403 -40.1824C-458.694 -95.8955 -498.233 -123.552 -531.316 -112.805" stroke="white" stroke-opacity="0.03" stroke-width="2.66666" stroke-miterlimit="10"/>
<path d="M712.042 248.091C700.742 171.76 668.542 101.462 627.243 62.9534C588.503 26.8335 542.301 19.4083 503.889 43.6733C500.588 45.7599 497.342 48.0755 494.166 50.6055C455.775 81.1557 427.403 140.864 392.625 177.547C375.74 195.352 357.939 207.655 337.76 212.099C302.247 219.917 264.983 200.367 228.54 172.595C201.995 152.351 175.611 128.001 150.666 104.52C103.151 59.6724 53.9211 14.9407 3.51127 3.39227C-8.98518 0.490849 -21.5428 -0.39077 -34.2047 1.16203C-83.8263 7.32402 -127.134 51.239 -171.789 87.0442C-177.417 91.5537 -183.079 95.9341 -188.783 100.091C-239.771 137.228 -303.237 152.07 -353.159 93.9177C-383.194 58.9303 -403.6 2.30627 -428.441 -42.6878C-458.649 -97.5466 -495.026 -128.328 -527.485 -123.063" stroke="white" stroke-opacity="0.03" stroke-width="2.66666" stroke-miterlimit="10"/>
<path d="M718.35 240.48C705.958 163.056 672.554 92.5166 630.28 54.5196C590.766 18.9951 544.08 12.6102 505.399 37.8086C502.077 39.9756 498.81 42.3715 495.612 44.9821C456.99 76.5306 428.669 137.366 394.018 176.178C377.199 195.018 359.389 208.664 339.009 214.07C303.121 223.828 265.29 204.998 228.358 176.951C201.514 156.549 174.914 131.45 149.861 106.939C102.11 60.1133 52.5916 12.2358 1.5458 -1.47812C-11.1158 -4.91259 -23.8628 -6.26009 -36.7353 -5.06152C-87.153 -0.287776 -131.04 44.0367 -176.162 80.3925C-181.848 84.9742 -187.566 89.4237 -193.323 93.6515C-244.777 131.429 -309.214 146.913 -359.36 87.0547C-387.888 53.0014 -407.368 -0.926784 -430.48 -45.1923C-458.603 -99.1956 -491.819 -133.102 -523.653 -133.318" stroke="white" stroke-opacity="0.03" stroke-width="2.66666" stroke-miterlimit="10"/>
<path d="M724.658 232.872C711.178 154.349 676.566 83.5675 633.322 46.0805C593.034 11.151 545.862 5.80933 506.915 31.9416C503.565 34.1906 500.282 36.6653 497.063 39.3595C458.205 71.9003 429.943 133.868 395.421 174.806C378.664 194.68 360.831 209.594 340.26 216.039C303.976 227.602 265.594 209.624 228.178 181.305C201.037 160.748 174.216 134.894 149.057 109.357C101.07 60.5557 51.2654 9.52913 -0.417057 -6.34744C-13.2456 -10.3183 -26.1859 -12.133 -39.2668 -11.2838C-90.4826 -7.9007 -134.944 36.8359 -180.535 73.7395C-186.28 78.3913 -192.052 82.9147 -197.862 87.2135C-249.784 125.629 -315.221 141.82 -365.561 80.1898C-392.594 47.0944 -411.136 -4.1618 -432.519 -47.6981C-458.559 -100.847 -488.612 -137.878 -519.823 -143.575" stroke="white" stroke-opacity="0.03" stroke-width="2.66667" stroke-miterlimit="10"/>
<path d="M730.974 225.259C716.396 145.643 680.604 74.4961 636.368 37.6428C595.33 3.19397 547.642 -0.990237 508.426 26.0786C505.054 28.4054 501.747 30.9583 498.509 33.7391C459.418 67.2718 431.214 130.37 396.818 173.437C380.126 194.343 362.273 210.527 341.509 218.005C304.832 231.375 265.899 214.249 227.997 185.654C200.56 164.945 173.52 138.336 148.257 111.772C100.031 60.9929 49.9372 6.82232 -2.37952 -11.2199C-15.3769 -15.7234 -28.5046 -18.0057 -41.7979 -17.5076C-93.8109 -15.5141 -138.848 29.6317 -184.906 67.0864C-190.71 71.8073 -196.537 76.4027 -202.399 80.7751C-254.788 119.829 -321.261 136.803 -371.76 73.3252C-397.31 41.2095 -414.903 -7.39707 -434.556 -50.2044C-458.512 -102.499 -485.405 -142.654 -515.991 -153.832" stroke="white" stroke-opacity="0.03" stroke-width="2.66666" stroke-miterlimit="10"/>
<path d="M737.28 217.649C721.617 136.938 684.613 65.5722 639.409 29.2081C597.588 -4.62269 549.427 -7.78772 509.943 20.211C506.549 22.6192 503.214 25.2545 499.959 28.1143C460.635 62.645 432.488 126.872 398.219 172.065C381.592 194.005 363.717 211.455 342.757 219.974C305.69 235.151 266.204 218.874 227.821 190.005C200.083 169.139 172.824 141.782 147.455 114.188C98.9932 61.4303 48.6127 4.11536 -4.34112 -16.0888C-17.5052 -21.1278 -30.8228 -23.8791 -44.3254 -23.7317C-97.1385 -23.1265 -142.751 22.4299 -189.276 60.4364C-195.14 65.2239 -201.021 69.8938 -206.938 74.3343C-259.792 114.031 -327.344 131.87 -377.96 66.4608C-402.04 35.3433 -418.67 -10.6323 -436.593 -52.7117C-458.467 -104.153 -482.199 -147.43 -512.161 -164.088" stroke="white" stroke-opacity="0.03" stroke-width="2.66667" stroke-miterlimit="10"/>
<path d="M743.59 210.037C726.836 128.229 688.619 56.6466 642.457 20.7679C599.854 -12.4452 551.213 -14.5919 511.459 14.3408C508.04 16.8267 504.69 19.5441 501.414 22.4877C461.856 58.0101 433.758 123.372 399.624 170.691C383.052 193.664 365.16 212.384 344.008 221.938C306.548 238.919 266.514 223.493 227.643 194.352C199.608 173.332 172.131 145.218 146.655 116.598C97.957 61.8628 47.2903 1.40311 -6.30141 -20.9649C-19.6312 -26.537 -33.1417 -29.7545 -46.8542 -29.959C-100.464 -30.7431 -146.652 15.2237 -193.645 53.7801C-199.567 58.6373 -205.504 63.3787 -211.472 67.8922C-264.793 108.227 -333.472 127.033 -384.156 59.593C-406.781 29.4895 -422.435 -13.8719 -438.628 -55.2227C-458.419 -105.809 -478.99 -152.21 -508.328 -174.348" stroke="white" stroke-opacity="0.03" stroke-width="2.66667" stroke-miterlimit="10"/>
<path d="M749.908 202.421C732.059 119.521 692.625 47.722 645.504 12.3288C598.383 -23.0676 544.51 -21.3564 502.864 16.8629C443.759 71.1055 410.571 191.489 345.264 223.901C280.153 256.212 206.969 189.837 145.857 119.009C84.7415 48.1814 20.4743 -33.3973 -49.3809 -36.1864C-110.646 -38.6323 -162.219 20.4787 -216.007 61.452C-269.796 102.424 -339.661 122.304 -390.354 52.7265C-437.473 -11.9459 -452.329 -134.432 -504.498 -184.606" stroke="white" stroke-opacity="0.03" stroke-width="2.66667" stroke-miterlimit="10"/>
<path d="M749.259 200.685C729.149 114.961 686.117 44.0108 636.875 10.814C589.523 -21.1149 536.338 -18.509 494.39 18.7758C435.812 71.3273 401.312 185.098 337.489 213.116C274.059 240.963 204.024 174.379 144.256 104.796C84.1717 34.7767 20.3535 -41.851 -47.9683 -42.4448C-108.105 -42.7141 -158.712 16.5186 -212.04 56.6381C-266.781 97.4894 -337.031 112.144 -389.243 44.4402C-439.196 -20.3337 -459.182 -135.371 -513.162 -178.484" stroke="white" stroke-opacity="0.03" stroke-width="2.66666" stroke-miterlimit="10"/>
<path d="M748.611 198.945C726.242 110.397 679.684 40.2373 628.253 9.29322C580.732 -19.2976 528.085 -15.9193 485.921 20.6871C427.745 71.1947 392.078 178.701 329.716 202.326C267.982 225.711 201.077 158.911 142.662 90.5706C83.6075 21.3618 20.2189 -50.5931 -46.5496 -48.7116C-105.581 -47.0486 -155.129 12.7969 -208.07 51.8161C-263.686 92.8077 -334.448 102.041 -388.131 36.1472C-440.959 -28.6958 -466.035 -136.313 -521.829 -172.365" stroke="white" stroke-opacity="0.03" stroke-width="2.66666" stroke-miterlimit="10"/>
<path d="M747.974 197.2C723.34 105.826 673.31 36.3831 619.63 7.76879C571.998 -17.622 519.881 -13.1929 477.448 22.5985C419.754 71.2581 382.857 172.31 321.944 191.527C261.926 210.464 198.134 143.432 141.067 76.3373C83.0424 7.93642 20.0919 -59.1858 -45.1278 -54.984C-103.045 -51.2529 -151.586 8.92558 -204.095 46.9916C-260.632 87.9786 -331.902 91.9947 -387.016 27.8479C-442.753 -37.0246 -472.888 -137.261 -530.495 -166.247" stroke="white" stroke-opacity="0.03" stroke-width="2.66667" stroke-miterlimit="10"/>
<path d="M747.337 195.456C720.442 101.255 666.985 32.4403 611.008 6.24284C563.308 -16.0829 511.684 -10.4562 468.982 24.5028C411.776 71.3366 373.659 165.926 314.173 180.725C255.888 195.225 195.194 127.951 139.477 62.0967C82.4848 -5.49365 19.9665 -67.7712 -43.7023 -61.26C-100.509 -55.4503 -148.044 5.0362 -200.116 42.164C-257.577 83.1356 -329.388 82.0034 -385.897 19.5445C-444.576 -45.3129 -479.74 -138.209 -539.161 -160.128" stroke="white" stroke-opacity="0.03" stroke-width="2.66667" stroke-miterlimit="10"/>
<path d="M746.702 193.707C717.54 96.6791 660.693 28.3962 602.377 4.71715C554.645 -14.6694 503.492 -7.71044 460.506 26.4144C403.792 71.4356 364.479 159.559 306.398 169.92C249.87 180.002 192.256 112.459 137.888 47.8502C81.9244 -18.9308 19.8416 -76.3482 -42.277 -67.5375C-97.9727 -59.6384 -144.503 1.13103 -196.133 37.334C-254.524 78.2777 -326.898 72.0683 -384.774 11.2386C-446.422 -53.5561 -486.59 -139.157 -547.826 -154.005" stroke="white" stroke-opacity="0.03" stroke-width="2.66666" stroke-miterlimit="10"/>
<path d="M746.063 191.956C714.642 92.0964 654.438 24.2377 593.756 3.18378C546.008 -13.3793 495.303 -4.95591 452.04 28.3181C395.824 71.5457 355.32 153.205 298.626 159.103C243.874 164.8 189.318 96.9567 136.301 33.5967C81.3713 -32.3766 19.7169 -84.9195 -40.8458 -73.8238C-95.4326 -63.8228 -140.964 -2.79346 -192.147 32.4973C-251.471 73.4019 -324.428 62.181 -383.649 2.92389C-448.29 -61.7566 -493.441 -140.11 -556.492 -147.886" stroke="white" stroke-opacity="0.03" stroke-width="2.66667" stroke-miterlimit="10"/>
<path d="M745.428 190.202C711.744 87.5108 648.203 19.9552 585.128 1.64985C537.39 -12.2069 487.115 -2.18872 443.564 30.2214C387.864 71.6751 346.184 146.88 290.855 148.283C237.897 149.625 186.382 81.4505 134.717 19.3332C80.8198 -45.8287 19.5929 -93.4814 -39.412 -80.1138C-92.8911 -67.9985 -137.425 -6.73499 -188.157 27.6577C-248.419 68.5103 -321.975 52.3418 -382.521 -5.39524C-450.175 -69.9098 -500.292 -141.066 -565.159 -141.764" stroke="white" stroke-opacity="0.03" stroke-width="2.66667" stroke-miterlimit="10"/>
<path d="M744.801 188.443C708.843 82.9229 641.975 15.5539 576.504 0.113365C528.777 -11.1408 478.931 0.590443 435.09 32.1265C379.903 71.8206 337.072 140.59 283.082 137.458C231.944 134.488 183.446 65.9339 133.135 5.06275C80.2677 -59.2888 19.4749 -102.033 -37.9778 -86.4067C-90.3467 -72.1629 -133.886 -10.6922 -184.164 22.8149C-245.367 63.604 -319.533 42.5478 -381.389 -13.7179C-452.074 -78.0134 -507.14 -142.021 -573.824 -135.64" stroke="white" stroke-opacity="0.03" stroke-width="2.66667" stroke-miterlimit="10"/>
<path d="M744.159 186.688C705.941 78.3328 635.397 23.4265 567.866 -1.42065C520.409 -18.882 470.749 3.38599 426.611 34.0344C371.949 71.9869 327.772 128.295 275.306 126.626C226.201 125.065 180.512 50.4112 131.55 -9.21162C79.7184 -72.7522 19.3547 -110.57 -36.5401 -92.7009C-87.7989 -76.3153 -130.349 -14.6616 -180.168 17.9719C-242.317 58.6817 -317.101 32.7977 -380.255 -22.0421C-453.984 -86.0651 -513.988 -142.976 -582.489 -129.512" stroke="white" stroke-opacity="0.03" stroke-width="2.66666" stroke-miterlimit="10"/>
<path d="M743.531 184.924C703.044 73.7369 629.393 19.0465 559.238 -2.96149C511.645 -17.8946 462.577 6.18906 418.136 35.9345C364 72.1689 318.9 128.162 267.533 115.789C220.091 104.363 177.58 34.8826 129.971 -23.4974C79.1711 -86.2254 19.2392 -119.098 -35.0979 -99.0033C-85.2489 -80.4571 -126.811 -18.6505 -176.167 13.1221C-239.266 53.7406 -314.674 23.0831 -379.118 -30.3746C-455.904 -94.0716 -520.836 -143.935 -591.156 -123.386" stroke="white" stroke-opacity="0.03" stroke-width="2.66667" stroke-miterlimit="10"/>
<path d="M742.898 183.163C700.15 69.1416 623.385 14.284 550.605 -4.50181C502.874 -16.8277 454.403 9.01175 409.661 37.8387C356.06 72.3707 309.841 122.042 259.761 104.949C214.188 89.3903 174.65 19.3434 128.394 -37.7848C78.6297 -99.7049 19.132 -127.612 -33.6543 -105.307C-82.6912 -84.5859 -123.27 -22.652 -172.162 8.27082C-236.215 48.7825 -312.248 13.4056 -377.975 -38.711C-457.828 -102.029 -527.681 -144.894 -599.819 -117.256" stroke="white" stroke-opacity="0.03" stroke-width="2.66667" stroke-miterlimit="10"/>
<path d="M742.264 181.405C697.25 64.5493 617.355 9.14659 541.971 -6.03406C494.107 -15.6759 446.239 11.8597 401.18 39.7543C348.127 72.5989 300.784 116.008 251.99 94.107C208.294 74.4973 171.723 3.80728 126.824 -52.0726C78.0918 -113.179 19.0344 -136.101 -32.1995 -111.604C-80.1214 -88.6899 -119.724 -26.6573 -168.145 3.42498C-233.155 43.8142 -309.815 3.77046 -376.819 -47.0412C-459.745 -109.927 -534.512 -145.841 -608.469 -111.114" stroke="white" stroke-opacity="0.03" stroke-width="2.66666" stroke-miterlimit="10"/>
<path d="M741.635 179.652C694.35 59.9644 610.79 -8.38524 533.345 -7.55954C485.663 -7.05209 438.079 14.7342 392.706 41.6738C340.197 72.8545 291.734 110.066 244.226 83.2724C202.404 59.6877 168.81 -11.7238 125.264 -66.3564C77.5667 -126.649 18.9492 -144.565 -30.7336 -117.893C-77.5356 -92.7684 -116.166 -30.6682 -164.115 -1.41444C-230.086 38.8361 -307.37 -5.82452 -375.648 -55.3658C-461.654 -117.769 -541.329 -146.78 -617.105 -104.96" stroke="white" stroke-opacity="0.03" stroke-width="2.66667" stroke-miterlimit="10"/>
<path d="M741.005 177.901C691.453 55.38 604.505 -13.5379 524.712 -9.07937C477.014 -6.41578 429.926 17.6315 384.238 43.599C332.276 73.1322 282.673 104.217 236.464 72.433C196.508 44.9534 165.898 -27.2593 123.707 -80.6398C77.0453 -140.117 18.8785 -153.007 -29.262 -124.179C-74.9346 -96.8276 -112.603 -34.6869 -160.075 -6.25241C-227.01 33.8408 -304.916 -15.3882 -374.466 -63.6898C-463.555 -125.561 -548.136 -147.715 -625.729 -98.7997" stroke="white" stroke-opacity="0.03" stroke-width="2.66667" stroke-miterlimit="10"/>
<path d="M740.372 176.158C688.555 50.8062 598.187 -18.7957 516.078 -10.5855C468.34 -5.81141 421.774 20.5632 375.765 45.5394C324.364 73.4417 273.59 98.4655 228.708 61.6057C190.593 30.3051 162.992 -42.7858 122.158 -94.9123C76.5349 -153.573 18.8204 -161.417 -27.7786 -130.452C-72.3189 -100.854 -109.03 -38.7032 -156.022 -11.0786C-223.926 28.8395 -302.448 -24.9108 -373.268 -72.0017C-465.443 -133.292 -554.927 -148.634 -634.337 -92.6228" stroke="white" stroke-opacity="0.03" stroke-width="2.66666" stroke-miterlimit="10"/>
<path d="M739.742 174.418C685.66 46.2339 591.849 -24.1644 507.451 -12.0912C459.662 -5.25564 413.63 23.516 367.3 47.4779C316.457 73.7769 264.472 92.8009 220.957 50.7767C184.653 15.7181 160.094 -58.3106 120.618 -109.187C76.0309 -167.032 18.7797 -169.809 -26.2875 -136.724C-69.6888 -104.862 -105.452 -42.7289 -151.961 -15.9045C-220.836 23.8201 -299.97 -34.4058 -372.061 -80.3147C-467.323 -140.978 -561.709 -149.55 -642.936 -86.4422" stroke="white" stroke-opacity="0.03" stroke-width="2.66667" stroke-miterlimit="10"/>
<path d="M739.109 172.683C682.762 41.6716 585.477 -29.6362 498.822 -13.5883C450.962 -4.72418 405.493 26.4986 358.835 49.4285C308.556 74.1347 255.302 87.2097 213.206 39.9503C178.677 1.18607 157.2 -73.8342 119.078 -123.454C75.5297 -180.481 18.748 -178.174 -24.7923 -142.986C-67.0437 -108.841 -101.867 -46.7575 -147.891 -20.7235C-217.741 18.7875 -297.481 -43.8693 -370.845 -88.62C-469.193 -148.611 -568.479 -150.457 -651.524 -80.2505" stroke="white" stroke-opacity="0.03" stroke-width="2.66666" stroke-miterlimit="10"/>
<path d="M738.48 170.951C679.867 37.1107 579.077 -35.2061 490.197 -15.079C442.241 -4.21805 397.358 29.5156 350.369 51.3865C300.662 74.521 246.074 81.6765 205.462 29.1306C172.652 -13.3159 154.31 -89.3521 117.548 -137.718C75.0366 -193.927 18.7376 -186.517 -23.288 -149.244C-64.3796 -112.798 -98.2764 -50.7899 -143.813 -25.538C-214.642 13.7403 -294.981 -53.3045 -369.618 -96.9206C-471.054 -156.197 -575.241 -151.356 -660.103 -74.0513" stroke="white" stroke-opacity="0.03" stroke-width="2.66666" stroke-miterlimit="10"/>
<path d="M737.851 169.223C676.973 32.554 572.635 -40.8649 481.566 -16.5624C433.514 -3.73871 389.23 32.5564 341.908 53.3447C292.77 74.9312 236.785 76.1712 197.718 18.3127C166.58 -27.8056 151.425 -104.868 116.019 -151.979C74.5472 -207.368 18.7393 -194.839 -21.7772 -155.497C-61.699 -116.734 -94.6811 -54.8278 -139.729 -30.3485C-211.541 8.6745 -292.47 -62.7154 -368.384 -105.219C-472.905 -163.739 -581.996 -152.25 -668.673 -67.8456" stroke="white" stroke-opacity="0.03" stroke-width="2.66667" stroke-miterlimit="10"/>
<path d="M737.222 167.499C674.072 28.0039 566.164 -46.6124 472.94 -18.0423C424.759 -3.27635 381.101 35.6344 333.449 55.3118C284.882 75.37 227.43 70.6723 189.978 7.49605C160.459 -42.3041 148.542 -120.38 114.497 -166.235C74.0631 -220.804 18.7585 -203.141 -20.2651 -161.742C-59.0021 -120.647 -91.1051 -58.9763 -135.638 -35.1541C-208.477 3.41741 -289.949 -72.1005 -367.142 -113.511C-474.747 -171.237 -588.742 -153.137 -677.235 -61.6328" stroke="white" stroke-opacity="0.03" stroke-width="2.66667" stroke-miterlimit="10"/>
<path d="M736.588 165.779C671.173 23.4564 559.655 -52.4412 464.317 -19.5185C415.986 -2.82794 372.978 38.7416 324.988 57.2844C276.995 75.8285 218.005 65.1529 182.24 -3.31525C154.285 -56.8331 145.661 -135.889 112.975 -180.487C73.5791 -234.236 18.7933 -211.428 -18.7469 -167.984C-56.2903 -124.54 -87.4787 -62.9149 -131.542 -39.9552C-205.331 -1.50815 -287.42 -81.4626 -365.894 -121.799C-476.581 -178.693 -595.481 -154.018 -685.791 -55.4144" stroke="white" stroke-opacity="0.03" stroke-width="2.66667" stroke-miterlimit="10"/>
<path d="M212.298 128.933C212.493 128.954 212.693 128.975 212.901 128.989L223.113 129.736C231.644 130.421 234.633 134.593 234.633 139.45C234.633 144.494 230.399 151.345 218.693 151.345C218.104 151.345 217.53 151.329 216.972 151.301L215.967 146.492C216.808 146.57 217.716 146.612 218.693 146.612C226.414 146.612 229.154 143.373 229.154 139.45C229.153 137.209 227.846 134.842 222.802 134.469L213.313 133.786L212.298 128.933ZM253.305 124.568C262.956 124.568 266.381 129.487 266.381 136.025V149.663C266.381 150.037 265.696 150.722 265.322 150.722H262.707C262.334 150.721 261.836 150.037 261.711 149.663L260.902 147.795H260.715L259.78 148.542C257.601 150.286 254.238 151.345 250.502 151.345C243.964 151.345 240.851 147.92 240.851 143.623C240.851 139.7 243.652 136.4 251.498 136.399H260.902V135.403C260.902 131.729 259.469 129.301 253.305 129.301C248.946 129.301 247.264 130.608 247.264 133.286V133.473C247.264 133.846 246.579 134.033 246.205 134.033H242.843C242.469 134.033 241.785 133.348 241.784 132.975V132.788C241.784 127.993 245.085 124.568 253.305 124.568ZM306.737 124.568C315.703 124.568 320 129.985 320 136.337C320 137.943 319.817 139.488 319.814 139.513H298.205C298.703 143.809 302.502 146.612 307.235 146.612C310.597 146.612 313.212 145.865 315.641 143.623C315.952 143.312 316.139 143 316.824 143C317.385 143 317.509 143.124 317.821 143.436L319.128 144.682C319.439 144.993 319.565 145.242 319.565 145.678C319.565 146.3 319.253 146.549 318.817 146.985C316.077 149.663 312.278 151.345 307.235 151.345C299.513 151.345 292.601 146.736 292.601 137.956C292.601 130.359 298.019 124.568 306.737 124.568ZM285.726 109C288.092 109 290.023 109.498 291.33 110.059C291.891 110.308 292.202 110.495 292.202 110.931C292.202 111.242 292.078 111.491 291.891 111.864L290.77 114.044C290.521 114.48 290.147 114.605 289.586 114.355C288.59 113.982 287.344 113.732 285.912 113.732C283.297 113.733 280.744 115.165 280.744 119.213V125.19H289.213C289.587 125.191 290.085 125.689 290.085 126.062V129.052C290.085 129.425 289.587 129.923 289.213 129.923H280.744V149.663C280.744 150.037 280.059 150.721 279.686 150.722H276.322C275.949 150.721 275.264 150.037 275.264 149.663V129.923H271.902C271.528 129.923 271.03 129.425 271.03 129.052V126.062C271.03 125.689 271.528 125.19 271.902 125.19H275.264V119.213C275.264 112.114 280.184 109 285.726 109ZM251.498 140.51C247.326 140.51 246.33 142.066 246.33 143.623C246.33 145.429 247.7 146.612 250.502 146.612C254.674 146.612 258.66 145.055 260.902 143.249V140.51H251.498ZM306.737 129.301C302.627 129.301 299.015 131.231 298.33 135.403H314.458C314.147 131.231 311.345 129.301 306.737 129.301ZM217.322 112.736C228.905 112.736 233.076 118.03 233.076 124.443C233.076 124.755 232.828 125.066 232.143 125.066H228.469C227.846 125.066 227.597 124.879 227.534 124.008C227.223 120.77 224.608 117.469 217.322 117.469C214.408 117.469 212.009 118.101 210.257 119.162L209.213 114.161C211.414 113.267 214.109 112.736 217.322 112.736Z" fill="#77A2DD"/>
<path d="M176.135 126.279C176.508 126.279 177.193 126.964 177.193 127.337V141.224C177.193 145.209 179 147.7 182.611 147.7C186.908 147.7 190.271 145.209 191.454 141.846V127.337C191.454 126.964 192.139 126.279 192.513 126.279H195.875C196.249 126.279 196.934 126.964 196.934 127.337V150.751C196.933 151.125 196.249 151.81 195.875 151.81H193.322C192.886 151.81 192.45 151.187 192.264 150.689L191.454 148.697H191.143L190.831 149.007C188.963 150.875 185.974 152.433 182.3 152.433C174.827 152.433 171.714 147.887 171.714 141.224V127.337C171.714 126.964 172.399 126.279 172.772 126.279H176.135ZM136.227 114.448C136.974 114.448 137.099 114.448 137.722 115.195L149.366 129.081H149.49C150.3 127.897 151.856 125.656 152.604 124.722L160.574 115.195C161.197 114.448 161.322 114.448 162.069 114.448H166.988C167.237 114.448 167.362 114.634 167.362 114.821C167.362 114.945 167.3 115.132 167.113 115.319L152.542 132.879L167.735 150.938C167.922 151.125 167.985 151.311 167.985 151.436C167.985 151.623 167.86 151.81 167.611 151.81H162.505C161.758 151.81 161.633 151.81 161.011 151.063L148.557 136.243H148.432C147.747 137.363 146.751 139.044 146.128 139.729L136.85 151.063C136.227 151.81 136.102 151.81 135.354 151.81H130.373C130.124 151.81 130 151.623 130 151.436C130 151.311 130.062 151.125 130.249 150.938L145.318 132.444L130.934 115.319C130.747 115.132 130.685 114.945 130.685 114.821C130.685 114.634 130.81 114.448 131.059 114.448H136.227ZM209.856 137.919V150.751C209.856 151.125 209.171 151.81 208.798 151.81H205.436C205.062 151.81 204.377 151.125 204.377 150.751V111.77C204.377 111.56 204.595 111.252 204.852 111.022L209.856 137.919Z" fill="white"/>
</svg>